<?xml version="1.0" standalone="no"?>
<!DOCTYPE svg PUBLIC "-//W3C//DTD SVG 1.1//EN" "http://www.w3.org/Graphics/SVG/1.1/DTD/svg11.dtd" >
<svg>
<metadata>
Created by FontForge 20120731 at Wed Sep 04 16:25:34 2013

Copyright (c) 2010 by Leftloft. All rights reserved.
</metadata>
<defs>
<font id="LiipEticaSB" horiz-adv-x="604" >
  <font-face 
    font-family="Liip Etica SB"
    font-weight="600"
    font-stretch="normal"
    units-per-em="1000"
    panose-1="2 0 5 3 0 0 0 2 0 4"
    ascent="730"
    descent="-270"
    x-height="528"
    cap-height="720"
    bbox="-208 -278 2236 960"
    underline-thickness="50"
    underline-position="-50"
    unicode-range="U+0020-FB04"
  />
<missing-glyph horiz-adv-x="205" 
 />
    <glyph glyph-name="ff" unicode="ff" horiz-adv-x="636" 
d="M531 0h-133v428h-170v-428h-133v428h-66v79l66 15v43c0 97 48 155 148 155c29 0 59 -4 90 -11l-9 -87c-16 5 -31 7 -46 7c-33 0 -50 -20 -50 -59v-42h170v49c0 97 48 155 148 155c33 0 63 -4 88 -11l-7 -87c-17 5 -32 7 -46 7c-33 0 -50 -20 -50 -59v-54h91v-100h-91
v-428z" />
    <glyph glyph-name="fi" unicode="fi" horiz-adv-x="605" 
d="M228 0h-133v428h-66v79l66 15v55c0 97 48 155 148 155c33 0 62 -4 88 -11l-7 -87c-16 5 -31 7 -46 7c-33 0 -50 -20 -50 -59v-54h302v-528h-133v428h-169v-428zM386 663c0 43 33 68 80 68s79 -25 79 -68c0 -41 -32 -66 -79 -66c-45 0 -80 25 -80 66z" />
    <glyph glyph-name="fl" unicode="fl" horiz-adv-x="603" 
d="M228 0h-133v428h-66v79l66 15v55c0 97 48 155 148 155c33 0 62 -4 88 -11l-7 -87c-16 5 -31 7 -46 7c-33 0 -50 -20 -50 -59v-54h170v192h133v-720h-133v428h-170v-428z" />
    <glyph glyph-name="ffi" unicode="ffi" horiz-adv-x="907" 
d="M530 0h-133v428h-169v-428h-133v428h-66v79l66 15v43c0 97 48 155 148 155c29 0 59 -4 90 -11l-9 -87c-16 5 -31 7 -46 7c-33 0 -50 -20 -50 -59v-42h169v49c0 97 48 155 148 155c33 0 62 -4 88 -11l-7 -87c-17 5 -32 7 -46 7c-33 0 -50 -20 -50 -59v-54h302v-528h-133
v428h-169v-428zM688 663c0 43 33 68 80 68s79 -25 79 -68c0 -41 -32 -66 -79 -66c-45 0 -80 25 -80 66z" />
    <glyph glyph-name="ffl" unicode="ffl" horiz-adv-x="903" 
d="M528 0h-133v428h-167v-428h-133v428h-66v79l66 15v43c0 97 48 155 148 155c29 0 59 -4 90 -11l-9 -87c-16 5 -31 7 -46 7c-33 0 -50 -20 -50 -59v-42h167v49c0 97 48 155 148 155c33 0 62 -4 88 -11l-7 -87c-16 5 -31 7 -46 7c-33 0 -50 -20 -50 -59v-54h170v192h133
v-720h-133v428h-170v-428z" />
    <glyph glyph-name="ft" unicode="ft" horiz-adv-x="657" 
d="M623 528v-100h-96v-296c0 -29 11 -43 34 -43s44 3 62 9l13 -91c-39 -13 -80 -20 -124 -20c-78 0 -117 39 -117 118v323h-167v-428h-133v428h-66v79l66 15v55c0 97 48 155 148 155c33 0 62 -4 88 -11l-7 -87c-16 5 -31 7 -46 7c-33 0 -50 -20 -50 -59v-54h169l14 151h116
v-151h96z" />
    <glyph glyph-name="tt" unicode="tt" horiz-adv-x="657" 
d="M624 528v-100h-97v-296c0 -29 11 -43 34 -43s44 3 62 9l13 -91c-39 -13 -80 -20 -124 -20c-78 0 -117 39 -117 118v323h-167v-298c0 -27 13 -41 38 -41c13 0 28 3 44 8l13 -90c-36 -13 -73 -20 -110 -20c-77 0 -116 39 -116 118v323h-70v79l72 21l14 150h115v-150h169
l14 151h116v-151h97z" />
    <glyph glyph-name="fft" unicode="fft" horiz-adv-x="958" 
d="M923 528v-100h-95v-296c0 -29 11 -43 34 -43s44 3 62 9l13 -91c-39 -13 -80 -20 -124 -20c-78 0 -117 39 -117 118v323h-166v-428h-133v428h-169v-428h-133v428h-66v79l66 15v43c0 97 48 155 148 155c29 0 59 -4 90 -11l-9 -87c-16 5 -31 7 -46 7c-33 0 -50 -20 -50 -59
v-42h169v49c0 97 48 155 148 155c33 0 62 -4 88 -11l-7 -87c-17 5 -32 7 -46 7c-33 0 -50 -20 -50 -59v-54h168l14 151h116v-151h95z" />
    <glyph glyph-name=".notdef" horiz-adv-x="205" 
 />
    <glyph glyph-name=".null" horiz-adv-x="0" 
 />
    <glyph glyph-name="CR" horiz-adv-x="205" 
 />
    <glyph glyph-name="space" unicode=" " horiz-adv-x="205" 
 />
    <glyph glyph-name="quotesingle" unicode="'" horiz-adv-x="222" 
d="M60 720h102v-279h-102v279z" />
    <glyph glyph-name="quotedbl" unicode="&#x22;" horiz-adv-x="383" 
d="M60 720h102v-279h-102v279zM221 720h102v-279h-102v279z" />
    <glyph glyph-name="numbersign" unicode="#" horiz-adv-x="703" 
d="M436 380h-135l-39 -120h132zM661 464v-84h-139l-40 -120h121v-84h-149l-62 -168l-80 18l54 150h-133l-62 -168l-79 18l53 150h-100v84h129l41 120h-112v84h141l64 182l81 -18l-57 -164h133l65 179l80 -15l-58 -164h109z" />
    <glyph glyph-name="ampersand" unicode="&#x26;" horiz-adv-x="743" 
d="M278 571c0 -28 20 -63 59 -104c54 31 81 66 81 104c0 39 -25 64 -69 64s-71 -27 -71 -64zM314 92c52 0 98 24 137 71l-164 184c-63 -31 -94 -77 -94 -138c0 -67 48 -117 121 -117zM696 68l-93 -78l-83 91c-68 -68 -132 -96 -225 -96c-67 0 -122 19 -164 58
s-63 91 -63 154c0 95 51 169 154 221c-45 48 -67 97 -67 148c0 45 17 84 52 115s81 47 138 47c53 0 96 -14 130 -41c35 -27 52 -65 52 -112c0 -69 -42 -127 -127 -174l78 -86l107 98l78 -79l-112 -101z" />
    <glyph glyph-name="asterisk" unicode="*" horiz-adv-x="461" 
d="M365 430l-48 -36l-89 93l-90 -93l-50 36l68 102l-104 42l23 57l110 -25l14 115h58l15 -114l116 25l21 -58l-109 -42z" />
    <glyph glyph-name="comma" unicode="," horiz-adv-x="254" 
d="M46 56c0 40 33 71 74 71c53 0 82 -41 82 -96c0 -84 -48 -153 -139 -185l-20 47c55 26 83 62 85 107c-10 -3 -19 -5 -26 -5c-35 0 -56 25 -56 61z" />
    <glyph glyph-name="hyphen" unicode="-" horiz-adv-x="332" 
d="M300 225h-268v105h268v-105z" />
    <glyph glyph-name="period" unicode="." horiz-adv-x="257" 
d="M52 57c0 45 28 74 76 74c47 0 77 -28 77 -71c0 -44 -30 -73 -77 -73c-48 0 -76 29 -76 70z" />
    <glyph glyph-name="colon" unicode=":" horiz-adv-x="257" 
d="M52 57c0 45 28 74 76 74c47 0 77 -28 77 -71c0 -44 -30 -73 -77 -73c-48 0 -76 29 -76 70zM52 434c0 45 28 74 76 74c47 0 77 -28 77 -71c0 -44 -30 -73 -77 -73c-48 0 -76 29 -76 70z" />
    <glyph glyph-name="semicolon" unicode=";" horiz-adv-x="257" 
d="M51 434c0 45 28 74 76 74c47 0 77 -28 77 -71c0 -44 -30 -73 -77 -73c-48 0 -76 29 -76 70zM49 56c0 40 33 71 74 71c53 0 82 -41 82 -96c0 -84 -48 -153 -139 -185l-20 47c55 26 83 62 85 107c-10 -3 -19 -5 -26 -5c-35 0 -56 25 -56 61z" />
    <glyph glyph-name="question" unicode="?" horiz-adv-x="551" 
d="M335 213h-119v33c0 52 24 100 55 133c44 48 100 94 100 153c0 57 -36 87 -95 87c-64 0 -108 -41 -108 -114h-123c0 151 94 227 239 227c63 0 115 -16 157 -49c43 -32 64 -78 64 -138c0 -56 -27 -107 -60 -143c-48 -52 -110 -104 -110 -169v-20zM198 57c0 45 28 74 76 74
c47 0 77 -28 77 -71c0 -44 -30 -73 -77 -73c-48 0 -76 29 -76 70z" />
    <glyph glyph-name="exclam" unicode="!" horiz-adv-x="323" 
d="M218 213h-110l-12 270v237h135v-237zM85 57c0 45 28 74 76 74c47 0 77 -28 77 -71c0 -44 -30 -73 -77 -73c-48 0 -76 29 -76 70z" />
    <glyph glyph-name="exclamdown" unicode="&#xa1;" horiz-adv-x="323" 
d="M96 -194v237l12 270h110l13 -270v-237h-135zM85 469c0 41 28 70 76 70c47 0 77 -29 77 -73c0 -43 -30 -71 -77 -71c-48 0 -76 29 -76 74z" />
    <glyph glyph-name="questiondown" unicode="&#xbf;" horiz-adv-x="551" 
d="M219 314h119v-33c0 -52 -24 -100 -55 -133c-44 -48 -100 -94 -100 -153c0 -57 36 -87 95 -87c64 0 108 41 108 114h123c0 -151 -94 -227 -239 -227c-63 0 -115 16 -158 49c-42 32 -63 78 -63 138c0 56 27 107 60 143c48 52 110 104 110 169v20zM356 470
c0 -45 -29 -74 -77 -74c-45 0 -77 28 -77 71s32 73 77 73c48 0 77 -29 77 -70z" />
    <glyph glyph-name="at" unicode="@" horiz-adv-x="993" 
d="M561 184l40 158c-16 10 -38 15 -67 15c-50 0 -90 -19 -119 -56s-44 -82 -44 -135c0 -61 24 -91 73 -91c55 0 100 45 117 109zM696 390l-58 -229c-3 -15 -5 -27 -5 -38c0 -32 16 -48 49 -48c32 0 60 12 85 36c51 49 73 122 73 194c0 87 -27 153 -82 199
c-55 47 -128 70 -219 70c-110 0 -200 -36 -271 -109c-70 -73 -105 -165 -105 -276c0 -100 31 -179 94 -236c63 -58 146 -87 247 -87c107 0 202 31 286 93l39 -60c-88 -68 -213 -105 -332 -105c-123 0 -223 35 -302 106s-118 167 -118 290c0 133 45 243 134 329
s200 129 331 129c114 0 206 -31 277 -93s106 -144 106 -245c0 -89 -26 -163 -77 -221s-110 -87 -179 -87c-68 0 -104 26 -107 78c-33 -51 -81 -77 -143 -77c-91 0 -134 64 -134 159c0 74 24 137 72 189c48 53 110 79 186 79c55 0 106 -13 153 -40z" />
    <glyph glyph-name="A" unicode="A" horiz-adv-x="694" 
d="M18 0l259 720h139l259 -720h-148l-53 163h-254l-53 -163h-149zM346 562l-89 -283h179z" />
    <glyph glyph-name="B" unicode="B" horiz-adv-x="656" 
d="M337 606h-124v-182h110c77 0 124 31 124 95c0 58 -37 87 -110 87zM354 318h-141v-201h145c77 0 120 38 120 103s-41 98 -124 98zM320 0h-245v720h266c168 0 248 -57 248 -177c0 -76 -44 -142 -125 -161v-2c52 -7 91 -27 116 -60c26 -32 39 -67 39 -106
c0 -168 -132 -214 -299 -214z" />
    <glyph glyph-name="C" unicode="C" horiz-adv-x="684" 
d="M579 195l74 -91c-81 -78 -175 -117 -283 -117c-104 0 -183 34 -237 102c-54 69 -81 159 -81 271c0 110 28 199 84 268c57 69 137 104 240 104c78 0 142 -22 192 -65c51 -43 78 -106 82 -188h-139c-5 73 -45 128 -134 128c-111 0 -177 -90 -177 -246
c0 -163 68 -249 184 -249c66 0 131 28 195 83z" />
    <glyph glyph-name="D" unicode="D" horiz-adv-x="727" 
d="M314 598h-101v-477h101c145 0 212 78 212 237c0 160 -71 240 -212 240zM75 0v720h237c233 0 358 -128 358 -352c0 -256 -122 -368 -379 -368h-216z" />
    <glyph glyph-name="E" unicode="E" horiz-adv-x="610" 
d="M560 0h-485v720h479v-122h-341v-173h310v-122h-310v-182h347v-121z" />
    <glyph glyph-name="F" unicode="F" horiz-adv-x="573" 
d="M213 0h-138v720h461v-122h-323v-184h285v-119h-285v-295z" />
    <glyph glyph-name="G" unicode="G" horiz-adv-x="734" 
d="M538 269h-128v115h260v-286c-67 -74 -160 -111 -278 -111c-254 0 -340 171 -340 373c0 113 28 204 84 271c57 67 139 101 248 101c188 0 273 -94 282 -235h-143c-4 67 -47 110 -139 110c-120 0 -187 -96 -187 -245c0 -168 68 -252 203 -252c59 0 105 14 138 41v118z" />
    <glyph glyph-name="H" unicode="H" horiz-adv-x="723" 
d="M213 0h-138v720h138v-293h297v293h138v-720h-138v302h-297v-302z" />
    <glyph glyph-name="I" unicode="I" horiz-adv-x="292" 
d="M215 0h-138v720h138v-720z" />
    <glyph glyph-name="J" unicode="J" horiz-adv-x="431" 
d="M220 720h139v-535c0 -132 -59 -198 -177 -198c-61 0 -112 9 -155 27l17 108c30 -11 61 -16 93 -16c63 0 83 24 83 100v514z" />
    <glyph glyph-name="K" unicode="K" horiz-adv-x="679" 
d="M213 0h-138v720h138v-297h101l165 297h154l-200 -351l227 -369h-160l-188 309h-99v-309z" />
    <glyph glyph-name="L" unicode="L" horiz-adv-x="563" 
d="M75 0v720h138v-598h313v-122h-451z" />
    <glyph glyph-name="M" unicode="M" horiz-adv-x="885" 
d="M763 720l71 -720h-130l-47 486l-158 -486h-111l-158 487l-47 -487h-132l70 720h148l174 -529l178 529h142z" />
    <glyph glyph-name="N" unicode="N" horiz-adv-x="729" 
d="M211 0h-136v720h122l320 -487v487h137v-720h-121l-322 481v-481z" />
    <glyph glyph-name="O" unicode="O" horiz-adv-x="790" 
d="M197 364c0 -160 73 -251 198 -251c127 0 198 90 198 251c0 149 -74 242 -197 242c-125 0 -199 -94 -199 -242zM52 364c0 115 31 205 93 270c63 65 146 98 250 98c105 0 188 -33 250 -98s93 -155 93 -270c0 -121 -31 -214 -93 -279c-61 -65 -145 -98 -250 -98
s-189 33 -251 98c-61 66 -92 159 -92 279z" />
    <glyph glyph-name="P" unicode="P" horiz-adv-x="634" 
d="M325 601h-112v-237h106c88 0 134 43 134 119c0 79 -43 118 -128 118zM213 0h-138v720h261c164 0 254 -84 254 -231c0 -151 -89 -238 -264 -238h-113v-251z" />
    <glyph glyph-name="Q" unicode="Q" horiz-adv-x="790" 
d="M736 10l-46 -112l-255 91c-17 -1 -31 -2 -40 -2c-105 0 -189 33 -251 98c-61 66 -92 159 -92 279c0 115 31 205 93 270c63 65 146 98 250 98c105 0 188 -33 250 -98s93 -155 93 -270c0 -141 -54 -248 -145 -304v-5zM197 364c0 -160 73 -251 198 -251
c127 0 198 90 198 251c0 149 -74 242 -197 242c-125 0 -199 -94 -199 -242z" />
    <glyph glyph-name="R" unicode="R" horiz-adv-x="667" 
d="M75 0v720h259c172 0 264 -85 264 -225c0 -92 -38 -158 -115 -198l154 -297h-150l-133 265c-23 -3 -45 -5 -64 -5h-77v-260h-138zM328 601h-115v-230h109c90 0 135 39 135 118c0 75 -43 112 -129 112z" />
    <glyph glyph-name="S" unicode="S" horiz-adv-x="615" 
d="M31 107l69 85c72 -60 143 -90 213 -90c64 0 109 37 109 94c0 28 -10 50 -31 67s-61 34 -120 51c-76 21 -130 47 -163 78c-32 31 -48 75 -48 131c0 68 23 120 69 155c47 36 107 54 181 54c97 0 179 -34 246 -101l-67 -82c-53 47 -112 71 -176 71c-67 0 -111 -30 -111 -83
c0 -29 11 -50 34 -65c23 -14 67 -32 133 -54c71 -23 122 -50 152 -81c30 -30 45 -72 45 -127c0 -69 -23 -124 -70 -164c-47 -39 -109 -59 -188 -59c-109 0 -201 40 -277 120z" />
    <glyph glyph-name="T" unicode="T" horiz-adv-x="617" 
d="M378 0h-138v598h-216v122h569v-122h-215v-598z" />
    <glyph glyph-name="U" unicode="U" horiz-adv-x="715" 
d="M72 272v448h138v-442c0 -112 55 -168 148 -168c101 0 147 55 147 168v442h138v-448c0 -187 -101 -284 -286 -284c-183 0 -285 92 -285 284z" />
    <glyph glyph-name="V" unicode="V" horiz-adv-x="650" 
d="M404 0h-161l-227 720h145l164 -559l167 559h142z" />
    <glyph glyph-name="W" unicode="W" horiz-adv-x="943" 
d="M350 0h-150l-183 720h141l128 -541l123 541h126l125 -541l124 541h142l-183 -720h-147l-124 507z" />
    <glyph glyph-name="X" unicode="X" horiz-adv-x="651" 
d="M179 0h-161l223 367l-215 353h153l147 -249l150 249h157l-227 -363l222 -357h-158l-147 244z" />
    <glyph glyph-name="Y" unicode="Y" horiz-adv-x="643" 
d="M387 0h-139v287l-236 433h151l156 -296l157 296h155l-244 -433v-287z" />
    <glyph glyph-name="Z" unicode="Z" horiz-adv-x="629" 
d="M590 0h-552v88l347 510h-327v122h533v-55l-378 -544h377v-121z" />
    <glyph glyph-name="a" unicode="a" horiz-adv-x="558" 
d="M360 203v14c-17 3 -38 5 -63 5c-81 0 -121 -26 -121 -78c0 -39 24 -59 72 -59c33 0 59 12 80 37s32 52 32 81zM493 346v-346h-106l-14 71c-38 -56 -93 -84 -166 -84c-99 0 -163 55 -163 155c0 47 19 87 57 119c39 32 100 48 184 48c28 0 53 -1 75 -4v39
c0 60 -30 90 -90 90c-59 0 -97 -15 -156 -50l-45 80c64 51 136 76 215 76c139 0 209 -65 209 -194z" />
    <glyph glyph-name="b" unicode="b" horiz-adv-x="627" 
d="M202 360v-201c29 -41 67 -61 115 -61c79 0 118 55 118 164c0 112 -38 168 -114 168c-44 0 -84 -23 -119 -70zM185 65l-11 -65h-105v720h133v-253c42 49 95 73 159 73c131 0 215 -98 215 -274c0 -177 -75 -278 -232 -278c-67 0 -120 26 -159 77z" />
    <glyph glyph-name="c" unicode="c" horiz-adv-x="558" 
d="M468 146l49 -84c-61 -50 -133 -75 -218 -75c-76 0 -137 24 -183 73c-45 49 -68 117 -68 203c0 84 24 151 71 201c48 51 111 76 189 76c135 0 211 -74 215 -211h-111c-7 68 -45 103 -102 103c-76 0 -122 -57 -122 -164c0 -104 45 -170 130 -170c43 0 93 16 150 48z" />
    <glyph glyph-name="d" unicode="d" horiz-adv-x="624" 
d="M557 0h-118l-7 68c-39 -54 -94 -81 -164 -81c-144 0 -217 102 -217 275c0 87 20 155 61 204s95 74 161 74c58 0 109 -23 152 -70v250h132v-720zM424 158v209c-33 40 -72 60 -116 60c-73 0 -117 -55 -117 -163c0 -110 40 -165 120 -165c42 0 80 20 113 59z" />
    <glyph glyph-name="e" unicode="e" horiz-adv-x="575" 
d="M474 142l43 -87c-61 -45 -133 -68 -214 -68c-160 0 -255 97 -255 273c0 85 23 153 69 204c47 51 109 76 187 76c148 0 227 -87 227 -256c0 -31 -1 -53 -2 -65h-341c7 -81 50 -122 131 -122c46 0 98 15 155 45zM189 315h215c0 83 -33 125 -99 125c-39 0 -67 -14 -86 -41
s-29 -55 -30 -84z" />
    <glyph glyph-name="f" unicode="f" horiz-adv-x="333" 
d="M228 0h-133v428h-66v79l66 15v55c0 97 48 155 148 155c33 0 62 -4 88 -11l-7 -87c-16 5 -31 7 -46 7c-33 0 -50 -20 -50 -59v-54h91v-100h-91v-428z" />
    <glyph glyph-name="g" unicode="g" horiz-adv-x="629" 
d="M447 528h110v-499c0 -88 -20 -150 -59 -185c-39 -36 -102 -54 -189 -54c-69 0 -133 11 -191 33l21 97c64 -17 117 -26 160 -26c96 0 130 37 130 136v49c-41 -51 -95 -76 -162 -76c-139 0 -216 91 -216 258c0 171 80 279 225 279c62 0 116 -27 162 -80zM424 170v195
c-23 31 -69 62 -117 62c-77 0 -116 -53 -116 -158c0 -104 39 -156 118 -156c42 0 80 19 115 57z" />
    <glyph glyph-name="h" unicode="h" horiz-adv-x="594" 
d="M69 0v720h133v-256c46 51 100 76 163 76c105 0 164 -68 164 -187v-353h-133v320c0 69 -19 107 -84 107c-39 0 -75 -20 -110 -59v-368h-133z" />
    <glyph glyph-name="i" unicode="i" horiz-adv-x="282" 
d="M64 663c0 43 33 68 80 68s79 -25 79 -68c0 -41 -32 -66 -79 -66c-45 0 -80 25 -80 66zM75 528h132v-528h-132v528z" />
    <glyph glyph-name="j" unicode="j" horiz-adv-x="282" 
d="M75 528h132v-578c0 -101 -43 -154 -144 -154c-31 0 -62 5 -91 14l10 93c17 -4 33 -6 47 -6c33 0 46 13 46 60v571zM62 663c0 43 33 68 80 68s79 -25 79 -68c0 -41 -32 -66 -79 -66c-45 0 -80 25 -80 66z" />
    <glyph glyph-name="k" unicode="k" horiz-adv-x="571" 
d="M69 720h133v-374h65l116 182h146l-157 -234l181 -294h-155l-140 236h-56v-236h-133v720z" />
    <glyph glyph-name="l" unicode="l" horiz-adv-x="277" 
d="M205 720v-720h-133v720h133z" />
    <glyph glyph-name="m" unicode="m" horiz-adv-x="859" 
d="M69 0v528h111l11 -69c46 54 99 81 160 81c63 0 106 -26 128 -79c50 53 106 79 168 79c98 0 147 -58 147 -174v-366h-133v340c0 57 -17 86 -65 86c-31 0 -64 -18 -98 -54v-372h-132v336c0 60 -14 90 -62 90c-35 0 -69 -19 -102 -56v-370h-133z" />
    <glyph glyph-name="n" unicode="n" horiz-adv-x="594" 
d="M69 0v528h111l11 -70c47 55 104 82 171 82c109 0 167 -69 167 -186v-354h-133v314c0 79 -27 113 -83 113c-41 0 -78 -20 -111 -59v-368h-133z" />
    <glyph glyph-name="o" unicode="o" horiz-adv-x="621" 
d="M188 264c0 -113 47 -165 122 -165c76 0 123 52 123 165c0 112 -48 166 -123 166s-122 -57 -122 -166zM48 261c0 89 24 157 73 206s113 73 191 73c77 0 140 -24 188 -72c49 -48 73 -116 73 -204c0 -87 -25 -155 -75 -204c-49 -49 -114 -73 -193 -73
c-160 0 -257 99 -257 274z" />
    <glyph glyph-name="p" unicode="p" horiz-adv-x="627" 
d="M202 362v-206c23 -28 67 -57 118 -57c77 0 115 54 115 163c0 111 -37 167 -112 167c-45 0 -85 -22 -121 -67zM202 53v-253h-133v728h110l14 -69c48 54 105 81 172 81c131 0 211 -97 211 -274c0 -175 -77 -278 -221 -278c-62 0 -113 22 -153 65z" />
    <glyph glyph-name="q" unicode="q" horiz-adv-x="625" 
d="M557 -200h-134v253c-40 -43 -90 -65 -150 -65c-148 0 -222 101 -222 274c0 87 21 155 62 204c42 49 97 74 165 74c59 0 113 -25 160 -76l17 64h102v-728zM424 157v210c-33 40 -72 60 -116 60c-73 0 -117 -55 -117 -163c0 -110 40 -165 120 -165c43 0 80 19 113 58z" />
    <glyph glyph-name="r" unicode="r" horiz-adv-x="375" 
d="M69 528h106l12 -76c27 52 70 88 117 88c16 0 33 -4 52 -11l-10 -121c-16 5 -33 7 -50 7c-37 0 -74 -32 -94 -65v-350h-133v528z" />
    <glyph glyph-name="s" unicode="s" horiz-adv-x="524" 
d="M33 79l59 80c59 -45 115 -68 167 -68c47 0 74 21 74 54c0 18 -7 32 -21 42c-13 10 -41 20 -84 31c-116 29 -162 74 -162 159c0 101 79 163 200 163c81 0 151 -27 210 -80l-59 -77c-52 37 -100 56 -145 56c-49 0 -73 -16 -73 -47c0 -18 8 -31 23 -40c16 -9 47 -20 92 -33
c117 -33 163 -72 163 -157c0 -111 -82 -175 -211 -175c-91 0 -169 31 -233 92z" />
    <glyph glyph-name="t" unicode="t" horiz-adv-x="359" 
d="M324 528v-100h-95v-296c0 -29 11 -43 34 -43s44 3 62 9l13 -91c-39 -13 -80 -20 -124 -20c-78 0 -117 39 -117 118v323h-69v77l71 22l14 152h116v-151h95z" />
    <glyph glyph-name="u" unicode="u" horiz-adv-x="589" 
d="M520 528v-528h-109l-11 69c-48 -55 -104 -82 -167 -82c-112 0 -168 61 -168 183v358h133v-326c0 -69 22 -103 79 -103c41 0 77 19 110 57v372h133z" />
    <glyph glyph-name="v" unicode="v" horiz-adv-x="541" 
d="M194 0l-176 528h139l116 -399l116 399h134l-174 -528h-155z" />
    <glyph glyph-name="w" unicode="w" horiz-adv-x="790" 
d="M557 151l77 377h132l-139 -528h-144l-90 345l-87 -345h-144l-138 528h132l84 -377l91 377h125z" />
    <glyph glyph-name="x" unicode="x" horiz-adv-x="550" 
d="M160 0h-143l178 265l-173 263h144l109 -177l110 177h141l-171 -263l177 -265h-143l-114 179z" />
    <glyph glyph-name="y" unicode="y" horiz-adv-x="536" 
d="M266 138l118 390h133l-178 -507c-10 -29 -17 -49 -22 -61c-4 -12 -10 -28 -19 -49s-16 -35 -23 -43c-12 -16 -35 -46 -58 -54s-54 -17 -94 -17c-29 0 -59 4 -89 12l10 94c25 -5 47 -7 67 -7c43 0 66 14 86 74l5 15l-184 543h139z" />
    <glyph glyph-name="z" unicode="z" horiz-adv-x="480" 
d="M441 0h-398v83l229 344h-224v101h394v-59l-242 -369h241v-100z" />
    <glyph glyph-name="bracketleft" unicode="[" horiz-adv-x="358" 
d="M304 -27v-98h-227v845h227v-99h-102v-648h102z" />
    <glyph glyph-name="bracketright" unicode="]" horiz-adv-x="358" 
d="M281 720v-845h-227v98h102v648h-102v99h227z" />
    <glyph glyph-name="parenleft" unicode="(" horiz-adv-x="370" 
d="M227 738l91 -47c-47 -66 -80 -129 -101 -188s-31 -126 -31 -201c0 -71 10 -136 31 -193s57 -120 107 -188l-78 -53c-57 52 -103 116 -137 191c-34 76 -51 156 -51 241c0 163 56 309 169 438z" />
    <glyph glyph-name="parenright" unicode=")" horiz-adv-x="370" 
d="M52 691l91 47c113 -129 169 -275 169 -438c0 -85 -17 -165 -51 -241c-34 -75 -80 -139 -137 -191l-78 53c50 68 85 131 106 188s32 122 32 193c0 75 -10 142 -31 201s-54 122 -101 188z" />
    <glyph glyph-name="braceleft" unicode="{" horiz-adv-x="406" 
d="M372 720v-93h-37c-51 0 -65 -30 -65 -109v-119c0 -61 -21 -98 -81 -114c35 -7 57 -21 66 -42c10 -21 15 -55 15 -100v-90c0 -64 12 -85 68 -85h34v-93h-46c-70 0 -118 11 -144 34c-25 23 -38 64 -38 124v117c0 63 -17 88 -68 88h-39v93h34c60 0 73 27 73 116v83
c0 70 14 119 41 147c27 29 76 43 146 43h41z" />
    <glyph glyph-name="braceright" unicode="}" horiz-adv-x="406" 
d="M71 627h-37v93h41c70 0 119 -14 146 -43c27 -28 41 -77 41 -147v-83c0 -89 13 -116 73 -116h34v-93h-39c-51 0 -68 -25 -68 -88v-117c0 -60 -13 -101 -39 -124c-25 -23 -73 -34 -143 -34h-46v93h34c56 0 68 21 68 85v90c0 45 5 79 14 100c10 21 32 35 67 42
c-60 16 -81 53 -81 114v119c0 79 -14 109 -65 109z" />
    <glyph glyph-name="backslash" unicode="\" horiz-adv-x="405" 
d="M36 739h109l240 -831h-107z" />
    <glyph glyph-name="slash" unicode="/" horiz-adv-x="508" 
d="M511 703l-370 -729l-129 70l369 718z" />
    <glyph glyph-name="brokenbar" unicode="&#xa6;" horiz-adv-x="504" 
d="M195 214h113v-414h-113v414zM195 720h113v-415h-113v415z" />
    <glyph glyph-name="bar" unicode="|" horiz-adv-x="504" 
d="M195 720h113v-920h-113v920z" />
    <glyph glyph-name="asciicircum" unicode="^" horiz-adv-x="710" 
d="M313 693h81l228 -241l-63 -53l-204 206l-205 -207l-64 59z" />
    <glyph glyph-name="underscore" unicode="_" horiz-adv-x="489" 
d="M490 -218h-491v92h491v-92z" />
    <glyph glyph-name="asciitilde" unicode="~" horiz-adv-x="784" 
d="M677 385l55 -96c-66 -51 -135 -77 -206 -77c-31 0 -76 10 -134 30c-58 21 -99 31 -124 31c-41 0 -94 -20 -158 -59l-53 95c74 51 143 77 206 77c30 0 74 -10 131 -30c58 -20 100 -30 125 -30c45 0 98 20 158 59z" />
    <glyph glyph-name="uni00A0" unicode="&#xa0;" horiz-adv-x="205" 
 />
    <glyph glyph-name="zero" unicode="0" horiz-adv-x="616" 
d="M183 352c0 -169 42 -253 125 -253s125 85 125 255s-42 255 -125 255s-125 -86 -125 -257zM310 720c164 0 254 -126 254 -361c0 -247 -91 -372 -259 -372c-165 0 -253 124 -253 365s91 368 258 368z" />
    <glyph glyph-name="one" unicode="1" horiz-adv-x="488" 
d="M64 100h147v448c-49 -27 -102 -43 -157 -50l-17 88c73 19 155 67 204 124h100v-610h130v-100h-407v100z" />
    <glyph glyph-name="two" unicode="2" horiz-adv-x="536" 
d="M488 0h-450v80l245 296c47 57 65 93 65 138c0 56 -42 94 -101 94c-43 0 -99 -25 -168 -76l-57 81c77 71 160 107 247 107c59 0 108 -17 148 -50c41 -33 61 -80 61 -139c0 -38 -6 -72 -19 -101c-12 -29 -33 -61 -63 -98l-185 -226h277v-106z" />
    <glyph glyph-name="three" unicode="3" horiz-adv-x="545" 
d="M18 84l59 78c55 -45 112 -68 171 -68c73 0 122 38 122 107c0 73 -44 110 -131 111c-29 0 -50 -1 -63 -4v105c92 3 161 48 161 117c0 56 -38 83 -95 83c-47 0 -96 -15 -147 -46l-49 81c69 48 141 72 218 72c119 0 199 -65 199 -172c0 -80 -48 -144 -132 -169v-3
c107 -11 163 -76 163 -176c0 -66 -23 -118 -68 -156s-102 -57 -170 -57c-95 0 -174 32 -238 97z" />
    <glyph glyph-name="four" unicode="4" horiz-adv-x="585" 
d="M353 592l-197 -332h197v332zM478 0h-125v153h-321v96l279 461h167v-450h80v-107h-80v-153z" />
    <glyph glyph-name="five" unicode="5" horiz-adv-x="546" 
d="M162 260h-106l35 450h369l-7 -112h-261l-18 -189c33 29 77 44 130 44c121 0 193 -78 193 -221c0 -79 -23 -139 -70 -182c-46 -42 -105 -63 -177 -63c-86 0 -160 25 -221 76l43 84c63 -34 117 -51 164 -51c80 0 136 46 136 134c0 83 -35 124 -106 124
c-39 0 -72 -14 -99 -42z" />
    <glyph glyph-name="six" unicode="6" horiz-adv-x="567" 
d="M49 310c0 264 97 410 270 410c59 0 117 -17 175 -52l-39 -87c-42 24 -83 36 -123 36c-113 0 -157 -115 -162 -244c51 49 105 74 163 74c117 0 191 -83 191 -214c0 -164 -92 -246 -231 -246c-163 0 -244 108 -244 323zM292 89c65 0 109 44 109 133c0 81 -34 121 -103 121
c-48 0 -96 -29 -125 -60c4 -136 42 -194 119 -194z" />
    <glyph glyph-name="seven" unicode="7" horiz-adv-x="480" 
d="M466 710v-56l-256 -654h-130v13l232 586h-292v111h446z" />
    <glyph glyph-name="eight" unicode="8" horiz-adv-x="560" 
d="M159 189c0 -63 42 -100 115 -100c69 0 115 43 115 106c0 35 -16 64 -45 85c-29 23 -49 32 -84 47c-67 -35 -101 -81 -101 -138zM193 539c0 -43 33 -79 99 -108c44 24 82 68 82 113c0 54 -31 81 -92 81c-56 0 -89 -34 -89 -86zM37 179c0 85 46 151 138 197
c-65 28 -110 85 -110 161c0 109 86 183 219 183c63 0 113 -16 152 -47s58 -72 58 -123c0 -72 -47 -130 -111 -166c92 -45 138 -107 138 -188c0 -131 -98 -209 -250 -209c-148 0 -234 71 -234 192z" />
    <glyph glyph-name="nine" unicode="9" horiz-adv-x="562" 
d="M511 408c0 -273 -97 -421 -261 -421c-75 0 -138 19 -190 56l42 86c46 -27 91 -40 135 -40c89 0 139 78 151 234c-47 -43 -100 -65 -160 -65s-107 20 -142 61c-34 41 -51 94 -51 159c0 76 22 135 65 178s99 64 166 64c161 0 245 -115 245 -312zM266 615
c-64 0 -110 -44 -110 -129c0 -84 42 -124 106 -124c48 0 89 20 124 60c0 121 -43 193 -120 193z" />
    <glyph glyph-name="dollar" unicode="$" horiz-adv-x="540" 
d="M323 -88h-107v91c-80 12 -155 52 -200 99l62 79c61 -52 123 -78 185 -78c64 0 106 28 106 80c0 29 -9 51 -28 67c-19 17 -56 32 -113 46c-127 32 -187 91 -187 198c0 100 72 169 176 185v84h106v-85c69 -13 125 -42 168 -88l-58 -71c-48 43 -101 64 -159 64
c-64 0 -106 -25 -106 -76c0 -53 37 -80 149 -113c129 -39 184 -92 184 -199c0 -103 -70 -173 -178 -192v-91z" />
    <glyph glyph-name="Euro" unicode="&#x20ac;" horiz-adv-x="620" 
d="M67 386h-65l6 77h69c17 75 50 136 100 184c51 49 113 73 188 73c96 0 173 -36 231 -109l-64 -67c-41 45 -104 75 -164 75c-84 0 -141 -60 -165 -156h289l-6 -77h-294c-1 -9 -1 -20 -1 -33c0 -7 1 -19 2 -36h287l-7 -77h-267c21 -91 83 -143 164 -143c61 0 118 23 170 68
l58 -75c-73 -69 -156 -103 -247 -103c-72 0 -132 23 -181 70c-48 47 -79 108 -92 183h-88l7 77h71c-1 17 -2 29 -2 35c0 14 0 25 1 34z" />
    <glyph glyph-name="cent" unicode="&#xa2;" horiz-adv-x="549" 
d="M481 235l38 -82c-46 -37 -97 -61 -152 -70v-101h-109v99c-127 20 -206 118 -206 271c0 148 80 249 207 269v98h108v-100c99 -19 156 -90 160 -203h-111c-6 67 -40 101 -102 101c-77 0 -122 -54 -122 -161c0 -104 49 -172 134 -172c49 0 100 17 155 51z" />
    <glyph glyph-name="sterling" unicode="&#xa3;" horiz-adv-x="534" 
d="M280 228c0 -41 -18 -82 -53 -123h267v-105h-452v95l54 7c39 42 59 84 59 126c0 24 -7 53 -22 88h-90v86h58c-25 49 -38 93 -38 130c0 55 21 100 63 135s95 53 158 53c89 0 160 -30 213 -89l-54 -74c-46 39 -93 59 -141 59c-32 0 -58 -9 -77 -26c-37 -33 -40 -85 9 -188
h155v-86h-129c13 -34 20 -63 20 -88z" />
    <glyph glyph-name="yen" unicode="&#xa5;" horiz-adv-x="596" 
d="M441 710h134l-184 -329h147v-85h-181v-66h181v-85h-181v-145h-123v145h-180v85h180v66h-180v85h146l-179 329h139l138 -276z" />
    <glyph glyph-name="florin" unicode="&#x192;" horiz-adv-x="459" 
d="M-31 -200v95h39c37 0 54 14 66 69l76 358h-80v89h99l24 124c13 62 30 107 51 134c22 27 61 41 116 41h79v-98h-56c-44 0 -56 -21 -69 -88l-22 -113h91v-89h-108l-66 -310c-7 -35 -13 -61 -18 -79c-5 -19 -12 -38 -21 -58c-25 -58 -59 -69 -137 -75h-64z" />
    <glyph glyph-name="zero.tf" 
d="M180 352c0 -169 38 -253 122 -253c81 0 121 85 121 255c0 169 -36 255 -121 255c-81 0 -122 -86 -122 -257zM49 352c0 241 90 368 255 368c164 0 250 -125 250 -361c0 -248 -85 -372 -255 -372c-167 0 -250 122 -250 365z" />
    <glyph glyph-name="one.tf" 
d="M122 100h147v448c-49 -27 -102 -43 -157 -50l-17 88c72 19 154 67 203 124h101v-610h133v-100h-410v100z" />
    <glyph glyph-name="two.tf" 
d="M530 0h-450v80l245 296c47 57 65 93 65 138c0 56 -42 94 -101 94c-43 0 -99 -25 -168 -76l-57 81c77 71 160 107 247 107c59 0 108 -17 148 -50c41 -33 61 -80 61 -139c0 -38 -6 -72 -19 -101c-12 -29 -33 -61 -63 -98l-185 -226h277v-106z" />
    <glyph glyph-name="three.tf" 
d="M40 84l59 78c55 -45 112 -68 171 -68c73 0 122 38 122 107c0 73 -44 110 -131 111c-29 0 -50 -1 -63 -4v105c92 3 161 48 161 117c0 56 -38 83 -95 83c-47 0 -96 -15 -147 -46l-49 81c69 48 141 72 218 72c119 0 199 -65 199 -172c0 -80 -48 -144 -132 -169v-3
c107 -11 163 -76 163 -176c0 -66 -23 -118 -68 -156s-102 -57 -170 -57c-95 0 -174 32 -238 97z" />
    <glyph glyph-name="four.tf" 
d="M354 592l-184 -332h184v332zM479 0h-125v153h-306v102l264 455h167v-450h80v-107h-80v-153z" />
    <glyph glyph-name="five.tf" 
d="M197 260h-106l35 450h369l-7 -112h-261l-18 -189c33 29 77 44 130 44c121 0 193 -78 193 -221c0 -79 -23 -139 -70 -182c-46 -42 -105 -63 -177 -63c-86 0 -160 25 -221 76l43 84c63 -34 117 -51 164 -51c80 0 136 46 136 134c0 83 -35 124 -106 124
c-39 0 -72 -14 -99 -42z" />
    <glyph glyph-name="six.tf" 
d="M68 310c0 264 97 410 270 410c59 0 117 -17 175 -52l-39 -87c-42 24 -83 36 -123 36c-113 0 -157 -115 -162 -244c51 49 105 74 163 74c117 0 191 -83 191 -214c0 -164 -92 -246 -231 -246c-163 0 -244 108 -244 323zM311 89c65 0 109 44 109 133c0 81 -34 121 -103 121
c-48 0 -96 -29 -125 -60c4 -136 42 -194 119 -194z" />
    <glyph glyph-name="seven.tf" 
d="M525 710v-56l-250 -654h-138v13l233 586h-311v111h466z" />
    <glyph glyph-name="eight.tf" 
d="M180 189c0 -63 42 -100 115 -100c69 0 115 43 115 106c0 35 -16 64 -45 85c-29 23 -49 32 -84 47c-67 -35 -101 -81 -101 -138zM214 539c0 -43 33 -79 99 -108c44 24 82 68 82 113c0 54 -31 81 -92 81c-56 0 -89 -34 -89 -86zM58 179c0 85 46 151 138 197
c-65 28 -110 85 -110 161c0 109 86 183 219 183c63 0 113 -16 152 -47s58 -72 58 -123c0 -72 -47 -130 -111 -166c92 -45 138 -107 138 -188c0 -131 -98 -209 -250 -209c-148 0 -234 71 -234 192z" />
    <glyph glyph-name="nine.tf" 
d="M539 408c0 -273 -97 -421 -261 -421c-75 0 -138 19 -190 56l42 86c46 -27 91 -40 135 -40c89 0 139 78 151 234c-47 -43 -100 -65 -160 -65s-107 20 -142 61c-34 41 -51 94 -51 159c0 76 22 135 65 178s99 64 166 64c161 0 245 -115 245 -312zM294 615
c-64 0 -110 -44 -110 -129c0 -84 42 -124 106 -124c48 0 89 20 124 60c0 121 -43 193 -120 193z" />
    <glyph glyph-name="dollar.tf" 
d="M353 -88h-107v91c-80 12 -155 52 -200 99l62 79c61 -52 123 -78 185 -78c64 0 106 28 106 80c0 29 -9 51 -28 67c-19 17 -56 32 -113 46c-127 32 -187 91 -187 198c0 100 72 169 176 185v84h106v-85c69 -13 125 -42 168 -88l-58 -71c-48 43 -101 64 -159 64
c-64 0 -106 -25 -106 -76c0 -53 37 -80 149 -113c129 -39 184 -92 184 -199c0 -103 -70 -173 -178 -192v-91z" />
    <glyph glyph-name="Euro.tf" 
d="M65 386h-65l6 77h69c17 75 50 136 100 184c51 49 113 73 188 73c96 0 173 -36 231 -109l-64 -67c-41 45 -104 75 -164 75c-84 0 -141 -60 -165 -156h289l-6 -77h-294c-1 -9 -1 -20 -1 -33c0 -7 1 -19 2 -36h287l-7 -77h-267c21 -91 83 -143 164 -143c61 0 118 23 170 68
l58 -75c-73 -69 -156 -103 -247 -103c-72 0 -132 23 -181 70c-48 47 -79 108 -92 183h-88l7 77h71c-1 17 -2 29 -2 35c0 14 0 25 1 34z" />
    <glyph glyph-name="cent.tf" 
d="M497 235l38 -82c-46 -37 -97 -61 -152 -70v-101h-109v99c-127 20 -206 118 -206 271c0 148 80 249 207 269v98h108v-100c99 -19 156 -90 160 -203h-111c-6 67 -40 101 -102 101c-77 0 -122 -54 -122 -161c0 -104 49 -172 134 -172c49 0 100 17 155 51z" />
    <glyph glyph-name="sterling.tf" 
d="M325 228c0 -41 -18 -82 -53 -123h267v-105h-452v95l54 7c39 42 59 84 59 126c0 24 -7 53 -22 88h-90v86h58c-25 49 -38 93 -38 130c0 55 21 100 63 135s95 53 158 53c89 0 160 -30 213 -89l-54 -74c-46 39 -93 59 -141 59c-32 0 -58 -9 -77 -26c-37 -33 -40 -85 9 -188
h155v-86h-129c13 -34 20 -63 20 -88z" />
    <glyph glyph-name="yen.tf" 
d="M445 710h134l-184 -329h147v-85h-181v-66h181v-85h-181v-145h-123v145h-180v85h180v66h-180v85h146l-179 329h139l138 -276z" />
    <glyph glyph-name="florin.tf" 
d="M40 -200v95h39c37 0 54 14 66 69l76 358h-80v89h99l24 124c13 62 30 107 51 134c22 27 61 41 116 41h79v-98h-56c-44 0 -56 -21 -69 -88l-22 -113h91v-89h-108l-66 -310c-7 -35 -13 -61 -18 -79c-5 -19 -12 -38 -21 -58c-25 -58 -59 -69 -137 -75h-64z" />
    <glyph glyph-name="zero.osf" horiz-adv-x="630" 
d="M182 302c0 -136 44 -204 133 -204s133 69 133 208c0 136 -44 193 -133 193s-133 -66 -133 -197zM50 303c0 196 99 309 268 309c175 0 262 -102 262 -305c0 -205 -93 -320 -266 -320c-176 0 -264 111 -264 316z" />
    <glyph glyph-name="one.osf" horiz-adv-x="491" 
d="M72 100h147v339c-49 -27 -102 -43 -157 -50l-17 88c72 19 154 67 203 124h100v-501h131v-100h-407v100z" />
    <glyph glyph-name="two.osf" horiz-adv-x="544" 
d="M495 0h-450v77l219 218c31 30 52 54 64 71c12 18 18 38 18 61c0 45 -35 73 -87 73c-45 0 -101 -25 -168 -75l-61 79c76 72 158 108 247 108c59 0 108 -15 148 -45c40 -29 60 -72 60 -129c0 -35 -7 -66 -21 -91s-39 -56 -75 -91l-151 -150h257v-106z" />
    <glyph glyph-name="three.osf" horiz-adv-x="538" 
d="M14 27l58 78c57 -47 114 -70 172 -70c71 0 121 38 121 102c0 60 -39 89 -132 90c-27 0 -47 -1 -60 -4l-4 106c97 3 164 33 164 98c0 52 -32 78 -97 78c-50 0 -99 -15 -147 -46l-49 81c69 48 142 72 221 72c120 0 197 -57 197 -164c0 -73 -50 -126 -133 -154v-3
c107 -13 165 -72 165 -165c0 -63 -23 -112 -69 -146s-103 -51 -170 -51c-95 0 -174 33 -237 98z" />
    <glyph glyph-name="four.osf" horiz-adv-x="597" 
d="M366 488l-199 -290h199v290zM491 -62h-125v153h-321v102l279 408h167v-403h80v-107h-80v-153z" />
    <glyph glyph-name="five.osf" horiz-adv-x="546" 
d="M167 183h-107l31 418h369l-8 -112h-260l-13 -157c35 29 79 44 130 44c119 0 192 -76 192 -208c0 -76 -23 -135 -70 -176c-46 -42 -105 -63 -176 -63c-86 0 -160 25 -221 76l43 86c63 -34 117 -51 164 -51c80 0 136 44 136 129c0 68 -36 110 -100 110
c-43 0 -78 -14 -105 -42z" />
    <glyph glyph-name="six.osf" horiz-adv-x="572" 
d="M56 310c0 264 97 410 270 410c59 0 117 -17 175 -52l-39 -87c-42 24 -83 36 -123 36c-113 0 -157 -115 -162 -244c51 49 105 74 163 74c117 0 191 -83 191 -214c0 -164 -92 -246 -231 -246c-163 0 -244 108 -244 323zM299 89c65 0 109 44 109 133c0 81 -34 121 -103 121
c-48 0 -96 -29 -125 -60c4 -136 42 -194 119 -194z" />
    <glyph glyph-name="seven.osf" horiz-adv-x="489" 
d="M466 601v-56l-240 -605h-138v13l223 537h-291v111h446z" />
    <glyph glyph-name="eight.osf" horiz-adv-x="540" 
d="M150 189c0 -63 42 -100 115 -100c69 0 115 43 115 106c0 35 -16 64 -45 85c-29 23 -49 32 -84 47c-67 -35 -101 -81 -101 -138zM184 539c0 -43 33 -79 99 -108c44 24 82 68 82 113c0 54 -31 81 -92 81c-56 0 -89 -34 -89 -86zM28 179c0 85 46 151 138 197
c-65 28 -110 85 -110 161c0 109 86 183 219 183c63 0 113 -16 152 -47s58 -72 58 -123c0 -72 -47 -130 -111 -166c92 -45 138 -107 138 -188c0 -131 -98 -209 -250 -209c-148 0 -234 71 -234 192z" />
    <glyph glyph-name="nine.osf" horiz-adv-x="564" 
d="M518 300c0 -133 -22 -229 -67 -286c-44 -57 -109 -86 -194 -86c-75 0 -138 19 -190 56l38 85c45 -27 91 -40 138 -40c101 0 136 66 152 198c-49 -46 -103 -69 -160 -69c-121 0 -193 84 -193 212c0 76 22 135 65 178s99 64 166 64c161 0 245 -115 245 -312zM273 507
c-64 0 -110 -44 -110 -129c0 -77 35 -116 106 -116c48 0 89 20 124 60c-3 117 -43 185 -120 185z" />
    <glyph glyph-name="dollar.osf" horiz-adv-x="552" 
d="M329 -88h-107v91c-80 12 -155 52 -200 99l62 79c61 -52 123 -78 185 -78c64 0 106 28 106 80c0 29 -9 51 -28 67c-19 17 -56 32 -113 46c-127 32 -187 91 -187 198c0 100 72 169 176 185v84h106v-85c69 -13 125 -42 168 -88l-58 -71c-48 43 -101 64 -159 64
c-64 0 -106 -25 -106 -76c0 -53 37 -80 149 -113c129 -39 184 -92 184 -199c0 -103 -70 -173 -178 -192v-91z" />
    <glyph glyph-name="Euro.osf" horiz-adv-x="620" 
d="M67 386h-65l6 77h69c17 75 50 136 100 184c51 49 113 73 188 73c96 0 173 -36 231 -109l-64 -67c-41 45 -104 75 -164 75c-84 0 -141 -60 -165 -156h289l-6 -77h-294c-1 -9 -1 -20 -1 -33c0 -7 1 -19 2 -36h287l-7 -77h-267c21 -91 83 -143 164 -143c61 0 118 23 170 68
l58 -75c-73 -69 -156 -103 -247 -103c-72 0 -132 23 -181 70c-48 47 -79 108 -92 183h-88l7 77h71c-1 17 -2 29 -2 35c0 14 0 25 1 34z" />
    <glyph glyph-name="cent.osf" horiz-adv-x="566" 
d="M482 157l38 -82c-46 -37 -97 -61 -152 -70v-101h-109v99c-127 20 -206 118 -206 271c0 148 80 249 207 269v98h108v-100c99 -19 156 -90 160 -203h-111c-6 67 -40 101 -102 101c-77 0 -122 -54 -122 -161c0 -104 49 -172 134 -172c49 0 100 17 155 51z" />
    <glyph glyph-name="sterling.osf" horiz-adv-x="520" 
d="M278 228c0 -41 -18 -82 -53 -123h267v-105h-452v95l54 7c39 42 59 84 59 126c0 24 -7 53 -22 88h-90v86h58c-25 49 -38 93 -38 130c0 55 21 100 63 135s95 53 158 53c89 0 160 -30 213 -89l-54 -74c-46 39 -93 59 -141 59c-32 0 -58 -9 -77 -26c-37 -33 -40 -85 9 -188
h155v-86h-129c13 -34 20 -63 20 -88z" />
    <glyph glyph-name="yen.osf" horiz-adv-x="599" 
d="M442 710h134l-184 -329h147v-85h-181v-66h181v-85h-181v-145h-123v145h-180v85h180v66h-180v85h146l-179 329h139l138 -276z" />
    <glyph glyph-name="florin.osf" horiz-adv-x="474" 
d="M-14 -200v95h39c37 0 54 14 66 69l76 358h-80v89h99l24 124c13 62 30 107 51 134c22 27 61 41 116 41h79v-98h-56c-44 0 -56 -21 -69 -88l-22 -113h91v-89h-108l-66 -310c-7 -35 -13 -61 -18 -79c-5 -19 -12 -38 -21 -58c-25 -58 -59 -69 -137 -75h-64z" />
    <glyph glyph-name="zero.tosf" unicode="&#xf81e;" 
d="M180 305c0 -140 37 -205 121 -205s123 64 123 207c0 136 -40 193 -121 193c-82 0 -123 -65 -123 -195zM51 303c0 196 91 309 251 309c167 0 250 -102 250 -305c0 -207 -84 -320 -251 -320s-250 111 -250 316z" />
    <glyph glyph-name="one.tosf" unicode="&#xf81f;" 
d="M127 100h147v339c-49 -27 -102 -43 -157 -50l-17 88c72 19 154 67 203 124h100v-501h131v-100h-407v100z" />
    <glyph glyph-name="two.tosf" unicode="&#xf820;" 
d="M534 0h-450v77l219 218c31 30 52 54 64 71c12 18 18 38 18 61c0 45 -35 73 -87 73c-45 0 -101 -25 -168 -75l-61 79c76 72 158 108 247 108c59 0 108 -15 148 -45c40 -29 60 -72 60 -129c0 -35 -7 -66 -21 -91s-39 -56 -75 -91l-151 -150h257v-106z" />
    <glyph glyph-name="three.tosf" unicode="&#xf821;" 
d="M50 27l58 78c57 -47 114 -70 172 -70c71 0 121 38 121 102c0 60 -39 89 -132 90c-27 0 -47 -1 -60 -4l-4 106c97 3 164 33 164 98c0 52 -32 78 -97 78c-50 0 -99 -15 -147 -46l-49 81c69 48 142 72 221 72c120 0 197 -57 197 -164c0 -73 -50 -126 -133 -154v-3
c107 -13 165 -72 165 -165c0 -63 -23 -112 -69 -146s-103 -51 -170 -51c-95 0 -174 33 -237 98z" />
    <glyph glyph-name="four.tosf" unicode="&#xf822;" 
d="M356 488l-189 -291h189v291zM481 -62h-125v153h-311v101l269 409h167v-404h80v-106h-80v-153z" />
    <glyph glyph-name="five.tosf" unicode="&#xf823;" 
d="M203 183h-107l31 418h369l-8 -112h-260l-13 -157c35 29 79 44 130 44c119 0 192 -76 192 -208c0 -76 -23 -135 -70 -176c-46 -42 -105 -63 -176 -63c-86 0 -160 25 -221 76l43 86c63 -34 117 -51 164 -51c80 0 136 44 136 129c0 68 -36 110 -100 110
c-43 0 -78 -14 -105 -42z" />
    <glyph glyph-name="six.tosf" unicode="&#xf824;" 
d="M66 310c0 264 97 410 270 410c59 0 117 -17 175 -52l-39 -87c-42 24 -83 36 -123 36c-113 0 -157 -115 -162 -244c51 49 105 74 163 74c117 0 191 -83 191 -214c0 -164 -92 -246 -231 -246c-163 0 -244 108 -244 323zM309 89c65 0 109 44 109 133c0 81 -34 121 -103 121
c-48 0 -96 -29 -125 -60c4 -136 42 -194 119 -194z" />
    <glyph glyph-name="seven.tosf" unicode="&#xf825;" 
d="M525 601v-56l-240 -605h-138v13l223 537h-308v111h463z" />
    <glyph glyph-name="eight.tosf" unicode="&#xf826;" 
d="M187 189c0 -63 42 -100 115 -100c69 0 115 43 115 106c0 35 -16 64 -45 85c-29 23 -49 32 -84 47c-67 -35 -101 -81 -101 -138zM221 539c0 -43 33 -79 99 -108c44 24 82 68 82 113c0 54 -31 81 -92 81c-56 0 -89 -34 -89 -86zM65 179c0 85 46 151 138 197
c-65 28 -110 85 -110 161c0 109 86 183 219 183c63 0 113 -16 152 -47s58 -72 58 -123c0 -72 -47 -130 -111 -166c92 -45 138 -107 138 -188c0 -131 -98 -209 -250 -209c-148 0 -234 71 -234 192z" />
    <glyph glyph-name="nine.tosf" unicode="&#xf827;" 
d="M541 300c0 -133 -22 -229 -67 -286c-44 -57 -109 -86 -194 -86c-75 0 -138 19 -190 56l38 85c45 -27 91 -40 138 -40c101 0 136 66 152 198c-49 -46 -103 -69 -160 -69c-121 0 -193 84 -193 212c0 76 22 135 65 178s99 64 166 64c161 0 245 -115 245 -312zM296 507
c-64 0 -110 -44 -110 -129c0 -77 35 -116 106 -116c48 0 89 20 124 60c-3 117 -43 185 -120 185z" />
    <glyph glyph-name="dollar.tosf" 
d="M354 -88h-107v91c-80 12 -155 52 -200 99l62 79c61 -52 123 -78 185 -78c64 0 106 28 106 80c0 29 -9 51 -28 67c-19 17 -56 32 -113 46c-127 32 -187 91 -187 198c0 100 72 169 176 185v84h106v-85c69 -13 125 -42 168 -88l-58 -71c-48 43 -101 64 -159 64
c-64 0 -106 -25 -106 -76c0 -53 37 -80 149 -113c129 -39 184 -92 184 -199c0 -103 -70 -173 -178 -192v-91z" />
    <glyph glyph-name="Euro.tosf" 
d="M74 386h-65l6 77h69c17 75 50 136 100 184c51 49 113 73 188 73c96 0 173 -36 231 -109l-64 -67c-41 45 -104 75 -164 75c-84 0 -141 -60 -165 -156h289l-6 -77h-294c-1 -9 -1 -20 -1 -33c0 -7 1 -19 2 -36h287l-7 -77h-267c21 -91 83 -143 164 -143c61 0 118 23 170 68
l58 -75c-73 -69 -156 -103 -247 -103c-72 0 -132 23 -181 70c-48 47 -79 108 -92 183h-88l7 77h71c-1 17 -2 29 -2 35c0 14 0 25 1 34z" />
    <glyph glyph-name="cent.tosf" 
d="M498 156l38 -82c-46 -37 -97 -61 -152 -70v-101h-109v99c-127 20 -206 118 -206 271c0 148 80 249 207 269v98h108v-100c99 -19 156 -90 160 -203h-111c-6 67 -40 101 -102 101c-77 0 -122 -54 -122 -161c0 -104 49 -172 134 -172c49 0 100 17 155 51z" />
    <glyph glyph-name="sterling.tosf" 
d="M319 228c0 -41 -18 -82 -53 -123h267v-105h-452v95l54 7c39 42 59 84 59 126c0 24 -7 53 -22 88h-90v86h58c-25 49 -38 93 -38 130c0 55 21 100 63 135s95 53 158 53c89 0 160 -30 213 -89l-54 -74c-46 39 -93 59 -141 59c-32 0 -58 -9 -77 -26c-37 -33 -40 -85 9 -188
h155v-86h-129c13 -34 20 -63 20 -88z" />
    <glyph glyph-name="yen.tosf" 
d="M445 710h134l-184 -329h147v-85h-181v-66h181v-85h-181v-145h-123v145h-180v85h180v66h-180v85h146l-179 329h139l138 -276z" />
    <glyph glyph-name="florin.tosf" 
d="M38 -200v95h39c37 0 54 14 66 69l76 358h-80v89h99l24 124c13 62 30 107 51 134c22 27 61 41 116 41h79v-98h-56c-44 0 -56 -21 -69 -88l-22 -113h91v-89h-108l-66 -310c-7 -35 -13 -61 -18 -79c-5 -19 -12 -38 -21 -58c-25 -58 -59 -69 -137 -75h-64z" />
    <glyph glyph-name="section" unicode="&#xa7;" horiz-adv-x="528" 
d="M65 72l49 68c53 -39 105 -58 156 -58c47 0 70 16 70 47c0 84 -266 55 -266 212c0 60 39 105 104 124c-64 24 -96 63 -96 118c0 89 71 149 182 149c87 0 155 -23 204 -70l-49 -66c-47 32 -92 48 -137 48c-44 0 -79 -18 -79 -53s21 -50 92 -74c67 -23 112 -45 136 -66
c24 -20 36 -47 36 -82c0 -57 -33 -95 -99 -115c64 -29 96 -69 96 -121c0 -89 -77 -146 -185 -146c-80 0 -163 32 -214 85zM250 427c-41 -12 -61 -32 -61 -60c0 -31 34 -57 103 -76c39 17 59 39 59 64c0 31 -34 55 -101 72z" />
    <glyph glyph-name="copyright" unicode="&#xa9;" horiz-adv-x="814" 
d="M525 273l34 -47c-42 -41 -92 -62 -149 -62c-113 0 -172 76 -172 197c0 119 63 199 174 199c85 0 144 -46 145 -138h-69c-4 49 -25 75 -78 75c-63 0 -99 -52 -99 -136c0 -89 34 -133 102 -133c37 0 75 15 112 45zM407 663c-86 0 -157 -29 -214 -86
c-56 -57 -84 -129 -84 -217c0 -95 28 -170 84 -223c57 -53 128 -80 214 -80c81 0 151 29 211 88s90 130 90 215c0 90 -28 163 -84 219s-128 84 -217 84zM407 720c108 0 195 -33 261 -99c66 -65 99 -151 99 -257c0 -104 -35 -191 -106 -260s-155 -104 -254 -104
c-102 0 -188 32 -257 95s-103 152 -103 265c0 104 35 190 104 258s155 102 256 102z" />
    <glyph glyph-name="registered" unicode="&#xae;" horiz-adv-x="426" 
d="M147 459v178h69c44 0 67 -23 67 -58c0 -23 -10 -39 -30 -49l41 -71h-41l-34 62c-3 -1 -9 -1 -17 -1h-20v-61h-35zM209 607h-27v-57h25c25 0 38 9 38 27c0 20 -12 30 -36 30zM213 691c-41 0 -75 -14 -102 -41s-41 -61 -41 -103c0 -92 56 -145 143 -145c39 0 72 14 99 42
c28 28 42 62 42 102c0 88 -57 145 -141 145zM214 728c53 0 97 -17 131 -50s51 -77 51 -132c0 -51 -18 -95 -54 -130s-79 -52 -129 -52c-109 0 -183 67 -183 182c0 53 18 97 53 131s79 51 131 51z" />
    <glyph glyph-name="trademark" unicode="&#x2122;" horiz-adv-x="640" 
d="M570 720l30 -265h-56l-17 175l-62 -175h-44l-60 175l-18 -175h-57l29 265h67l63 -181l62 181h63zM175 455h-59v210h-85v55h229v-55h-85v-210z" />
    <glyph glyph-name="ordfeminine" unicode="&#xaa;" horiz-adv-x="487" 
d="M311 408v21c-19 3 -36 4 -53 4c-69 0 -103 -20 -103 -60c0 -31 25 -50 64 -50c51 0 92 40 92 85zM407 517v-253h-82l-8 60c-23 -41 -73 -70 -125 -70c-77 0 -131 41 -131 113s54 122 179 122c21 0 44 -2 71 -5v32c0 46 -27 69 -80 69c-43 0 -85 -12 -124 -36l-26 62
c49 32 102 48 157 48c113 0 169 -47 169 -142z" />
    <glyph glyph-name="ordmasculine" unicode="&#xba;" horiz-adv-x="501" 
d="M156 455c0 -83 32 -124 95 -124c57 0 95 40 95 124c0 85 -38 127 -95 127c-59 0 -95 -40 -95 -127zM55 457c0 64 18 114 55 149s84 53 141 53s103 -18 140 -53s55 -85 55 -149c0 -63 -19 -113 -56 -149c-37 -35 -83 -53 -139 -53c-120 0 -196 73 -196 202z" />
    <glyph glyph-name="guillemotleft" unicode="&#xab;" horiz-adv-x="487" 
d="M404 426l55 -52l-97 -114l97 -112l-55 -50l-159 142v41zM194 426l55 -52l-97 -114l97 -112l-55 -50l-159 142v41z" />
    <glyph glyph-name="guillemotright" unicode="&#xbb;" horiz-adv-x="489" 
d="M28 148l97 112l-97 114l55 52l159 -145v-41l-159 -142zM240 148l97 112l-97 114l55 52l159 -145v-41l-159 -142z" />
    <glyph glyph-name="guilsinglleft" unicode="&#x2039;" horiz-adv-x="277" 
d="M194 426l55 -52l-97 -114l97 -112l-55 -50l-159 142v41z" />
    <glyph glyph-name="guilsinglright" unicode="&#x203a;" horiz-adv-x="277" 
d="M28 148l97 112l-97 114l55 52l159 -145v-41l-159 -142z" />
    <glyph glyph-name="quoteleft" unicode="&#x2018;" horiz-adv-x="210" 
d="M178 574c0 -36 -29 -62 -69 -62c-51 0 -76 35 -76 84c0 77 41 128 122 154l19 -45c-43 -18 -65 -45 -66 -81c5 3 12 4 19 4c31 0 51 -23 51 -54z" />
    <glyph glyph-name="quoteright" unicode="&#x2019;" horiz-adv-x="210" 
d="M32 661c0 36 29 62 69 62c51 0 76 -35 76 -84c0 -77 -41 -128 -122 -154l-19 45c43 18 65 45 66 81c-5 -3 -12 -4 -19 -4c-31 0 -51 23 -51 54z" />
    <glyph glyph-name="quotesinglbase" unicode="&#x201a;" horiz-adv-x="210" 
d="M36 42c0 36 29 62 69 62c51 0 76 -35 76 -84c0 -77 -41 -128 -122 -154l-19 45c43 18 65 45 66 81c-5 -3 -12 -4 -19 -4c-31 0 -51 23 -51 54z" />
    <glyph glyph-name="quotedblleft" unicode="&#x201c;" horiz-adv-x="386" 
d="M178 574c0 -36 -29 -62 -69 -62c-51 0 -76 35 -76 84c0 77 41 128 122 154l19 -45c-43 -18 -65 -45 -66 -81c5 3 12 4 19 4c31 0 51 -23 51 -54zM354 574c0 -36 -29 -62 -69 -62c-51 0 -76 35 -76 84c0 77 41 128 122 154l19 -45c-43 -18 -65 -45 -66 -81c5 3 12 4 19 4
c31 0 51 -23 51 -54z" />
    <glyph glyph-name="quotedblright" unicode="&#x201d;" horiz-adv-x="386" 
d="M32 661c0 36 29 62 69 62c51 0 76 -35 76 -84c0 -77 -41 -128 -122 -154l-19 45c43 18 65 45 66 81c-5 -3 -12 -4 -19 -4c-31 0 -51 23 -51 54zM208 661c0 36 29 62 69 62c51 0 76 -35 76 -84c0 -77 -41 -128 -122 -154l-19 45c43 18 65 45 66 81c-5 -3 -12 -4 -19 -4
c-31 0 -51 23 -51 54z" />
    <glyph glyph-name="quotedblbase" unicode="&#x201e;" horiz-adv-x="385" 
d="M36 42c0 36 29 62 69 62c51 0 76 -35 76 -84c0 -77 -41 -128 -122 -154l-19 45c43 18 65 45 66 81c-5 -3 -12 -4 -19 -4c-31 0 -51 23 -51 54zM211 42c0 36 29 62 69 62c51 0 76 -35 76 -84c0 -77 -41 -128 -122 -154l-19 45c43 18 65 45 66 81c-5 -3 -12 -4 -19 -4
c-31 0 -51 23 -51 54z" />
    <glyph glyph-name="dagger" unicode="&#x2020;" horiz-adv-x="506" 
d="M312 413v-518h-119v518h-153v106h153v201h119v-201h154v-106h-154z" />
    <glyph glyph-name="daggerdbl" unicode="&#x2021;" horiz-adv-x="506" 
d="M313 92v-197h-120v197h-153v107h153v214h-153v106h153v201h120v-201h152v-106h-152v-214h152v-107h-152z" />
    <glyph glyph-name="bullet" unicode="&#x2022;" horiz-adv-x="504" 
d="M122 312c0 37 13 69 38 94c26 25 57 38 94 38c35 0 66 -13 92 -39c27 -25 40 -56 40 -93s-13 -68 -39 -94s-57 -39 -94 -39s-69 13 -94 39s-37 57 -37 94z" />
    <glyph glyph-name="ellipsis" unicode="&#x2026;" horiz-adv-x="874" 
d="M79 57c0 45 28 74 76 74c47 0 77 -28 77 -71c0 -44 -30 -73 -77 -73c-48 0 -76 29 -76 70zM642 57c0 45 28 74 76 74c47 0 77 -28 77 -71c0 -44 -30 -73 -77 -73c-48 0 -76 29 -76 70zM359 57c0 45 28 74 76 74c47 0 77 -28 77 -71c0 -44 -30 -73 -77 -73
c-48 0 -76 29 -76 70z" />
    <glyph glyph-name="paragraph" unicode="&#xb6;" horiz-adv-x="559" 
d="M254 720h230v-720h-89v650h-79v-650h-89v351c-116 11 -186 77 -186 182c0 55 19 100 58 135s91 52 155 52z" />
    <glyph glyph-name="periodcentered" unicode="&#xb7;" horiz-adv-x="303" 
d="M80 334c0 45 28 74 76 74c47 0 77 -28 77 -71c0 -44 -30 -73 -77 -73c-48 0 -76 29 -76 70z" />
    <glyph glyph-name="uni00AD" unicode="&#xad;" horiz-adv-x="332" 
d="M300 225h-268v105h268v-105z" />
    <glyph glyph-name="endash" unicode="&#x2013;" horiz-adv-x="504" 
d="M502 226h-500v85h500v-85z" />
    <glyph glyph-name="emdash" unicode="&#x2014;" horiz-adv-x="1004" 
d="M1002 225h-1000v86h1000v-86z" />
    <glyph glyph-name="hyphen.case" horiz-adv-x="332" 
d="M300 291h-268v105h268v-105z" />
    <glyph glyph-name="Agrave" unicode="&#xc0;" horiz-adv-x="694" 
d="M18 0l259 720h139l259 -720h-148l-53 163h-254l-53 -163h-149zM346 562l-89 -283h179zM231 837l54 97l178 -107l-45 -77z" />
    <glyph glyph-name="Aacute" unicode="&#xc1;" horiz-adv-x="694" 
d="M18 0l259 720h139l259 -720h-148l-53 163h-254l-53 -163h-149zM346 562l-89 -283h179zM268 750l-45 77l178 107l54 -97z" />
    <glyph glyph-name="Acircumflex" unicode="&#xc2;" horiz-adv-x="694" 
d="M18 0l259 720h139l259 -720h-148l-53 163h-254l-53 -163h-149zM346 562l-89 -283h179zM199 811l105 112h79l109 -113l-58 -49l-88 66l-87 -66z" />
    <glyph glyph-name="Atilde" unicode="&#xc3;" horiz-adv-x="694" 
d="M18 0l259 720h139l259 -720h-148l-53 163h-254l-53 -163h-149zM346 562l-89 -283h179zM444 900l62 -23c-14 -67 -45 -100 -94 -100c-17 0 -40 5 -70 16s-49 17 -56 17c-17 0 -28 -9 -41 -37l-63 24c21 67 52 100 93 100c17 0 40 -6 69 -17s49 -17 60 -17c19 0 27 6 40 37
z" />
    <glyph glyph-name="Adieresis" unicode="&#xc4;" horiz-adv-x="694" 
d="M18 0l259 720h139l259 -720h-148l-53 163h-254l-53 -163h-149zM346 562l-89 -283h179zM173 833c0 36 26 62 69 62c45 0 70 -26 70 -62s-29 -61 -70 -61c-44 0 -69 24 -69 61zM377 833c0 36 26 62 69 62c45 0 70 -26 70 -62s-29 -61 -70 -61c-44 0 -69 24 -69 61z" />
    <glyph glyph-name="Aring" unicode="&#xc5;" horiz-adv-x="694" 
d="M237 797c0 63 47 105 111 105c61 0 108 -40 108 -101c0 -35 -13 -62 -40 -82l259 -719h-148l-53 163h-254l-53 -163h-149l258 717c-26 18 -39 45 -39 80zM346 562l-89 -283h179zM302 799c0 -28 15 -42 46 -42c29 0 43 15 43 44s-14 43 -43 43c-31 0 -46 -15 -46 -45z" />
    <glyph glyph-name="AE" unicode="&#xc6;" horiz-adv-x="1017" 
d="M967 0h-485v183h-215l-93 -183h-156l366 720h577v-122h-341v-173h310v-122h-310v-182h347v-121zM465 603l-155 -307h172v307h-17z" />
    <glyph glyph-name="Ccedilla" unicode="&#xc7;" horiz-adv-x="684" 
d="M281 -210l15 57c19 -7 38 -10 57 -10c27 0 41 10 41 30c0 21 -20 31 -59 31h-18l20 90c-93 7 -164 45 -213 112c-48 67 -72 154 -72 260c0 110 28 199 84 268c57 69 137 104 240 104c78 0 142 -22 192 -65c51 -43 78 -106 82 -188h-139c-5 73 -45 128 -134 128
c-111 0 -177 -90 -177 -246c0 -163 68 -249 184 -249c71 0 138 28 201 83l63 -93c-73 -69 -156 -107 -247 -114l-9 -45c24 -3 38 -6 57 -17c20 -11 30 -31 30 -60c0 -60 -44 -92 -111 -92c-35 0 -64 5 -87 16z" />
    <glyph glyph-name="Egrave" unicode="&#xc8;" horiz-adv-x="610" 
d="M560 0h-485v720h479v-122h-341v-173h310v-122h-310v-182h347v-121zM182 838l54 97l178 -107l-45 -77z" />
    <glyph glyph-name="Eacute" unicode="&#xc9;" horiz-adv-x="610" 
d="M560 0h-485v720h479v-122h-341v-173h310v-122h-310v-182h347v-121zM244 751l-45 77l178 107l54 -97z" />
    <glyph glyph-name="Ecircumflex" unicode="&#xca;" horiz-adv-x="610" 
d="M560 0h-485v720h479v-122h-341v-173h310v-122h-310v-182h347v-121zM171 812l105 112h79l109 -113l-58 -49l-88 66l-87 -66z" />
    <glyph glyph-name="Edieresis" unicode="&#xcb;" horiz-adv-x="610" 
d="M560 0h-485v720h479v-122h-341v-173h310v-122h-310v-182h347v-121zM144 834c0 36 26 62 69 62c45 0 70 -26 70 -62s-29 -61 -70 -61c-44 0 -69 24 -69 61zM348 834c0 36 26 62 69 62c45 0 70 -26 70 -62s-29 -61 -70 -61c-44 0 -69 24 -69 61z" />
    <glyph glyph-name="Igrave" unicode="&#xcc;" horiz-adv-x="292" 
d="M215 0h-138v720h138v-720zM25 837l54 97l178 -107l-45 -77z" />
    <glyph glyph-name="Iacute" unicode="&#xcd;" horiz-adv-x="292" 
d="M215 0h-138v720h138v-720zM62 750l-45 77l178 107l54 -97z" />
    <glyph glyph-name="Icircumflex" unicode="&#xce;" horiz-adv-x="292" 
d="M215 0h-138v720h138v-720zM-5 811l105 112h79l109 -113l-58 -49l-88 66l-87 -66z" />
    <glyph glyph-name="Idieresis" unicode="&#xcf;" horiz-adv-x="292" 
d="M215 0h-138v720h138v-720zM-30 833c0 36 26 62 69 62c45 0 70 -26 70 -62s-29 -61 -70 -61c-44 0 -69 24 -69 61zM174 833c0 36 26 62 69 62c45 0 70 -26 70 -62s-29 -61 -70 -61c-44 0 -69 24 -69 61z" />
    <glyph glyph-name="Eth" unicode="&#xd0;" horiz-adv-x="735" 
d="M81 306h-74v111h74v303h235c236 0 361 -130 361 -362c0 -247 -124 -358 -381 -358h-215v306zM321 594h-101v-177h162v-111h-162v-180h101c145 0 210 73 210 232c0 157 -66 236 -210 236z" />
    <glyph glyph-name="Ntilde" unicode="&#xd1;" horiz-adv-x="729" 
d="M211 0h-136v720h122l320 -487v487h137v-720h-121l-322 481v-481zM470 900l62 -23c-14 -67 -45 -100 -94 -100c-17 0 -40 5 -70 16s-49 17 -56 17c-17 0 -28 -9 -41 -37l-63 24c21 67 52 100 93 100c17 0 40 -6 69 -17s49 -17 60 -17c19 0 27 6 40 37z" />
    <glyph glyph-name="Ograve" unicode="&#xd2;" horiz-adv-x="790" 
d="M197 364c0 -160 73 -251 198 -251c127 0 198 90 198 251c0 149 -74 242 -197 242c-125 0 -199 -94 -199 -242zM52 364c0 115 31 205 93 270c63 65 146 98 250 98c105 0 188 -33 250 -98s93 -155 93 -270c0 -121 -31 -214 -93 -279c-61 -65 -145 -98 -250 -98
s-189 33 -251 98c-61 66 -92 159 -92 279zM276 837l54 97l178 -107l-45 -77z" />
    <glyph glyph-name="Oacute" unicode="&#xd3;" horiz-adv-x="790" 
d="M197 364c0 -160 73 -251 198 -251c127 0 198 90 198 251c0 149 -74 242 -197 242c-125 0 -199 -94 -199 -242zM52 364c0 115 31 205 93 270c63 65 146 98 250 98c105 0 188 -33 250 -98s93 -155 93 -270c0 -121 -31 -214 -93 -279c-61 -65 -145 -98 -250 -98
s-189 33 -251 98c-61 66 -92 159 -92 279zM313 750l-45 77l178 107l54 -97z" />
    <glyph glyph-name="Ocircumflex" unicode="&#xd4;" horiz-adv-x="790" 
d="M197 364c0 -160 73 -251 198 -251c127 0 198 90 198 251c0 149 -74 242 -197 242c-125 0 -199 -94 -199 -242zM52 364c0 115 31 205 93 270c63 65 146 98 250 98c105 0 188 -33 250 -98s93 -155 93 -270c0 -121 -31 -214 -93 -279c-61 -65 -145 -98 -250 -98
s-189 33 -251 98c-61 66 -92 159 -92 279zM247 811l105 112h79l109 -113l-58 -49l-88 66l-87 -66z" />
    <glyph glyph-name="Otilde" unicode="&#xd5;" horiz-adv-x="790" 
d="M197 364c0 -160 73 -251 198 -251c127 0 198 90 198 251c0 149 -74 242 -197 242c-125 0 -199 -94 -199 -242zM52 364c0 115 31 205 93 270c63 65 146 98 250 98c105 0 188 -33 250 -98s93 -155 93 -270c0 -121 -31 -214 -93 -279c-61 -65 -145 -98 -250 -98
s-189 33 -251 98c-61 66 -92 159 -92 279zM499 900l62 -23c-14 -67 -45 -100 -94 -100c-17 0 -40 5 -70 16s-49 17 -56 17c-17 0 -28 -9 -41 -37l-63 24c21 67 52 100 93 100c17 0 40 -6 69 -17s49 -17 60 -17c19 0 27 6 40 37z" />
    <glyph glyph-name="Odieresis" unicode="&#xd6;" horiz-adv-x="790" 
d="M197 364c0 -160 73 -251 198 -251c127 0 198 90 198 251c0 149 -74 242 -197 242c-125 0 -199 -94 -199 -242zM52 364c0 115 31 205 93 270c63 65 146 98 250 98c105 0 188 -33 250 -98s93 -155 93 -270c0 -121 -31 -214 -93 -279c-61 -65 -145 -98 -250 -98
s-189 33 -251 98c-61 66 -92 159 -92 279zM221 833c0 36 26 62 69 62c45 0 70 -26 70 -62s-29 -61 -70 -61c-44 0 -69 24 -69 61zM425 833c0 36 26 62 69 62c45 0 70 -26 70 -62s-29 -61 -70 -61c-44 0 -69 24 -69 61z" />
    <glyph glyph-name="Oslash" unicode="&#xd8;" horiz-adv-x="778" 
d="M52 364c0 115 31 205 93 270c63 65 146 98 250 98c15 0 31 -1 46 -3l18 58h118l-26 -86c119 -53 187 -173 187 -337c0 -121 -31 -214 -93 -279c-61 -65 -145 -98 -250 -98c-14 0 -34 1 -61 4l-21 -71h-117l31 103c-111 56 -175 174 -175 341zM593 364
c0 95 -27 164 -82 206l-139 -456c5 -1 12 -1 23 -1c127 0 198 90 198 251zM197 364c0 -95 24 -164 71 -206l136 448h-8c-125 0 -199 -94 -199 -242z" />
    <glyph glyph-name="Ugrave" unicode="&#xd9;" horiz-adv-x="715" 
d="M72 272v448h138v-442c0 -112 55 -168 148 -168c101 0 147 55 147 168v442h138v-448c0 -187 -101 -284 -286 -284c-183 0 -285 92 -285 284zM237 837l54 97l178 -107l-45 -77z" />
    <glyph glyph-name="Uacute" unicode="&#xda;" horiz-adv-x="715" 
d="M72 272v448h138v-442c0 -112 55 -168 148 -168c101 0 147 55 147 168v442h138v-448c0 -187 -101 -284 -286 -284c-183 0 -285 92 -285 284zM300 750l-45 77l178 107l54 -97z" />
    <glyph glyph-name="Ucircumflex" unicode="&#xdb;" horiz-adv-x="715" 
d="M72 272v448h138v-442c0 -112 55 -168 148 -168c101 0 147 55 147 168v442h138v-448c0 -187 -101 -284 -286 -284c-183 0 -285 92 -285 284zM219 811l105 112h79l109 -113l-58 -49l-88 66l-87 -66z" />
    <glyph glyph-name="Udieresis" unicode="&#xdc;" horiz-adv-x="715" 
d="M72 272v448h138v-442c0 -112 55 -168 148 -168c101 0 147 55 147 168v442h138v-448c0 -187 -101 -284 -286 -284c-183 0 -285 92 -285 284zM195 833c0 36 26 62 69 62c45 0 70 -26 70 -62s-29 -61 -70 -61c-44 0 -69 24 -69 61zM399 833c0 36 26 62 69 62
c45 0 70 -26 70 -62s-29 -61 -70 -61c-44 0 -69 24 -69 61z" />
    <glyph glyph-name="Yacute" unicode="&#xdd;" horiz-adv-x="643" 
d="M387 0h-139v287l-236 433h151l156 -296l157 296h155l-244 -433v-287zM272 750l-45 77l178 107l54 -97z" />
    <glyph glyph-name="Thorn" unicode="&#xde;" horiz-adv-x="622" 
d="M201 0h-139v720h139v-104h122c157 0 253 -72 253 -227c0 -161 -99 -242 -263 -242h-112v-147zM312 496h-111v-236h105c90 0 135 40 135 119c0 78 -43 117 -129 117z" />
    <glyph glyph-name="germandbls" unicode="&#xdf;" horiz-adv-x="626" 
d="M227 0h-132v430h-69v78l69 13v19c0 68 22 117 66 147c44 31 99 46 165 46c136 0 212 -62 212 -185c0 -87 -50 -151 -130 -170c117 -21 176 -85 176 -192c0 -124 -82 -198 -198 -198c-52 0 -95 13 -129 40l27 88c21 -13 47 -20 78 -20c53 0 91 35 91 102
c0 79 -56 116 -161 125v100c79 7 119 45 119 114c0 66 -31 99 -93 99c-63 0 -91 -35 -91 -111v-525z" />
    <glyph glyph-name="agrave" unicode="&#xe0;" horiz-adv-x="558" 
d="M360 203v14c-17 3 -38 5 -63 5c-81 0 -121 -26 -121 -78c0 -39 24 -59 72 -59c33 0 59 12 80 37s32 52 32 81zM493 346v-346h-106l-14 71c-38 -56 -93 -84 -166 -84c-99 0 -163 55 -163 155c0 47 19 87 57 119c39 32 100 48 184 48c28 0 53 -1 75 -4v39
c0 60 -30 90 -90 90c-59 0 -97 -15 -156 -50l-45 80c64 51 136 76 215 76c139 0 209 -65 209 -194zM148 705l69 83l156 -143l-59 -66z" />
    <glyph glyph-name="aacute" unicode="&#xe1;" horiz-adv-x="558" 
d="M360 203v14c-17 3 -38 5 -63 5c-81 0 -121 -26 -121 -78c0 -39 24 -59 72 -59c33 0 59 12 80 37s32 52 32 81zM493 346v-346h-106l-14 71c-38 -56 -93 -84 -166 -84c-99 0 -163 55 -163 155c0 47 19 87 57 119c39 32 100 48 184 48c28 0 53 -1 75 -4v39
c0 60 -30 90 -90 90c-59 0 -97 -15 -156 -50l-45 80c64 51 136 76 215 76c139 0 209 -65 209 -194zM229 579l-59 66l156 143l69 -83z" />
    <glyph glyph-name="acircumflex" unicode="&#xe2;" horiz-adv-x="558" 
d="M360 203v14c-17 3 -38 5 -63 5c-81 0 -121 -26 -121 -78c0 -39 24 -59 72 -59c33 0 59 12 80 37s32 52 32 81zM493 346v-346h-106l-14 71c-38 -56 -93 -84 -166 -84c-99 0 -163 55 -163 155c0 47 19 87 57 119c39 32 100 48 184 48c28 0 53 -1 75 -4v39
c0 60 -30 90 -90 90c-59 0 -97 -15 -156 -50l-45 80c64 51 136 76 215 76c139 0 209 -65 209 -194zM123 616l111 145h79l111 -144l-58 -41l-91 89l-91 -89z" />
    <glyph glyph-name="atilde" unicode="&#xe3;" horiz-adv-x="558" 
d="M360 203v14c-17 3 -38 5 -63 5c-81 0 -121 -26 -121 -78c0 -39 24 -59 72 -59c33 0 59 12 80 37s32 52 32 81zM493 346v-346h-106l-14 71c-38 -56 -93 -84 -166 -84c-99 0 -163 55 -163 155c0 47 19 87 57 119c39 32 100 48 184 48c28 0 53 -1 75 -4v39
c0 60 -30 90 -90 90c-59 0 -97 -15 -156 -50l-45 80c64 51 136 76 215 76c139 0 209 -65 209 -194zM371 717l62 -23c-14 -67 -45 -100 -94 -100c-17 0 -40 5 -70 16s-49 17 -56 17c-17 0 -28 -9 -41 -37l-63 24c21 67 52 100 93 100c17 0 40 -6 69 -17s49 -17 60 -17
c19 0 27 6 40 37z" />
    <glyph glyph-name="adieresis" unicode="&#xe4;" horiz-adv-x="558" 
d="M360 203v14c-17 3 -38 5 -63 5c-81 0 -121 -26 -121 -78c0 -39 24 -59 72 -59c33 0 59 12 80 37s32 52 32 81zM493 346v-346h-106l-14 71c-38 -56 -93 -84 -166 -84c-99 0 -163 55 -163 155c0 47 19 87 57 119c39 32 100 48 184 48c28 0 53 -1 75 -4v39
c0 60 -30 90 -90 90c-59 0 -97 -15 -156 -50l-45 80c64 51 136 76 215 76c139 0 209 -65 209 -194zM103 656c0 36 26 62 69 62c45 0 70 -26 70 -62s-29 -61 -70 -61c-44 0 -69 24 -69 61zM307 656c0 36 26 62 69 62c45 0 70 -26 70 -62s-29 -61 -70 -61c-44 0 -69 24 -69 61
z" />
    <glyph glyph-name="aring" unicode="&#xe5;" horiz-adv-x="558" 
d="M360 203v14c-17 3 -38 5 -63 5c-81 0 -121 -26 -121 -78c0 -39 24 -59 72 -59c33 0 59 12 80 37s32 52 32 81zM493 346v-346h-106l-14 71c-38 -56 -93 -84 -166 -84c-99 0 -163 55 -163 155c0 47 19 87 57 119c39 32 100 48 184 48c28 0 53 -1 75 -4v39
c0 60 -30 90 -90 90c-59 0 -97 -15 -156 -50l-45 80c64 51 136 76 215 76c139 0 209 -65 209 -194zM228 668c0 -26 14 -39 42 -39c27 0 40 14 40 41c0 26 -13 39 -40 39c-28 0 -42 -14 -42 -41zM168 666c0 59 43 97 102 97c57 0 100 -37 100 -93c0 -57 -43 -95 -100 -95
c-61 0 -102 34 -102 91z" />
    <glyph glyph-name="ae" unicode="&#xe6;" horiz-adv-x="887" 
d="M786 142l43 -87c-61 -45 -133 -68 -214 -68c-85 0 -150 26 -194 77c-48 -51 -111 -77 -189 -77c-117 0 -188 54 -188 158c0 96 69 166 226 166c30 0 60 -2 90 -7v40c0 63 -32 94 -96 94c-55 0 -108 -16 -159 -47l-36 83c57 40 139 66 211 66c79 0 127 -20 162 -79
c40 53 101 79 184 79c139 0 217 -86 217 -254c0 -31 -1 -52 -2 -64h-341c7 -83 50 -125 131 -125c46 0 98 15 155 45zM501 309h215c0 87 -33 131 -99 131c-39 0 -69 -14 -88 -43c-19 -28 -28 -57 -28 -88zM252 86c52 0 100 26 125 57c-9 21 -14 45 -15 74c-16 4 -35 6 -56 6
c-86 0 -129 -24 -129 -73c0 -43 25 -64 75 -64z" />
    <glyph glyph-name="ccedilla" unicode="&#xe7;" horiz-adv-x="558" 
d="M203 -205l15 57c19 -7 38 -10 57 -10c27 0 41 10 41 30c0 21 -20 31 -59 31h-18l19 87c-129 16 -210 117 -210 273c0 84 24 151 71 201c48 51 111 76 189 76c135 0 211 -74 215 -211h-111c-7 68 -45 103 -102 103c-76 0 -122 -57 -122 -164c0 -104 45 -170 130 -170
c43 0 93 16 150 48l49 -84c-53 -45 -118 -69 -195 -74l-8 -40c24 -3 38 -6 57 -17c20 -11 30 -31 30 -60c0 -60 -44 -92 -111 -92c-35 0 -64 5 -87 16z" />
    <glyph glyph-name="egrave" unicode="&#xe8;" horiz-adv-x="575" 
d="M474 142l43 -87c-61 -45 -133 -68 -214 -68c-160 0 -255 97 -255 273c0 85 23 153 69 204c47 51 109 76 187 76c148 0 227 -87 227 -256c0 -31 -1 -53 -2 -65h-341c7 -81 50 -122 131 -122c46 0 98 15 155 45zM189 315h215c0 83 -33 125 -99 125c-39 0 -67 -14 -86 -41
s-29 -55 -30 -84zM166 705l69 83l156 -143l-59 -66z" />
    <glyph glyph-name="eacute" unicode="&#xe9;" horiz-adv-x="575" 
d="M474 142l43 -87c-61 -45 -133 -68 -214 -68c-160 0 -255 97 -255 273c0 85 23 153 69 204c47 51 109 76 187 76c148 0 227 -87 227 -256c0 -31 -1 -53 -2 -65h-341c7 -81 50 -122 131 -122c46 0 98 15 155 45zM189 315h215c0 83 -33 125 -99 125c-39 0 -67 -14 -86 -41
s-29 -55 -30 -84zM237 579l-59 66l156 143l69 -83z" />
    <glyph glyph-name="ecircumflex" unicode="&#xea;" horiz-adv-x="575" 
d="M474 142l43 -87c-61 -45 -133 -68 -214 -68c-160 0 -255 97 -255 273c0 85 23 153 69 204c47 51 109 76 187 76c148 0 227 -87 227 -256c0 -31 -1 -53 -2 -65h-341c7 -81 50 -122 131 -122c46 0 98 15 155 45zM189 315h215c0 83 -33 125 -99 125c-39 0 -67 -14 -86 -41
s-29 -55 -30 -84zM143 616l111 145h79l111 -144l-58 -41l-91 89l-91 -89z" />
    <glyph glyph-name="edieresis" unicode="&#xeb;" horiz-adv-x="575" 
d="M474 142l43 -87c-61 -45 -133 -68 -214 -68c-160 0 -255 97 -255 273c0 85 23 153 69 204c47 51 109 76 187 76c148 0 227 -87 227 -256c0 -31 -1 -53 -2 -65h-341c7 -81 50 -122 131 -122c46 0 98 15 155 45zM189 315h215c0 83 -33 125 -99 125c-39 0 -67 -14 -86 -41
s-29 -55 -30 -84zM118 656c0 36 26 62 69 62c45 0 70 -26 70 -62s-29 -61 -70 -61c-44 0 -69 24 -69 61zM322 656c0 36 26 62 69 62c45 0 70 -26 70 -62s-29 -61 -70 -61c-44 0 -69 24 -69 61z" />
    <glyph glyph-name="igrave" unicode="&#xec;" horiz-adv-x="262" 
d="M17 705l69 83l156 -143l-59 -66zM75 528h132v-528h-132v528z" />
    <glyph glyph-name="iacute" unicode="&#xed;" horiz-adv-x="262" 
d="M73 579l-59 66l156 143l69 -83zM75 528h132v-528h-132v528z" />
    <glyph glyph-name="icircumflex" unicode="&#xee;" horiz-adv-x="282" 
d="M75 528h132v-528h-132v528zM-20 616l111 145h79l111 -144l-58 -41l-91 89l-91 -89z" />
    <glyph glyph-name="idieresis" unicode="&#xef;" horiz-adv-x="262" 
d="M-37 656c0 36 26 62 69 62c45 0 70 -26 70 -62s-29 -61 -70 -61c-44 0 -69 24 -69 61zM167 656c0 36 26 62 69 62c45 0 70 -26 70 -62s-29 -61 -70 -61c-44 0 -69 24 -69 61zM75 528h132v-528h-132v528z" />
    <glyph glyph-name="eth" unicode="&#xf0;" horiz-adv-x="570" 
d="M336 535l-75 -53l-56 75l54 38c-34 18 -75 32 -122 42l30 86c71 -9 133 -29 186 -61l84 59l56 -74l-66 -47c64 -73 96 -173 96 -300c0 -196 -86 -313 -249 -313c-67 0 -122 20 -164 59c-42 40 -63 96 -63 169c0 68 18 123 53 165c36 43 84 64 145 64
c59 0 111 -23 156 -70c-7 66 -28 120 -65 161zM280 90c81 0 120 63 119 190c-35 40 -75 60 -121 60c-63 0 -106 -46 -106 -127c0 -83 43 -123 108 -123z" />
    <glyph glyph-name="ntilde" unicode="&#xf1;" horiz-adv-x="594" 
d="M69 0v528h111l11 -70c47 55 104 82 171 82c109 0 167 -69 167 -186v-354h-133v314c0 79 -27 113 -83 113c-41 0 -78 -20 -111 -59v-368h-133zM403 717l62 -23c-14 -67 -45 -100 -94 -100c-17 0 -40 5 -70 16s-49 17 -56 17c-17 0 -28 -9 -41 -37l-63 24
c21 67 52 100 93 100c17 0 40 -6 69 -17s49 -17 60 -17c19 0 27 6 40 37z" />
    <glyph glyph-name="ograve" unicode="&#xf2;" horiz-adv-x="621" 
d="M188 264c0 -113 47 -165 122 -165c76 0 123 52 123 165c0 112 -48 166 -123 166s-122 -57 -122 -166zM48 261c0 89 24 157 73 206s113 73 191 73c77 0 140 -24 188 -72c49 -48 73 -116 73 -204c0 -87 -25 -155 -75 -204c-49 -49 -114 -73 -193 -73
c-160 0 -257 99 -257 274zM189 705l69 83l156 -143l-59 -66z" />
    <glyph glyph-name="oacute" unicode="&#xf3;" horiz-adv-x="621" 
d="M188 264c0 -113 47 -165 122 -165c76 0 123 52 123 165c0 112 -48 166 -123 166s-122 -57 -122 -166zM48 261c0 89 24 157 73 206s113 73 191 73c77 0 140 -24 188 -72c49 -48 73 -116 73 -204c0 -87 -25 -155 -75 -204c-49 -49 -114 -73 -193 -73
c-160 0 -257 99 -257 274zM249 579l-59 66l156 143l69 -83z" />
    <glyph glyph-name="ocircumflex" unicode="&#xf4;" horiz-adv-x="621" 
d="M188 264c0 -113 47 -165 122 -165c76 0 123 52 123 165c0 112 -48 166 -123 166s-122 -57 -122 -166zM48 261c0 89 24 157 73 206s113 73 191 73c77 0 140 -24 188 -72c49 -48 73 -116 73 -204c0 -87 -25 -155 -75 -204c-49 -49 -114 -73 -193 -73
c-160 0 -257 99 -257 274zM161 616l111 145h79l111 -144l-58 -41l-91 89l-91 -89z" />
    <glyph glyph-name="otilde" unicode="&#xf5;" horiz-adv-x="621" 
d="M188 264c0 -113 47 -165 122 -165c76 0 123 52 123 165c0 112 -48 166 -123 166s-122 -57 -122 -166zM48 261c0 89 24 157 73 206s113 73 191 73c77 0 140 -24 188 -72c49 -48 73 -116 73 -204c0 -87 -25 -155 -75 -204c-49 -49 -114 -73 -193 -73
c-160 0 -257 99 -257 274zM410 717l62 -23c-14 -67 -45 -100 -94 -100c-17 0 -40 5 -70 16s-49 17 -56 17c-17 0 -28 -9 -41 -37l-63 24c21 67 52 100 93 100c17 0 40 -6 69 -17s49 -17 60 -17c19 0 27 6 40 37z" />
    <glyph glyph-name="odieresis" unicode="&#xf6;" horiz-adv-x="621" 
d="M188 264c0 -113 47 -165 122 -165c76 0 123 52 123 165c0 112 -48 166 -123 166s-122 -57 -122 -166zM48 261c0 89 24 157 73 206s113 73 191 73c77 0 140 -24 188 -72c49 -48 73 -116 73 -204c0 -87 -25 -155 -75 -204c-49 -49 -114 -73 -193 -73
c-160 0 -257 99 -257 274zM136 656c0 36 26 62 69 62c45 0 70 -26 70 -62s-29 -61 -70 -61c-44 0 -69 24 -69 61zM340 656c0 36 26 62 69 62c45 0 70 -26 70 -62s-29 -61 -70 -61c-44 0 -69 24 -69 61z" />
    <glyph glyph-name="oslash" unicode="&#xf8;" horiz-adv-x="601" 
d="M48 261c0 89 24 157 73 206s113 73 191 73c8 0 20 -1 36 -2l17 55h99l-25 -81c84 -41 134 -128 134 -248c0 -87 -25 -155 -75 -204c-49 -49 -114 -73 -193 -73c-14 0 -24 0 -30 1l-20 -64h-98l27 86c-91 41 -136 125 -136 251zM188 264c0 -57 12 -99 35 -128l91 294h-4
c-75 0 -122 -57 -122 -166zM433 264c0 55 -11 96 -33 124l-91 -289h1c76 0 123 52 123 165z" />
    <glyph glyph-name="ugrave" unicode="&#xf9;" horiz-adv-x="589" 
d="M520 528v-528h-109l-11 69c-48 -55 -104 -82 -167 -82c-112 0 -168 61 -168 183v358h133v-326c0 -69 22 -103 79 -103c41 0 77 19 110 57v372h133zM172 705l69 83l156 -143l-59 -66z" />
    <glyph glyph-name="uacute" unicode="&#xfa;" horiz-adv-x="589" 
d="M520 528v-528h-109l-11 69c-48 -55 -104 -82 -167 -82c-112 0 -168 61 -168 183v358h133v-326c0 -69 22 -103 79 -103c41 0 77 19 110 57v372h133zM253 579l-59 66l156 143l69 -83z" />
    <glyph glyph-name="ucircumflex" unicode="&#xfb;" horiz-adv-x="589" 
d="M520 528v-528h-109l-11 69c-48 -55 -104 -82 -167 -82c-112 0 -168 61 -168 183v358h133v-326c0 -69 22 -103 79 -103c41 0 77 19 110 57v372h133zM147 616l111 145h79l111 -144l-58 -41l-91 89l-91 -89z" />
    <glyph glyph-name="udieresis" unicode="&#xfc;" horiz-adv-x="589" 
d="M520 528v-528h-109l-11 69c-48 -55 -104 -82 -167 -82c-112 0 -168 61 -168 183v358h133v-326c0 -69 22 -103 79 -103c41 0 77 19 110 57v372h133zM121 656c0 36 26 62 69 62c45 0 70 -26 70 -62s-29 -61 -70 -61c-44 0 -69 24 -69 61zM325 656c0 36 26 62 69 62
c45 0 70 -26 70 -62s-29 -61 -70 -61c-44 0 -69 24 -69 61z" />
    <glyph glyph-name="yacute" unicode="&#xfd;" horiz-adv-x="536" 
d="M266 138l118 390h133l-178 -507c-10 -29 -17 -49 -22 -61c-4 -12 -10 -28 -19 -49s-16 -35 -23 -43c-12 -16 -35 -46 -58 -54s-54 -17 -94 -17c-29 0 -59 4 -89 12l10 94c25 -5 47 -7 67 -7c43 0 66 14 86 74l5 15l-184 543h139zM230 579l-59 66l156 143l69 -83z" />
    <glyph glyph-name="thorn" unicode="&#xfe;" horiz-adv-x="605" 
d="M202 361v-202c29 -40 67 -60 112 -60c81 0 121 54 121 162c0 113 -38 169 -115 169c-39 0 -78 -23 -118 -69zM202 53v-253h-133v920h130v-262c47 55 104 82 172 82c125 0 203 -98 203 -274s-75 -278 -219 -278c-62 0 -113 22 -153 65z" />
    <glyph glyph-name="ydieresis" unicode="&#xff;" horiz-adv-x="536" 
d="M266 138l118 390h133l-178 -507c-10 -29 -17 -49 -22 -61c-4 -12 -10 -28 -19 -49s-16 -35 -23 -43c-12 -16 -35 -46 -58 -54s-54 -17 -94 -17c-29 0 -59 4 -89 12l10 94c25 -5 47 -7 67 -7c43 0 66 14 86 74l5 15l-184 543h139zM98 656c0 36 26 62 69 62
c45 0 70 -26 70 -62s-29 -61 -70 -61c-44 0 -69 24 -69 61zM302 656c0 36 26 62 69 62c45 0 70 -26 70 -62s-29 -61 -70 -61c-44 0 -69 24 -69 61z" />
    <glyph glyph-name="Amacron" unicode="&#x100;" horiz-adv-x="694" 
d="M18 0l259 720h139l259 -720h-148l-53 163h-254l-53 -163h-149zM346 562l-89 -283h179zM486 784h-283v89h283v-89z" />
    <glyph glyph-name="amacron" unicode="&#x101;" horiz-adv-x="558" 
d="M360 203v14c-17 3 -38 5 -63 5c-81 0 -121 -26 -121 -78c0 -39 24 -59 72 -59c33 0 59 12 80 37s32 52 32 81zM493 346v-346h-106l-14 71c-38 -56 -93 -84 -166 -84c-99 0 -163 55 -163 155c0 47 19 87 57 119c39 32 100 48 184 48c28 0 53 -1 75 -4v39
c0 60 -30 90 -90 90c-59 0 -97 -15 -156 -50l-45 80c64 51 136 76 215 76c139 0 209 -65 209 -194zM412 608h-283v89h283v-89z" />
    <glyph glyph-name="Abreve" unicode="&#x102;" horiz-adv-x="694" 
d="M18 0l259 720h139l259 -720h-148l-53 163h-254l-53 -163h-149zM346 562l-89 -283h179zM344 843c52 0 72 23 77 63l80 -13c-9 -85 -58 -127 -157 -127c-100 0 -146 38 -159 127l83 14c8 -43 27 -64 76 -64z" />
    <glyph glyph-name="abreve" unicode="&#x103;" horiz-adv-x="558" 
d="M360 203v14c-17 3 -38 5 -63 5c-81 0 -121 -26 -121 -78c0 -39 24 -59 72 -59c33 0 59 12 80 37s32 52 32 81zM493 346v-346h-106l-14 71c-38 -56 -93 -84 -166 -84c-99 0 -163 55 -163 155c0 47 19 87 57 119c39 32 100 48 184 48c28 0 53 -1 75 -4v39
c0 60 -30 90 -90 90c-59 0 -97 -15 -156 -50l-45 80c64 51 136 76 215 76c139 0 209 -65 209 -194zM280 668c45 0 70 23 77 70l80 -13c-8 -89 -60 -134 -157 -134c-99 0 -146 41 -159 134l81 14c12 -49 30 -71 78 -71z" />
    <glyph glyph-name="Aogonek" unicode="&#x104;" horiz-adv-x="694" 
d="M18 0l259 720h139l259 -720c-64 -43 -96 -82 -96 -117c0 -21 10 -32 29 -32c18 0 36 4 55 12l19 -64c-34 -20 -71 -30 -110 -30c-65 0 -97 26 -97 79c0 51 29 101 87 152h-35l-53 163h-254l-53 -163h-149zM346 562l-89 -283h179z" />
    <glyph glyph-name="aogonek" unicode="&#x105;" horiz-adv-x="558" 
d="M493 346v-346c-54 -49 -81 -88 -81 -117c0 -21 10 -32 29 -32c18 0 36 4 55 12l19 -64c-34 -20 -71 -30 -110 -30c-65 0 -97 26 -97 79c0 47 26 98 79 152l-14 71c-38 -56 -93 -84 -166 -84c-99 0 -163 55 -163 155c0 47 19 87 57 119c39 32 100 48 184 48
c28 0 53 -1 75 -4v39c0 60 -30 90 -90 90c-59 0 -97 -15 -156 -50l-45 80c64 51 136 76 215 76c139 0 209 -65 209 -194zM360 203v14c-17 3 -38 5 -63 5c-81 0 -121 -26 -121 -78c0 -39 24 -59 72 -59c33 0 59 12 80 37s32 52 32 81z" />
    <glyph glyph-name="Cacute" unicode="&#x106;" horiz-adv-x="684" 
d="M579 195l74 -91c-81 -78 -175 -117 -283 -117c-104 0 -183 34 -237 102c-54 69 -81 159 -81 271c0 110 28 199 84 268c57 69 137 104 240 104c78 0 142 -22 192 -65c51 -43 78 -106 82 -188h-139c-5 73 -45 128 -134 128c-111 0 -177 -90 -177 -246
c0 -163 68 -249 184 -249c66 0 131 28 195 83zM294 750l-45 77l178 107l54 -97z" />
    <glyph glyph-name="cacute" unicode="&#x107;" horiz-adv-x="558" 
d="M468 146l49 -84c-61 -50 -133 -75 -218 -75c-76 0 -137 24 -183 73c-45 49 -68 117 -68 203c0 84 24 151 71 201c48 51 111 76 189 76c135 0 211 -74 215 -211h-111c-7 68 -45 103 -102 103c-76 0 -122 -57 -122 -164c0 -104 45 -170 130 -170c43 0 93 16 150 48z
M249 579l-59 66l156 143l69 -83z" />
    <glyph glyph-name="Ccircumflex" unicode="&#x108;" horiz-adv-x="684" 
d="M579 195l74 -91c-81 -78 -175 -117 -283 -117c-104 0 -183 34 -237 102c-54 69 -81 159 -81 271c0 110 28 199 84 268c57 69 137 104 240 104c78 0 142 -22 192 -65c51 -43 78 -106 82 -188h-139c-5 73 -45 128 -134 128c-111 0 -177 -90 -177 -246
c0 -163 68 -249 184 -249c66 0 131 28 195 83zM228 811l105 112h79l109 -113l-58 -49l-88 66l-87 -66z" />
    <glyph glyph-name="ccircumflex" unicode="&#x109;" horiz-adv-x="558" 
d="M468 146l49 -84c-61 -50 -133 -75 -218 -75c-76 0 -137 24 -183 73c-45 49 -68 117 -68 203c0 84 24 151 71 201c48 51 111 76 189 76c135 0 211 -74 215 -211h-111c-7 68 -45 103 -102 103c-76 0 -122 -57 -122 -164c0 -104 45 -170 130 -170c43 0 93 16 150 48z
M151 616l111 145h79l111 -144l-58 -41l-91 89l-91 -89z" />
    <glyph glyph-name="Cdotaccent" unicode="&#x10a;" horiz-adv-x="684" 
d="M579 195l74 -91c-81 -78 -175 -117 -283 -117c-104 0 -183 34 -237 102c-54 69 -81 159 -81 271c0 110 28 199 84 268c57 69 137 104 240 104c78 0 142 -22 192 -65c51 -43 78 -106 82 -188h-139c-5 73 -45 128 -134 128c-111 0 -177 -90 -177 -246
c0 -163 68 -249 184 -249c66 0 131 28 195 83zM287 837c0 43 33 68 80 68s79 -25 79 -68c0 -41 -32 -66 -79 -66c-45 0 -80 25 -80 66z" />
    <glyph glyph-name="cdotaccent" unicode="&#x10b;" horiz-adv-x="558" 
d="M468 146l49 -84c-61 -50 -133 -75 -218 -75c-76 0 -137 24 -183 73c-45 49 -68 117 -68 203c0 84 24 151 71 201c48 51 111 76 189 76c135 0 211 -74 215 -211h-111c-7 68 -45 103 -102 103c-76 0 -122 -57 -122 -164c0 -104 45 -170 130 -170c43 0 93 16 150 48z
M224 663c0 43 33 68 80 68s79 -25 79 -68c0 -41 -32 -66 -79 -66c-45 0 -80 25 -80 66z" />
    <glyph glyph-name="Ccaron" unicode="&#x10c;" horiz-adv-x="684" 
d="M579 195l74 -91c-81 -78 -175 -117 -283 -117c-104 0 -183 34 -237 102c-54 69 -81 159 -81 271c0 110 28 199 84 268c57 69 137 104 240 104c78 0 142 -22 192 -65c51 -43 78 -106 82 -188h-139c-5 73 -45 128 -134 128c-111 0 -177 -90 -177 -246
c0 -163 68 -249 184 -249c66 0 131 28 195 83zM518 874l-109 -113h-79l-105 112l60 50l87 -66l88 66z" />
    <glyph glyph-name="ccaron" unicode="&#x10d;" horiz-adv-x="558" 
d="M468 146l49 -84c-61 -50 -133 -75 -218 -75c-76 0 -137 24 -183 73c-45 49 -68 117 -68 203c0 84 24 151 71 201c48 51 111 76 189 76c135 0 211 -74 215 -211h-111c-7 68 -45 103 -102 103c-76 0 -122 -57 -122 -164c0 -104 45 -170 130 -170c43 0 93 16 150 48z
M452 725l-111 -144h-79l-108 142l59 44l90 -90l91 89z" />
    <glyph glyph-name="Dcaron" unicode="&#x10e;" horiz-adv-x="727" 
d="M314 598h-101v-477h101c145 0 212 78 212 237c0 160 -71 240 -212 240zM75 0v720h237c233 0 358 -128 358 -352c0 -256 -122 -368 -379 -368h-216zM450 874l-109 -113h-79l-105 112l60 50l87 -66l88 66z" />
    <glyph glyph-name="dcaron" unicode="&#x10f;" horiz-adv-x="677" 
d="M557 0h-118l-7 68c-39 -54 -94 -81 -164 -81c-144 0 -217 102 -217 275c0 87 20 155 61 204s95 74 161 74c58 0 109 -23 152 -70v250h132v-720zM424 158v209c-33 40 -72 60 -116 60c-73 0 -117 -55 -117 -163c0 -110 40 -165 120 -165c42 0 80 20 113 59zM694 522h-98
l31 198h121z" />
    <glyph glyph-name="Dcroat" unicode="&#x110;" horiz-adv-x="735" 
d="M81 306h-74v111h74v303h235c236 0 361 -130 361 -362c0 -247 -124 -358 -381 -358h-215v306zM321 594h-101v-177h162v-111h-162v-180h101c145 0 210 73 210 232c0 157 -66 236 -210 236z" />
    <glyph glyph-name="dcroat" unicode="&#x111;" horiz-adv-x="600" 
d="M425 558h-162v93h162v69h132v-69h56v-93h-56v-558h-118l-7 68c-41 -54 -95 -81 -164 -81c-141 0 -217 95 -217 262c0 83 20 147 60 192s91 68 154 68s117 -23 160 -70v119zM424 157v177c-35 41 -75 62 -122 62c-74 0 -111 -48 -111 -145c0 -89 35 -152 120 -152
c43 0 80 19 113 58z" />
    <glyph glyph-name="Emacron" unicode="&#x112;" horiz-adv-x="610" 
d="M560 0h-485v720h479v-122h-341v-173h310v-122h-310v-182h347v-121zM460 785h-283v89h283v-89z" />
    <glyph glyph-name="emacron" unicode="&#x113;" horiz-adv-x="575" 
d="M474 142l43 -87c-61 -45 -133 -68 -214 -68c-160 0 -255 97 -255 273c0 85 23 153 69 204c47 51 109 76 187 76c148 0 227 -87 227 -256c0 -31 -1 -53 -2 -65h-341c7 -81 50 -122 131 -122c46 0 98 15 155 45zM189 315h215c0 83 -33 125 -99 125c-39 0 -67 -14 -86 -41
s-29 -55 -30 -84zM441 608h-283v89h283v-89z" />
    <glyph glyph-name="Ebreve" unicode="&#x114;" horiz-adv-x="610" 
d="M560 0h-485v720h479v-122h-341v-173h310v-122h-310v-182h347v-121zM317 844c52 0 72 23 77 63l80 -13c-9 -85 -58 -127 -157 -127c-100 0 -146 38 -159 127l83 14c8 -43 27 -64 76 -64z" />
    <glyph glyph-name="ebreve" unicode="&#x115;" horiz-adv-x="575" 
d="M474 142l43 -87c-61 -45 -133 -68 -214 -68c-160 0 -255 97 -255 273c0 85 23 153 69 204c47 51 109 76 187 76c148 0 227 -87 227 -256c0 -31 -1 -53 -2 -65h-341c7 -81 50 -122 131 -122c46 0 98 15 155 45zM189 315h215c0 83 -33 125 -99 125c-39 0 -67 -14 -86 -41
s-29 -55 -30 -84zM306 668c45 0 70 23 77 70l80 -13c-8 -89 -60 -134 -157 -134c-99 0 -146 41 -159 134l81 14c12 -49 30 -71 78 -71z" />
    <glyph glyph-name="Edotaccent" unicode="&#x116;" horiz-adv-x="610" 
d="M560 0h-485v720h479v-122h-341v-173h310v-122h-310v-182h347v-121zM244 838c0 43 33 68 80 68s79 -25 79 -68c0 -41 -32 -66 -79 -66c-45 0 -80 25 -80 66z" />
    <glyph glyph-name="edotaccent" unicode="&#x117;" horiz-adv-x="575" 
d="M474 142l43 -87c-61 -45 -133 -68 -214 -68c-160 0 -255 97 -255 273c0 85 23 153 69 204c47 51 109 76 187 76c148 0 227 -87 227 -256c0 -31 -1 -53 -2 -65h-341c7 -81 50 -122 131 -122c46 0 98 15 155 45zM189 315h215c0 83 -33 125 -99 125c-39 0 -67 -14 -86 -41
s-29 -55 -30 -84zM230 663c0 43 33 68 80 68s79 -25 79 -68c0 -41 -32 -66 -79 -66c-45 0 -80 25 -80 66z" />
    <glyph glyph-name="Eogonek" unicode="&#x118;" horiz-adv-x="610" 
d="M435 0h-360v720h479v-122h-341v-175h310v-115h-310v-187h347v-121h-29c-53 -50 -79 -89 -79 -117c0 -21 10 -32 29 -32c18 0 36 4 55 12l19 -64c-34 -20 -71 -30 -110 -30c-65 0 -97 26 -97 79c0 51 29 101 87 152z" />
    <glyph glyph-name="eogonek" unicode="&#x119;" horiz-adv-x="553" 
d="M474 142l43 -87c-10 -7 -25 -17 -46 -29c-20 -12 -35 -22 -44 -29c-47 -33 -82 -82 -82 -114c0 -21 10 -32 29 -32c18 0 36 4 55 12l19 -64c-34 -20 -71 -30 -110 -30c-65 0 -97 26 -97 79c0 46 24 92 73 139h-11c-160 0 -255 97 -255 273c0 85 23 153 69 204
c47 51 109 76 187 76c148 0 227 -85 227 -254c0 -33 -1 -55 -2 -67h-341c7 -81 50 -122 131 -122c46 0 98 15 155 45zM189 315h215c-1 83 -34 125 -99 125c-39 0 -67 -14 -86 -41s-29 -55 -30 -84z" />
    <glyph glyph-name="Ecaron" unicode="&#x11a;" horiz-adv-x="610" 
d="M560 0h-485v720h479v-122h-341v-173h310v-122h-310v-182h347v-121zM471 875l-109 -113h-79l-105 112l60 50l87 -66l88 66z" />
    <glyph glyph-name="ecaron" unicode="&#x11b;" horiz-adv-x="575" 
d="M474 142l43 -87c-61 -45 -133 -68 -214 -68c-160 0 -255 97 -255 273c0 85 23 153 69 204c47 51 109 76 187 76c148 0 227 -87 227 -256c0 -31 -1 -53 -2 -65h-341c7 -81 50 -122 131 -122c46 0 98 15 155 45zM189 315h215c0 83 -33 125 -99 125c-39 0 -67 -14 -86 -41
s-29 -55 -30 -84zM456 725l-111 -144h-79l-108 142l59 44l90 -90l91 89z" />
    <glyph glyph-name="Gcircumflex" unicode="&#x11c;" horiz-adv-x="734" 
d="M538 269h-128v115h260v-286c-67 -74 -160 -111 -278 -111c-254 0 -340 171 -340 373c0 113 28 204 84 271c57 67 139 101 248 101c188 0 273 -94 282 -235h-143c-4 67 -47 110 -139 110c-120 0 -187 -96 -187 -245c0 -168 68 -252 203 -252c59 0 105 14 138 41v118z
M239 811l105 112h79l109 -113l-58 -49l-88 66l-87 -66z" />
    <glyph glyph-name="gcircumflex" unicode="&#x11d;" horiz-adv-x="629" 
d="M447 528h110v-499c0 -88 -20 -150 -59 -185c-39 -36 -102 -54 -189 -54c-69 0 -133 11 -191 33l21 97c64 -17 117 -26 160 -26c96 0 130 37 130 136v49c-41 -51 -95 -76 -162 -76c-139 0 -216 91 -216 258c0 171 80 279 225 279c62 0 116 -27 162 -80zM424 170v195
c-23 31 -69 62 -117 62c-77 0 -116 -53 -116 -158c0 -104 39 -156 118 -156c42 0 80 19 115 57zM159 616l111 145h79l111 -144l-58 -41l-91 89l-91 -89z" />
    <glyph glyph-name="Gbreve" unicode="&#x11e;" horiz-adv-x="734" 
d="M538 269h-128v115h260v-286c-67 -74 -160 -111 -278 -111c-254 0 -340 171 -340 373c0 113 28 204 84 271c57 67 139 101 248 101c188 0 273 -94 282 -235h-143c-4 67 -47 110 -139 110c-120 0 -187 -96 -187 -245c0 -168 68 -252 203 -252c59 0 105 14 138 41v118z
M381 843c52 0 72 23 77 63l80 -13c-9 -85 -58 -127 -157 -127c-100 0 -146 38 -159 127l83 14c8 -43 27 -64 76 -64z" />
    <glyph glyph-name="gbreve" unicode="&#x11f;" horiz-adv-x="629" 
d="M447 528h110v-499c0 -88 -20 -150 -59 -185c-39 -36 -102 -54 -189 -54c-69 0 -133 11 -191 33l21 97c64 -17 117 -26 160 -26c96 0 130 37 130 136v49c-41 -51 -95 -76 -162 -76c-139 0 -216 91 -216 258c0 171 80 279 225 279c62 0 116 -27 162 -80zM424 170v195
c-23 31 -69 62 -117 62c-77 0 -116 -53 -116 -158c0 -104 39 -156 118 -156c42 0 80 19 115 57zM300 668c45 0 70 23 77 70l80 -13c-8 -89 -60 -134 -157 -134c-99 0 -146 41 -159 134l81 14c12 -49 30 -71 78 -71z" />
    <glyph glyph-name="Gdotaccent" unicode="&#x120;" horiz-adv-x="734" 
d="M538 269h-128v115h260v-286c-67 -74 -160 -111 -278 -111c-254 0 -340 171 -340 373c0 113 28 204 84 271c57 67 139 101 248 101c188 0 273 -94 282 -235h-143c-4 67 -47 110 -139 110c-120 0 -187 -96 -187 -245c0 -168 68 -252 203 -252c59 0 105 14 138 41v118z
M309 837c0 43 33 68 80 68s79 -25 79 -68c0 -41 -32 -66 -79 -66c-45 0 -80 25 -80 66z" />
    <glyph glyph-name="gdotaccent" unicode="&#x121;" horiz-adv-x="629" 
d="M447 528h110v-499c0 -88 -20 -150 -59 -185c-39 -36 -102 -54 -189 -54c-69 0 -133 11 -191 33l21 97c64 -17 117 -26 160 -26c96 0 130 37 130 136v49c-41 -51 -95 -76 -162 -76c-139 0 -216 91 -216 258c0 171 80 279 225 279c62 0 116 -27 162 -80zM424 170v195
c-23 31 -69 62 -117 62c-77 0 -116 -53 -116 -158c0 -104 39 -156 118 -156c42 0 80 19 115 57zM220 663c0 43 33 68 80 68s79 -25 79 -68c0 -41 -32 -66 -79 -66c-45 0 -80 25 -80 66z" />
    <glyph glyph-name="Gcommaaccent" unicode="&#x122;" horiz-adv-x="734" 
d="M538 269h-128v115h260v-286c-67 -74 -160 -111 -278 -111c-254 0 -340 171 -340 373c0 113 28 204 84 271c57 67 139 101 248 101c188 0 273 -94 282 -235h-143c-4 67 -47 110 -139 110c-120 0 -187 -96 -187 -245c0 -168 68 -252 203 -252c59 0 105 14 138 41v118z
M382 -257l-88 24l40 176l110 -27z" />
    <glyph glyph-name="gcommaaccent" unicode="&#x123;" horiz-adv-x="629" 
d="M447 528h110v-499c0 -88 -20 -150 -59 -185c-39 -36 -102 -54 -189 -54c-69 0 -133 11 -191 33l21 97c64 -17 117 -26 160 -26c96 0 130 37 130 136v49c-41 -51 -95 -76 -162 -76c-139 0 -216 91 -216 258c0 171 80 279 225 279c62 0 116 -27 162 -80zM424 170v195
c-23 31 -69 62 -117 62c-77 0 -116 -53 -116 -158c0 -104 39 -156 118 -156c42 0 80 19 115 57zM299 781l88 -24l-40 -176l-110 27z" />
    <glyph glyph-name="Hcircumflex" unicode="&#x124;" horiz-adv-x="723" 
d="M213 0h-138v720h138v-293h297v293h138v-720h-138v302h-297v-302zM222 811l105 112h79l109 -113l-58 -49l-88 66l-87 -66z" />
    <glyph glyph-name="hcircumflex" unicode="&#x125;" horiz-adv-x="594" 
d="M69 0v720h133v-256c46 51 100 76 163 76c105 0 164 -68 164 -187v-353h-133v320c0 69 -19 107 -84 107c-39 0 -75 -20 -110 -59v-368h-133zM-13 799l105 112h79l109 -113l-58 -49l-88 66l-87 -66z" />
    <glyph glyph-name="Hbar" unicode="&#x126;" horiz-adv-x="723" 
d="M75 514h-59v103h59v103h138v-103h297v103h138v-103h63v-103h-63v-514h-138v302h-297v-302h-138v514zM213 514v-87h297v87h-297z" />
    <glyph glyph-name="hbar" unicode="&#x127;" horiz-adv-x="594" 
d="M69 558h-56v93h56v69h133v-69h161v-93h-161v-134c46 51 100 76 163 76c105 0 164 -68 164 -187v-313h-133v280c0 69 -19 107 -84 107c-39 0 -75 -20 -110 -59v-328h-133v558z" />
    <glyph glyph-name="Itilde" unicode="&#x128;" horiz-adv-x="292" 
d="M215 0h-138v720h138v-720zM242 900l62 -23c-14 -67 -45 -100 -94 -100c-17 0 -40 5 -70 16s-49 17 -56 17c-17 0 -28 -9 -41 -37l-63 24c21 67 52 100 93 100c17 0 40 -6 69 -17s49 -17 60 -17c19 0 27 6 40 37z" />
    <glyph glyph-name="itilde" unicode="&#x129;" horiz-adv-x="262" 
d="M229 717l62 -23c-14 -67 -45 -100 -94 -100c-17 0 -40 5 -70 16s-49 17 -56 17c-17 0 -28 -9 -41 -37l-63 24c21 67 52 100 93 100c17 0 40 -6 69 -17s49 -17 60 -17c19 0 27 6 40 37zM75 528h132v-528h-132v528z" />
    <glyph glyph-name="Imacron" unicode="&#x12a;" horiz-adv-x="292" 
d="M215 0h-138v720h138v-720zM280 784h-283v89h283v-89z" />
    <glyph glyph-name="imacron" unicode="&#x12b;" horiz-adv-x="262" 
d="M269 608h-283v89h283v-89zM75 528h132v-528h-132v528z" />
    <glyph glyph-name="Ibreve" unicode="&#x12c;" horiz-adv-x="292" 
d="M215 0h-138v720h138v-720zM150 843c52 0 72 23 77 63l80 -13c-9 -85 -58 -127 -157 -127c-100 0 -146 38 -159 127l83 14c8 -43 27 -64 76 -64z" />
    <glyph glyph-name="ibreve" unicode="&#x12d;" horiz-adv-x="262" 
d="M133 668c45 0 70 23 77 70l80 -13c-8 -89 -60 -134 -157 -134c-99 0 -146 41 -159 134l81 14c12 -49 30 -71 78 -71zM75 528h132v-528h-132v528z" />
    <glyph glyph-name="Iogonek" unicode="&#x12e;" horiz-adv-x="292" 
d="M109 0h-32v720h138v-720c-64 -43 -96 -82 -96 -117c0 -21 10 -32 29 -32c18 0 36 4 55 12l19 -64c-34 -20 -71 -30 -110 -30c-65 0 -97 26 -97 79c0 54 31 105 94 152z" />
    <glyph glyph-name="iogonek" unicode="&#x12f;" horiz-adv-x="282" 
d="M75 528h132v-528c-60 -49 -90 -88 -90 -117c0 -21 10 -32 29 -32c18 0 36 4 55 12l19 -64c-34 -20 -71 -30 -110 -30c-65 0 -97 26 -97 79c0 50 30 101 89 152h-27v528zM64 663c0 43 33 68 80 68s79 -25 79 -68c0 -41 -32 -66 -79 -66c-45 0 -80 25 -80 66z" />
    <glyph glyph-name="Idotaccent" unicode="&#x130;" horiz-adv-x="292" 
d="M215 0h-138v720h138v-720zM71 837c0 43 33 68 80 68s79 -25 79 -68c0 -41 -32 -66 -79 -66c-45 0 -80 25 -80 66z" />
    <glyph glyph-name="dotlessi" unicode="&#x131;" horiz-adv-x="282" 
d="M75 528h132v-528h-132v528z" />
    <glyph glyph-name="IJ" unicode="&#x132;" horiz-adv-x="710" 
d="M213 0h-138v720h138v-720zM499 720h139v-535c0 -132 -59 -198 -177 -198c-61 0 -112 9 -155 27l17 108c30 -11 61 -16 93 -16c63 0 83 24 83 100v514z" />
    <glyph glyph-name="ij" unicode="&#x133;" horiz-adv-x="546" 
d="M64 663c0 43 33 68 80 68s79 -25 79 -68c0 -41 -32 -66 -79 -66c-45 0 -80 25 -80 66zM75 528h132v-528h-132v528zM339 528h132v-578c0 -101 -43 -154 -144 -154c-31 0 -62 5 -91 14l10 93c17 -4 33 -6 47 -6c33 0 46 13 46 60v571zM326 663c0 43 33 68 80 68
s79 -25 79 -68c0 -41 -32 -66 -79 -66c-45 0 -80 25 -80 66z" />
    <glyph glyph-name="Jcircumflex" unicode="&#x134;" horiz-adv-x="431" 
d="M220 720h139v-535c0 -132 -59 -198 -177 -198c-61 0 -112 9 -155 27l17 108c30 -11 61 -16 93 -16c63 0 83 24 83 100v514zM137 811l105 112h79l109 -113l-58 -49l-88 66l-87 -66z" />
    <glyph glyph-name="jcircumflex" unicode="&#x135;" horiz-adv-x="264" 
d="M66 528h132v-578c0 -101 -43 -154 -144 -154c-33 0 -62 4 -87 12l8 94c15 -3 29 -5 43 -5c35 0 48 13 48 60v571zM-22 616l111 145h79l111 -144l-58 -41l-91 89l-91 -89z" />
    <glyph glyph-name="Kcommaaccent" unicode="&#x136;" horiz-adv-x="679" 
d="M213 0h-138v720h138v-297h101l165 297h154l-200 -351l227 -369h-160l-188 309h-99v-309zM337 -257l-88 24l40 176l110 -27z" />
    <glyph glyph-name="kcommaaccent" unicode="&#x137;" horiz-adv-x="571" 
d="M69 720h133v-374h65l116 182h146l-157 -234l181 -294h-155l-140 236h-56v-236h-133v720zM285 -257l-88 24l40 176l110 -27z" />
    <glyph glyph-name="kgreenlandic" unicode="&#x138;" horiz-adv-x="551" 
d="M69 528h133v-192h48l139 192h140l-171 -242l197 -286h-149l-164 233h-40v-233h-133v528z" />
    <glyph glyph-name="Lacute" unicode="&#x139;" horiz-adv-x="563" 
d="M75 0v720h138v-598h313v-122h-451zM69 750l-45 77l178 107l54 -97z" />
    <glyph glyph-name="lacute" unicode="&#x13a;" horiz-adv-x="277" 
d="M205 720v-720h-133v720h133zM62 750l-45 77l178 107l54 -97z" />
    <glyph glyph-name="Lcommaaccent" unicode="&#x13b;" horiz-adv-x="563" 
d="M75 0v720h138v-598h313v-122h-451zM283 -257l-88 24l40 176l110 -27z" />
    <glyph glyph-name="lcommaaccent" unicode="&#x13c;" horiz-adv-x="277" 
d="M205 720v-720h-133v720h133zM122 -257l-88 24l40 176l110 -27z" />
    <glyph glyph-name="Lcaron" unicode="&#x13d;" horiz-adv-x="563" 
d="M75 0v720h138v-598h313v-122h-451zM393 522h-98l31 198h121z" />
    <glyph glyph-name="lcaron" unicode="&#x13e;" horiz-adv-x="322" 
d="M205 720v-720h-133v720h133zM339 522h-98l31 198h121z" />
    <glyph glyph-name="Ldot" unicode="&#x13f;" horiz-adv-x="563" 
d="M75 0v720h138v-598h313v-122h-451zM343 374c0 43 33 68 80 68s79 -25 79 -68c0 -41 -32 -66 -79 -66c-45 0 -80 25 -80 66z" />
    <glyph glyph-name="ldot" unicode="&#x140;" horiz-adv-x="396" 
d="M205 720v-720h-133v720h133zM256 368c0 43 33 68 80 68s79 -25 79 -68c0 -41 -32 -66 -79 -66c-45 0 -80 25 -80 66z" />
    <glyph glyph-name="Lslash" unicode="&#x141;" horiz-adv-x="563" 
d="M75 397v323h138v-276l33 12l148 58v-115l-146 -57l-35 -12v-208h313v-122h-451v282l-20 -7l-64 -25v116l65 25z" />
    <glyph glyph-name="lslash" unicode="&#x142;" horiz-adv-x="303" 
d="M220 326v-326h-133v281l-76 -35v122l70 31l6 2v319h133v-272l75 33v-121l-68 -31z" />
    <glyph glyph-name="Nacute" unicode="&#x143;" horiz-adv-x="729" 
d="M211 0h-136v720h122l320 -487v487h137v-720h-121l-322 481v-481zM313 750l-45 77l178 107l54 -97z" />
    <glyph glyph-name="nacute" unicode="&#x144;" horiz-adv-x="594" 
d="M69 0v528h111l11 -70c47 55 104 82 171 82c109 0 167 -69 167 -186v-354h-133v314c0 79 -27 113 -83 113c-41 0 -78 -20 -111 -59v-368h-133zM264 579l-59 66l156 143l69 -83z" />
    <glyph glyph-name="Ncommaaccent" unicode="&#x145;" horiz-adv-x="729" 
d="M211 0h-136v720h122l320 -487v487h137v-720h-121l-322 481v-481zM366 -257l-88 24l40 176l110 -27z" />
    <glyph glyph-name="ncommaaccent" unicode="&#x146;" horiz-adv-x="594" 
d="M69 0v528h111l11 -70c47 55 104 82 171 82c109 0 167 -69 167 -186v-354h-133v314c0 79 -27 113 -83 113c-41 0 -78 -20 -111 -59v-368h-133zM290 -257l-88 24l40 176l110 -27z" />
    <glyph glyph-name="Ncaron" unicode="&#x147;" horiz-adv-x="729" 
d="M211 0h-136v720h122l320 -487v487h137v-720h-121l-322 481v-481zM518 874l-109 -113h-79l-105 112l60 50l87 -66l88 66z" />
    <glyph glyph-name="ncaron" unicode="&#x148;" horiz-adv-x="594" 
d="M69 0v528h111l11 -70c47 55 104 82 171 82c109 0 167 -69 167 -186v-354h-133v314c0 79 -27 113 -83 113c-41 0 -78 -20 -111 -59v-368h-133zM441 725l-111 -144h-79l-108 142l59 44l90 -90l91 89z" />
    <glyph glyph-name="napostrophe" unicode="&#x149;" horiz-adv-x="608" 
d="M3 652c0 29 24 51 57 51c41 0 62 -29 62 -69c0 -64 -33 -107 -100 -128l-16 38c35 15 54 37 55 67c-5 -3 -10 -4 -16 -4c-25 0 -42 20 -42 45zM108 0v528h111l11 -70c47 55 104 82 171 82c109 0 167 -69 167 -186v-354h-133v314c0 79 -27 113 -83 113
c-41 0 -78 -20 -111 -59v-368h-133z" />
    <glyph glyph-name="Eng" unicode="&#x14a;" horiz-adv-x="711" 
d="M202 0h-136v720h121l322 -496v496h136v-760c0 -103 -53 -164 -165 -164c-52 0 -93 6 -124 19l9 87c24 -8 50 -12 77 -12c46 0 69 27 69 81v48l-309 465v-484z" />
    <glyph glyph-name="eng" unicode="&#x14b;" horiz-adv-x="569" 
d="M69 0v528h111l11 -70c47 55 104 82 171 82c109 0 168 -69 168 -186v-405c0 -100 -43 -153 -144 -153c-35 0 -65 4 -90 12l9 95c13 -4 28 -6 46 -6c33 0 45 13 45 61v356c0 79 -27 113 -83 113c-41 0 -78 -20 -111 -59v-368h-133z" />
    <glyph glyph-name="Omacron" unicode="&#x14c;" horiz-adv-x="790" 
d="M197 364c0 -160 73 -251 198 -251c127 0 198 90 198 251c0 149 -74 242 -197 242c-125 0 -199 -94 -199 -242zM52 364c0 115 31 205 93 270c63 65 146 98 250 98c105 0 188 -33 250 -98s93 -155 93 -270c0 -121 -31 -214 -93 -279c-61 -65 -145 -98 -250 -98
s-189 33 -251 98c-61 66 -92 159 -92 279zM531 784h-283v89h283v-89z" />
    <glyph glyph-name="omacron" unicode="&#x14d;" horiz-adv-x="621" 
d="M188 264c0 -113 47 -165 122 -165c76 0 123 52 123 165c0 112 -48 166 -123 166s-122 -57 -122 -166zM48 261c0 89 24 157 73 206s113 73 191 73c77 0 140 -24 188 -72c49 -48 73 -116 73 -204c0 -87 -25 -155 -75 -204c-49 -49 -114 -73 -193 -73
c-160 0 -257 99 -257 274zM449 608h-283v89h283v-89z" />
    <glyph glyph-name="Obreve" unicode="&#x14e;" horiz-adv-x="790" 
d="M197 364c0 -160 73 -251 198 -251c127 0 198 90 198 251c0 149 -74 242 -197 242c-125 0 -199 -94 -199 -242zM52 364c0 115 31 205 93 270c63 65 146 98 250 98c105 0 188 -33 250 -98s93 -155 93 -270c0 -121 -31 -214 -93 -279c-61 -65 -145 -98 -250 -98
s-189 33 -251 98c-61 66 -92 159 -92 279zM389 843c52 0 72 23 77 63l80 -13c-9 -85 -58 -127 -157 -127c-100 0 -146 38 -159 127l83 14c8 -43 27 -64 76 -64z" />
    <glyph glyph-name="obreve" unicode="&#x14f;" horiz-adv-x="621" 
d="M188 264c0 -113 47 -165 122 -165c76 0 123 52 123 165c0 112 -48 166 -123 166s-122 -57 -122 -166zM48 261c0 89 24 157 73 206s113 73 191 73c77 0 140 -24 188 -72c49 -48 73 -116 73 -204c0 -87 -25 -155 -75 -204c-49 -49 -114 -73 -193 -73
c-160 0 -257 99 -257 274zM310 668c45 0 70 23 77 70l80 -13c-8 -89 -60 -134 -157 -134c-99 0 -146 41 -159 134l81 14c12 -49 30 -71 78 -71z" />
    <glyph glyph-name="Ohungarumlaut" unicode="&#x150;" horiz-adv-x="790" 
d="M197 364c0 -160 73 -251 198 -251c127 0 198 90 198 251c0 149 -74 242 -197 242c-125 0 -199 -94 -199 -242zM52 364c0 115 31 205 93 270c63 65 146 98 250 98c105 0 188 -33 250 -98s93 -155 93 -270c0 -121 -31 -214 -93 -279c-61 -65 -145 -98 -250 -98
s-189 33 -251 98c-61 66 -92 159 -92 279zM242 802l116 158l81 -63l-132 -146zM409 806l117 139l76 -68l-132 -127z" />
    <glyph glyph-name="ohungarumlaut" unicode="&#x151;" horiz-adv-x="621" 
d="M188 264c0 -113 47 -165 122 -165c76 0 123 52 123 165c0 112 -48 166 -123 166s-122 -57 -122 -166zM48 261c0 89 24 157 73 206s113 73 191 73c77 0 140 -24 188 -72c49 -48 73 -116 73 -204c0 -87 -25 -155 -75 -204c-49 -49 -114 -73 -193 -73
c-160 0 -257 99 -257 274zM172 622l98 158l82 -49l-112 -150zM328 622l97 145l81 -50l-112 -136z" />
    <glyph glyph-name="OE" unicode="&#x152;" horiz-adv-x="1124" 
d="M1074 0h-473v113c-40 -80 -128 -125 -235 -125c-95 0 -171 32 -228 96c-57 65 -86 158 -86 281c0 118 30 209 89 272c60 64 139 96 236 96c100 0 185 -46 224 -122v109h468v-122h-342v-173h311v-122h-311v-181h347v-122zM197 365c0 -160 73 -251 198 -251
c120 0 196 83 196 250c0 160 -75 242 -196 242c-124 0 -198 -93 -198 -241z" />
    <glyph glyph-name="oe" unicode="&#x153;" horiz-adv-x="952" 
d="M48 261c0 88 24 156 72 205s109 74 183 74c91 0 155 -40 193 -119c29 68 98 119 190 119c143 0 222 -86 222 -254c0 -35 -1 -57 -3 -66h-340c9 -82 53 -123 132 -123c49 0 101 15 155 46l45 -90c-61 -44 -131 -66 -210 -66c-95 0 -160 37 -195 111
c-41 -74 -108 -111 -200 -111c-148 0 -244 101 -244 274zM188 264c0 -113 47 -167 122 -167s123 54 123 167s-48 168 -123 168c-73 0 -122 -57 -122 -168zM566 309h215c-1 87 -35 131 -100 131c-27 0 -49 -8 -68 -24c-36 -32 -46 -70 -47 -107z" />
    <glyph glyph-name="Racute" unicode="&#x154;" horiz-adv-x="667" 
d="M75 0v720h259c172 0 264 -85 264 -225c0 -92 -38 -158 -115 -198l154 -297h-150l-133 265c-23 -3 -45 -5 -64 -5h-77v-260h-138zM328 601h-115v-230h109c90 0 135 39 135 118c0 75 -43 112 -129 112zM230 750l-45 77l178 107l54 -97z" />
    <glyph glyph-name="racute" unicode="&#x155;" horiz-adv-x="375" 
d="M69 528h106l12 -76c27 52 70 88 117 88c16 0 33 -4 52 -11l-10 -121c-16 5 -33 7 -50 7c-37 0 -74 -32 -94 -65v-350h-133v528zM174 579l-59 66l156 143l69 -83z" />
    <glyph glyph-name="Rcommaaccent" unicode="&#x156;" horiz-adv-x="667" 
d="M75 0v720h259c172 0 264 -85 264 -225c0 -92 -38 -158 -115 -198l154 -297h-150l-133 265c-23 -3 -45 -5 -64 -5h-77v-260h-138zM328 601h-115v-230h109c90 0 135 39 135 118c0 75 -43 112 -129 112zM332 -257l-88 24l40 176l110 -27z" />
    <glyph glyph-name="rcommaaccent" unicode="&#x157;" horiz-adv-x="375" 
d="M69 528h106l12 -76c27 52 70 88 117 88c16 0 33 -4 52 -11l-10 -121c-16 5 -33 7 -50 7c-37 0 -74 -32 -94 -65v-350h-133v528zM119 -257l-88 24l40 176l110 -27z" />
    <glyph glyph-name="Rcaron" unicode="&#x158;" horiz-adv-x="667" 
d="M75 0v720h259c172 0 264 -85 264 -225c0 -92 -38 -158 -115 -198l154 -297h-150l-133 265c-23 -3 -45 -5 -64 -5h-77v-260h-138zM328 601h-115v-230h109c90 0 135 39 135 118c0 75 -43 112 -129 112zM442 874l-109 -113h-79l-105 112l60 50l87 -66l88 66z" />
    <glyph glyph-name="rcaron" unicode="&#x159;" horiz-adv-x="375" 
d="M69 528h106l12 -76c27 52 70 88 117 88c16 0 33 -4 52 -11l-10 -121c-16 5 -33 7 -50 7c-37 0 -74 -32 -94 -65v-350h-133v528zM357 725l-111 -144h-79l-108 142l59 44l90 -90l91 89z" />
    <glyph glyph-name="Sacute" unicode="&#x15a;" horiz-adv-x="615" 
d="M31 107l69 85c72 -60 143 -90 213 -90c64 0 109 37 109 94c0 28 -10 50 -31 67s-61 34 -120 51c-76 21 -130 47 -163 78c-32 31 -48 75 -48 131c0 68 23 120 69 155c47 36 107 54 181 54c97 0 179 -34 246 -101l-67 -82c-53 47 -112 71 -176 71c-67 0 -111 -30 -111 -83
c0 -29 11 -50 34 -65c23 -14 67 -32 133 -54c71 -23 122 -50 152 -81c30 -30 45 -72 45 -127c0 -69 -23 -124 -70 -164c-47 -39 -109 -59 -188 -59c-109 0 -201 40 -277 120zM242 750l-45 77l178 107l54 -97z" />
    <glyph glyph-name="sacute" unicode="&#x15b;" horiz-adv-x="524" 
d="M33 79l59 80c59 -45 115 -68 167 -68c47 0 74 21 74 54c0 18 -7 32 -21 42c-13 10 -41 20 -84 31c-116 29 -162 74 -162 159c0 101 79 163 200 163c81 0 151 -27 210 -80l-59 -77c-52 37 -100 56 -145 56c-49 0 -73 -16 -73 -47c0 -18 8 -31 23 -40c16 -9 47 -20 92 -33
c117 -33 163 -72 163 -157c0 -111 -82 -175 -211 -175c-91 0 -169 31 -233 92zM222 579l-59 66l156 143l69 -83z" />
    <glyph glyph-name="Scircumflex" unicode="&#x15c;" horiz-adv-x="615" 
d="M31 107l69 85c72 -60 143 -90 213 -90c64 0 109 37 109 94c0 28 -10 50 -31 67s-61 34 -120 51c-76 21 -130 47 -163 78c-32 31 -48 75 -48 131c0 68 23 120 69 155c47 36 107 54 181 54c97 0 179 -34 246 -101l-67 -82c-53 47 -112 71 -176 71c-67 0 -111 -30 -111 -83
c0 -29 11 -50 34 -65c23 -14 67 -32 133 -54c71 -23 122 -50 152 -81c30 -30 45 -72 45 -127c0 -69 -23 -124 -70 -164c-47 -39 -109 -59 -188 -59c-109 0 -201 40 -277 120zM169 811l105 112h79l109 -113l-58 -49l-88 66l-87 -66z" />
    <glyph glyph-name="scircumflex" unicode="&#x15d;" horiz-adv-x="524" 
d="M33 79l59 80c59 -45 115 -68 167 -68c47 0 74 21 74 54c0 18 -7 32 -21 42c-13 10 -41 20 -84 31c-116 29 -162 74 -162 159c0 101 79 163 200 163c81 0 151 -27 210 -80l-59 -77c-52 37 -100 56 -145 56c-49 0 -73 -16 -73 -47c0 -18 8 -31 23 -40c16 -9 47 -20 92 -33
c117 -33 163 -72 163 -157c0 -111 -82 -175 -211 -175c-91 0 -169 31 -233 92zM116 616l111 145h79l111 -144l-58 -41l-91 89l-91 -89z" />
    <glyph glyph-name="Scedilla" unicode="&#x15e;" horiz-adv-x="615" 
d="M217 -205l15 57c19 -7 38 -10 57 -10c27 0 41 10 41 30c0 21 -20 31 -59 31h-18l19 86c-94 8 -174 47 -241 118l69 85c72 -60 143 -90 213 -90c64 0 109 37 109 94c0 28 -10 50 -31 67s-61 34 -120 51c-76 21 -130 47 -163 78c-32 31 -48 75 -48 131c0 68 23 120 69 155
c47 36 107 54 181 54c97 0 179 -34 246 -101l-67 -82c-53 47 -112 71 -176 71c-67 0 -111 -30 -111 -83c0 -29 11 -50 34 -65c23 -14 67 -32 133 -54c71 -23 122 -50 152 -81c30 -30 45 -72 45 -127c0 -129 -87 -211 -230 -222l-8 -40c24 -3 38 -6 57 -17
c20 -11 30 -31 30 -60c0 -60 -44 -92 -111 -92c-35 0 -64 5 -87 16z" />
    <glyph glyph-name="scedilla" unicode="&#x15f;" horiz-adv-x="524" 
d="M158 -205l15 57c19 -7 38 -10 57 -10c27 0 41 10 41 30c0 21 -20 31 -59 31h-18l19 88c-71 11 -131 40 -180 88l56 76c51 -39 118 -65 169 -65c47 0 75 22 75 55c0 36 -21 52 -105 73c-119 31 -169 73 -169 157c0 101 80 165 207 165c80 0 150 -27 210 -82l-56 -73
c-50 36 -99 54 -146 54c-49 0 -73 -16 -73 -47c0 -18 8 -32 23 -41s45 -19 90 -32c117 -33 163 -72 163 -157c0 -107 -77 -171 -200 -175l-8 -39c24 -3 38 -6 57 -17c20 -11 30 -31 30 -60c0 -60 -44 -92 -111 -92c-35 0 -64 5 -87 16z" />
    <glyph glyph-name="Scaron" unicode="&#x160;" horiz-adv-x="615" 
d="M31 107l69 85c72 -60 143 -90 213 -90c64 0 109 37 109 94c0 28 -10 50 -31 67s-61 34 -120 51c-76 21 -130 47 -163 78c-32 31 -48 75 -48 131c0 68 23 120 69 155c47 36 107 54 181 54c97 0 179 -34 246 -101l-67 -82c-53 47 -112 71 -176 71c-67 0 -111 -30 -111 -83
c0 -29 11 -50 34 -65c23 -14 67 -32 133 -54c71 -23 122 -50 152 -81c30 -30 45 -72 45 -127c0 -69 -23 -124 -70 -164c-47 -39 -109 -59 -188 -59c-109 0 -201 40 -277 120zM455 874l-109 -113h-79l-105 112l60 50l87 -66l88 66z" />
    <glyph glyph-name="scaron" unicode="&#x161;" horiz-adv-x="524" 
d="M33 79l59 80c59 -45 115 -68 167 -68c47 0 74 21 74 54c0 18 -7 32 -21 42c-13 10 -41 20 -84 31c-116 29 -162 74 -162 159c0 101 79 163 200 163c81 0 151 -27 210 -80l-59 -77c-52 37 -100 56 -145 56c-49 0 -73 -16 -73 -47c0 -18 8 -31 23 -40c16 -9 47 -20 92 -33
c117 -33 163 -72 163 -157c0 -111 -82 -175 -211 -175c-91 0 -169 31 -233 92zM416 725l-111 -144h-79l-108 142l59 44l90 -90l91 89z" />
    <glyph glyph-name="Scommaaccent" unicode="&#x218;" horiz-adv-x="615" 
d="M31 107l69 85c72 -60 143 -90 213 -90c64 0 109 37 109 94c0 28 -10 50 -31 67s-61 34 -120 51c-76 21 -130 47 -163 78c-32 31 -48 75 -48 131c0 68 23 120 69 155c47 36 107 54 181 54c97 0 179 -34 246 -101l-67 -82c-53 47 -112 71 -176 71c-67 0 -111 -30 -111 -83
c0 -29 11 -50 34 -65c23 -14 67 -32 133 -54c71 -23 122 -50 152 -81c30 -30 45 -72 45 -127c0 -69 -23 -124 -70 -164c-47 -39 -109 -59 -188 -59c-109 0 -201 40 -277 120zM305 -257l-88 24l40 176l110 -27z" />
    <glyph glyph-name="scommaaccent" unicode="&#x219;" horiz-adv-x="524" 
d="M33 79l59 80c59 -45 115 -68 167 -68c47 0 74 21 74 54c0 18 -7 32 -21 42c-13 10 -41 20 -84 31c-116 29 -162 74 -162 159c0 101 79 163 200 163c81 0 151 -27 210 -80l-59 -77c-52 37 -100 56 -145 56c-49 0 -73 -16 -73 -47c0 -18 8 -31 23 -40c16 -9 47 -20 92 -33
c117 -33 163 -72 163 -157c0 -111 -82 -175 -211 -175c-91 0 -169 31 -233 92zM253 -257l-88 24l40 176l110 -27z" />
    <glyph glyph-name="uni021A" unicode="&#x21a;" horiz-adv-x="617" 
d="M378 0h-138v598h-216v122h569v-122h-215v-598zM296 -257l-88 24l40 176l110 -27z" />
    <glyph glyph-name="uni021B" unicode="&#x21b;" horiz-adv-x="359" 
d="M324 528v-100h-95v-296c0 -29 11 -43 34 -43s44 3 62 9l13 -91c-39 -13 -80 -20 -124 -20c-78 0 -117 39 -117 118v323h-69v77l71 22l14 152h116v-151h95zM199 -257l-88 24l40 176l110 -27z" />
    <glyph glyph-name="Tcaron" unicode="&#x164;" horiz-adv-x="617" 
d="M378 0h-138v598h-216v122h569v-122h-215v-598zM450 874l-109 -113h-79l-105 112l60 50l87 -66l88 66z" />
    <glyph glyph-name="tcaron" unicode="&#x165;" horiz-adv-x="359" 
d="M324 528v-100h-95v-296c0 -29 11 -43 34 -43s44 3 62 9l13 -91c-39 -13 -80 -20 -124 -20c-78 0 -117 39 -117 118v323h-69v77l71 22l14 152h116v-151h95zM374 583h-98l31 198h121z" />
    <glyph glyph-name="Tbar" unicode="&#x166;" horiz-adv-x="617" 
d="M240 296h-123v108h123v194h-216v122h569v-122h-215v-194h119v-108h-119v-296h-138v296z" />
    <glyph glyph-name="tbar" unicode="&#x167;" horiz-adv-x="359" 
d="M313 528v-100h-84v-89h84v-90h-84v-117c0 -29 11 -43 34 -43s44 3 62 9l13 -91c-39 -13 -80 -20 -124 -20c-78 0 -117 39 -117 118v144h-69v90h69v89h-69v77l71 22l14 152h116v-151h84z" />
    <glyph glyph-name="uni0162" unicode="&#x162;" horiz-adv-x="617" 
d="M272 0h-32v598h-216v122h569v-122h-215v-598h-42l-10 -52c24 -3 38 -6 57 -17c20 -11 30 -31 30 -60c0 -60 -44 -92 -111 -92c-35 0 -64 5 -87 16l15 57c19 -7 38 -10 57 -10c27 0 41 10 41 30c0 21 -20 31 -59 31h-18z" />
    <glyph glyph-name="uni0163" unicode="&#x163;" horiz-adv-x="359" 
d="M106 -205l15 57c19 -7 38 -10 57 -10c27 0 41 10 41 30c0 21 -20 31 -59 31h-18l20 92c-43 15 -65 51 -65 110v323h-69v77l71 22l14 152h116v-151h84v-100h-84v-296c0 -29 11 -43 34 -43s44 3 62 9l13 -91c-32 -11 -70 -17 -113 -20l-8 -39c24 -3 38 -6 57 -17
c20 -11 30 -31 30 -60c0 -60 -44 -92 -111 -92c-35 0 -64 5 -87 16z" />
    <glyph glyph-name="Utilde" unicode="&#x168;" horiz-adv-x="715" 
d="M72 272v448h138v-442c0 -112 55 -168 148 -168c101 0 147 55 147 168v442h138v-448c0 -187 -101 -284 -286 -284c-183 0 -285 92 -285 284zM460 900l62 -23c-14 -67 -45 -100 -94 -100c-17 0 -40 5 -70 16s-49 17 -56 17c-17 0 -28 -9 -41 -37l-63 24
c21 67 52 100 93 100c17 0 40 -6 69 -17s49 -17 60 -17c19 0 27 6 40 37z" />
    <glyph glyph-name="utilde" unicode="&#x169;" horiz-adv-x="589" 
d="M520 528v-528h-109l-11 69c-48 -55 -104 -82 -167 -82c-112 0 -168 61 -168 183v358h133v-326c0 -69 22 -103 79 -103c41 0 77 19 110 57v372h133zM383 717l62 -23c-14 -67 -45 -100 -94 -100c-17 0 -40 5 -70 16s-49 17 -56 17c-17 0 -28 -9 -41 -37l-63 24
c21 67 52 100 93 100c17 0 40 -6 69 -17s49 -17 60 -17c19 0 27 6 40 37z" />
    <glyph glyph-name="Umacron" unicode="&#x16a;" horiz-adv-x="715" 
d="M72 272v448h138v-442c0 -112 55 -168 148 -168c101 0 147 55 147 168v442h138v-448c0 -187 -101 -284 -286 -284c-183 0 -285 92 -285 284zM502 784h-283v89h283v-89z" />
    <glyph glyph-name="umacron" unicode="&#x16b;" horiz-adv-x="589" 
d="M520 528v-528h-109l-11 69c-48 -55 -104 -82 -167 -82c-112 0 -168 61 -168 183v358h133v-326c0 -69 22 -103 79 -103c41 0 77 19 110 57v372h133zM435 608h-283v89h283v-89z" />
    <glyph glyph-name="Ubreve" unicode="&#x16c;" horiz-adv-x="715" 
d="M72 272v448h138v-442c0 -112 55 -168 148 -168c101 0 147 55 147 168v442h138v-448c0 -187 -101 -284 -286 -284c-183 0 -285 92 -285 284zM362 843c52 0 72 23 77 63l80 -13c-9 -85 -58 -127 -157 -127c-100 0 -146 38 -159 127l83 14c8 -43 27 -64 76 -64z" />
    <glyph glyph-name="ubreve" unicode="&#x16d;" horiz-adv-x="589" 
d="M520 528v-528h-109l-11 69c-48 -55 -104 -82 -167 -82c-112 0 -168 61 -168 183v358h133v-326c0 -69 22 -103 79 -103c41 0 77 19 110 57v372h133zM298 668c45 0 70 23 77 70l80 -13c-8 -89 -60 -134 -157 -134c-99 0 -146 41 -159 134l81 14c12 -49 30 -71 78 -71z" />
    <glyph glyph-name="Uring" unicode="&#x16e;" horiz-adv-x="715" 
d="M72 272v448h138v-442c0 -112 55 -168 148 -168c101 0 147 55 147 168v442h138v-448c0 -187 -101 -284 -286 -284c-183 0 -285 92 -285 284zM322 835c0 -26 14 -39 42 -39c27 0 40 14 40 41c0 26 -13 39 -40 39c-28 0 -42 -14 -42 -41zM262 833c0 59 43 97 102 97
c57 0 100 -37 100 -93c0 -57 -43 -95 -100 -95c-61 0 -102 34 -102 91z" />
    <glyph glyph-name="uring" unicode="&#x16f;" horiz-adv-x="589" 
d="M520 528v-528h-109l-11 69c-48 -55 -104 -82 -167 -82c-112 0 -168 61 -168 183v358h133v-326c0 -69 22 -103 79 -103c41 0 77 19 110 57v372h133zM258 668c0 -26 14 -39 42 -39c27 0 40 14 40 41c0 26 -13 39 -40 39c-28 0 -42 -14 -42 -41zM198 666c0 59 43 97 102 97
c57 0 100 -37 100 -93c0 -57 -43 -95 -100 -95c-61 0 -102 34 -102 91z" />
    <glyph glyph-name="Uhungarumlaut" unicode="&#x170;" horiz-adv-x="715" 
d="M72 272v448h138v-442c0 -112 55 -168 148 -168c101 0 147 55 147 168v442h138v-448c0 -187 -101 -284 -286 -284c-183 0 -285 92 -285 284zM212 802l116 158l81 -63l-132 -146zM379 806l117 139l76 -68l-132 -127z" />
    <glyph glyph-name="uhungarumlaut" unicode="&#x171;" horiz-adv-x="589" 
d="M520 528v-528h-109l-11 69c-48 -55 -104 -82 -167 -82c-112 0 -168 61 -168 183v358h133v-326c0 -69 22 -103 79 -103c41 0 77 19 110 57v372h133zM153 622l98 158l82 -49l-112 -150zM309 622l97 145l81 -50l-112 -136z" />
    <glyph glyph-name="Uogonek" unicode="&#x172;" horiz-adv-x="715" 
d="M72 272v448h138v-442c0 -112 55 -168 148 -168c101 0 147 55 147 168v442h138v-448c0 -131 -49 -199 -146 -262c-59 -39 -94 -91 -94 -127c0 -21 10 -32 29 -32c18 0 36 4 55 12l19 -64c-34 -20 -71 -30 -110 -30c-65 0 -97 26 -97 79c0 47 25 94 74 140h-16
c-183 0 -285 92 -285 284z" />
    <glyph glyph-name="uogonek" unicode="&#x173;" horiz-adv-x="589" 
d="M520 528v-528c-57 -47 -86 -86 -86 -117c0 -21 10 -32 29 -32c18 0 36 4 55 12l19 -64c-34 -20 -71 -30 -110 -30c-65 0 -97 26 -97 79c0 49 27 99 81 152l-11 69c-48 -55 -104 -82 -167 -82c-112 0 -168 61 -168 183v358h133v-326c0 -69 22 -103 79 -103
c41 0 77 19 110 57v372h133z" />
    <glyph glyph-name="Wcircumflex" unicode="&#x174;" horiz-adv-x="943" 
d="M350 0h-150l-183 720h141l128 -541l123 541h126l125 -541l124 541h142l-183 -720h-147l-124 507zM320 811l105 112h79l109 -113l-58 -49l-88 66l-87 -66z" />
    <glyph glyph-name="wcircumflex" unicode="&#x175;" horiz-adv-x="790" 
d="M557 151l77 377h132l-139 -528h-144l-90 345l-87 -345h-144l-138 528h132l84 -377l91 377h125zM243 616l111 145h79l111 -144l-58 -41l-91 89l-91 -89z" />
    <glyph glyph-name="Wgrave" unicode="&#x1e80;" horiz-adv-x="943" 
d="M350 0h-150l-183 720h141l128 -541l123 541h126l125 -541l124 541h142l-183 -720h-147l-124 507zM349 837l54 97l178 -107l-45 -77z" />
    <glyph glyph-name="wgrave" unicode="&#x1e81;" horiz-adv-x="790" 
d="M557 151l77 377h132l-139 -528h-144l-90 345l-87 -345h-144l-138 528h132l84 -377l91 377h125zM273 705l69 83l156 -143l-59 -66z" />
    <glyph glyph-name="Wacute" unicode="&#x1e82;" horiz-adv-x="943" 
d="M350 0h-150l-183 720h141l128 -541l123 541h126l125 -541l124 541h142l-183 -720h-147l-124 507zM386 750l-45 77l178 107l54 -97z" />
    <glyph glyph-name="wacute" unicode="&#x1e83;" horiz-adv-x="790" 
d="M557 151l77 377h132l-139 -528h-144l-90 345l-87 -345h-144l-138 528h132l84 -377l91 377h125zM330 579l-59 66l156 143l69 -83z" />
    <glyph glyph-name="Wdieresis" unicode="&#x1e84;" horiz-adv-x="943" 
d="M350 0h-150l-183 720h141l128 -541l123 541h126l125 -541l124 541h142l-183 -720h-147l-124 507zM303 833c0 36 26 62 69 62c45 0 70 -26 70 -62s-29 -61 -70 -61c-44 0 -69 24 -69 61zM507 833c0 36 26 62 69 62c45 0 70 -26 70 -62s-29 -61 -70 -61
c-44 0 -69 24 -69 61z" />
    <glyph glyph-name="wdieresis" unicode="&#x1e85;" horiz-adv-x="790" 
d="M557 151l77 377h132l-139 -528h-144l-90 345l-87 -345h-144l-138 528h132l84 -377l91 377h125zM223 656c0 36 26 62 69 62c45 0 70 -26 70 -62s-29 -61 -70 -61c-44 0 -69 24 -69 61zM427 656c0 36 26 62 69 62c45 0 70 -26 70 -62s-29 -61 -70 -61c-44 0 -69 24 -69 61z
" />
    <glyph glyph-name="Ygrave" unicode="&#x1ef2;" horiz-adv-x="643" 
d="M387 0h-139v287l-236 433h151l156 -296l157 296h155l-244 -433v-287zM199 837l54 97l178 -107l-45 -77z" />
    <glyph glyph-name="ygrave" unicode="&#x1ef3;" horiz-adv-x="536" 
d="M266 138l118 390h133l-178 -507c-10 -29 -17 -49 -22 -61c-4 -12 -10 -28 -19 -49s-16 -35 -23 -43c-12 -16 -35 -46 -58 -54s-54 -17 -94 -17c-29 0 -59 4 -89 12l10 94c25 -5 47 -7 67 -7c43 0 66 14 86 74l5 15l-184 543h139zM128 705l69 83l156 -143l-59 -66z" />
    <glyph glyph-name="Ycircumflex" unicode="&#x176;" horiz-adv-x="643" 
d="M387 0h-139v287l-236 433h151l156 -296l157 296h155l-244 -433v-287zM176 811l105 112h79l109 -113l-58 -49l-88 66l-87 -66z" />
    <glyph glyph-name="ycircumflex" unicode="&#x177;" horiz-adv-x="536" 
d="M266 138l118 390h133l-178 -507c-10 -29 -17 -49 -22 -61c-4 -12 -10 -28 -19 -49s-16 -35 -23 -43c-12 -16 -35 -46 -58 -54s-54 -17 -94 -17c-29 0 -59 4 -89 12l10 94c25 -5 47 -7 67 -7c43 0 66 14 86 74l5 15l-184 543h139zM119 616l111 145h79l111 -144l-58 -41
l-91 89l-91 -89z" />
    <glyph glyph-name="Ydieresis" unicode="&#x178;" horiz-adv-x="643" 
d="M387 0h-139v287l-236 433h151l156 -296l157 296h155l-244 -433v-287zM151 833c0 36 26 62 69 62c45 0 70 -26 70 -62s-29 -61 -70 -61c-44 0 -69 24 -69 61zM355 833c0 36 26 62 69 62c45 0 70 -26 70 -62s-29 -61 -70 -61c-44 0 -69 24 -69 61z" />
    <glyph glyph-name="Zacute" unicode="&#x179;" horiz-adv-x="629" 
d="M590 0h-552v88l347 510h-327v122h533v-55l-378 -544h377v-121zM270 750l-45 77l178 107l54 -97z" />
    <glyph glyph-name="zacute" unicode="&#x17a;" horiz-adv-x="480" 
d="M441 0h-398v83l229 344h-224v101h394v-59l-242 -369h241v-100zM204 579l-59 66l156 143l69 -83z" />
    <glyph glyph-name="Zdotaccent" unicode="&#x17b;" horiz-adv-x="629" 
d="M590 0h-552v88l347 510h-327v122h533v-55l-378 -544h377v-121zM242 837c0 43 33 68 80 68s79 -25 79 -68c0 -41 -32 -66 -79 -66c-45 0 -80 25 -80 66z" />
    <glyph glyph-name="zdotaccent" unicode="&#x17c;" horiz-adv-x="480" 
d="M441 0h-398v83l229 344h-224v101h394v-59l-242 -369h241v-100zM169 663c0 43 33 68 80 68s79 -25 79 -68c0 -41 -32 -66 -79 -66c-45 0 -80 25 -80 66z" />
    <glyph glyph-name="Zcaron" unicode="&#x17d;" horiz-adv-x="629" 
d="M590 0h-552v88l347 510h-327v122h533v-55l-378 -544h377v-121zM476 874l-109 -113h-79l-105 112l60 50l87 -66l88 66z" />
    <glyph glyph-name="zcaron" unicode="&#x17e;" horiz-adv-x="480" 
d="M441 0h-398v83l229 344h-224v101h394v-59l-242 -369h241v-100zM401 725l-111 -144h-79l-108 142l59 44l90 -90l91 89z" />
    <glyph glyph-name="longs" unicode="&#x17f;" horiz-adv-x="313" 
d="M218 0h-133v431h-66v76l66 15v55c0 97 48 155 148 155c33 0 62 -4 88 -11l-7 -87c-16 5 -31 7 -46 7c-33 0 -50 -20 -50 -59v-582z" />
    <glyph glyph-name="dotlessj" unicode="&#x237;" horiz-adv-x="264" 
d="M66 528h132v-578c0 -101 -43 -154 -144 -154c-33 0 -62 4 -87 12l8 94c15 -3 29 -5 43 -5c35 0 48 13 48 60v571z" />
    <glyph glyph-name="circumflex" unicode="&#x2c6;" horiz-adv-x="504" 
d="M102 616l111 145h79l111 -144l-58 -41l-91 89l-91 -89z" />
    <glyph glyph-name="caron" unicode="&#x2c7;" horiz-adv-x="504" 
d="M403 725l-111 -144h-79l-108 142l59 44l90 -90l91 89z" />
    <glyph glyph-name="uni02C9" unicode="&#x2c9;" horiz-adv-x="504" 
d="M394 608h-283v89h283v-89z" />
    <glyph glyph-name="breve" unicode="&#x2d8;" horiz-adv-x="504" 
d="M252 668c45 0 70 23 77 70l80 -13c-8 -89 -60 -134 -157 -134c-99 0 -146 41 -159 134l81 14c12 -49 30 -71 78 -71z" />
    <glyph glyph-name="dieresis" unicode="&#xa8;" horiz-adv-x="504" 
d="M83 656c0 36 26 62 69 62c45 0 70 -26 70 -62s-29 -61 -70 -61c-44 0 -69 24 -69 61zM287 656c0 36 26 62 69 62c45 0 70 -26 70 -62s-29 -61 -70 -61c-44 0 -69 24 -69 61z" />
    <glyph glyph-name="macron" unicode="&#xaf;" horiz-adv-x="504" 
d="M394 608h-283v89h283v-89z" />
    <glyph glyph-name="degree" unicode="&#xb0;" horiz-adv-x="327" 
d="M165 597c36 0 62 29 62 68s-25 66 -62 66c-39 0 -63 -26 -63 -66s24 -68 63 -68zM42 664c0 34 12 63 36 86s53 35 87 35c33 0 62 -12 85 -35s35 -52 35 -86s-12 -63 -35 -86s-52 -34 -85 -34c-71 0 -123 51 -123 120z" />
    <glyph glyph-name="acute" unicode="&#xb4;" horiz-adv-x="504" 
d="M193 579l-59 66l156 143l69 -83z" />
    <glyph glyph-name="grave" unicode="`" horiz-adv-x="504" 
d="M147 705l69 83l156 -143l-59 -66z" />
    <glyph glyph-name="cedilla" unicode="&#xb8;" horiz-adv-x="504" 
d="M158 -205l15 57c19 -7 38 -10 57 -10c27 0 41 10 41 30c0 21 -20 31 -59 31h-18l23 105h64l-12 -60c24 -3 38 -6 57 -17c20 -11 30 -31 30 -60c0 -60 -44 -92 -111 -92c-35 0 -64 5 -87 16z" />
    <glyph glyph-name="dotaccent" unicode="&#x2d9;" horiz-adv-x="504" 
d="M172 663c0 43 33 68 80 68s79 -25 79 -68c0 -41 -32 -66 -79 -66c-45 0 -80 25 -80 66z" />
    <glyph glyph-name="ring" unicode="&#x2da;" horiz-adv-x="504" 
d="M211 668c0 -26 14 -39 42 -39c27 0 40 14 40 41c0 26 -13 39 -40 39c-28 0 -42 -14 -42 -41zM151 666c0 59 43 97 102 97c57 0 100 -37 100 -93c0 -57 -43 -95 -100 -95c-61 0 -102 34 -102 91z" />
    <glyph glyph-name="ogonek" unicode="&#x2db;" horiz-adv-x="504" 
d="M252 15l77 -6v-9c-53 -50 -79 -89 -79 -117c0 -21 10 -32 29 -32c18 0 36 4 55 12l19 -64c-34 -20 -71 -30 -110 -30c-65 0 -97 26 -97 79c0 55 35 111 106 167z" />
    <glyph glyph-name="tilde" unicode="&#x2dc;" horiz-adv-x="504" 
d="M354 717l62 -23c-14 -67 -45 -100 -94 -100c-17 0 -40 5 -70 16s-49 17 -56 17c-17 0 -28 -9 -41 -37l-63 24c21 67 52 100 93 100c17 0 40 -6 69 -17s49 -17 60 -17c19 0 27 6 40 37z" />
    <glyph glyph-name="hungarumlaut" unicode="&#x2dd;" horiz-adv-x="504" 
d="M67 622l98 158l82 -49l-112 -150zM223 622l97 145l81 -50l-112 -136z" />
    <glyph glyph-name="perthousand" unicode="&#x2030;" horiz-adv-x="1212" 
d="M718 343c60 0 106 -20 139 -61c38 41 86 61 143 61c101 0 172 -68 172 -176c0 -50 -17 -92 -51 -126c-33 -33 -74 -50 -123 -50c-64 0 -112 21 -143 62c-36 -41 -82 -62 -139 -62c-51 0 -93 16 -125 48s-48 74 -48 125s16 94 49 128s75 51 126 51zM223 712
c54 0 98 -17 132 -50s51 -75 51 -126s-17 -93 -52 -127c-35 -33 -78 -50 -131 -50c-112 0 -183 70 -183 174c0 52 17 95 50 128c34 34 78 51 133 51zM312 0h-108l439 720h110zM164 599c-15 -16 -22 -37 -22 -63c0 -52 32 -86 81 -86s80 35 80 86s-31 87 -80 87
c-25 0 -44 -8 -59 -24zM645 167c0 -52 33 -86 82 -86c48 0 79 35 79 86s-31 87 -79 87c-51 0 -82 -36 -82 -87zM909 167c0 -52 32 -86 81 -86c48 0 79 35 79 86s-31 87 -79 87c-49 0 -81 -36 -81 -87z" />
    <glyph glyph-name="percent" unicode="%" horiz-adv-x="949" 
d="M645 167c0 -52 33 -86 82 -86c48 0 79 35 79 86s-31 87 -79 87c-51 0 -82 -36 -82 -87zM543 164c0 52 17 95 51 128c34 34 78 51 133 51c54 0 98 -17 131 -50c34 -33 51 -75 51 -126s-17 -93 -52 -126c-34 -33 -77 -50 -130 -50c-113 0 -184 70 -184 173zM164 599
c-15 -16 -22 -37 -22 -63c0 -52 32 -86 81 -86s80 35 80 86s-31 87 -80 87c-25 0 -44 -8 -59 -24zM223 712c54 0 98 -17 132 -50s51 -75 51 -126s-17 -93 -52 -127c-35 -33 -78 -50 -131 -50c-112 0 -183 70 -183 174c0 52 17 95 50 128c34 34 78 51 133 51zM312 0h-108
l439 720h110z" />
    <glyph glyph-name="fraction" unicode="&#x2044;" horiz-adv-x="137" 
d="M-103 0h-105l441 720h103z" />
    <glyph glyph-name="zerosuperior" unicode="&#x2070;" horiz-adv-x="390" 
d="M26 587c0 119 63 194 170 194c105 0 168 -75 168 -192c0 -121 -64 -196 -172 -196c-104 0 -166 70 -166 194zM194 479c41 0 62 36 62 107c0 73 -20 109 -60 109c-42 0 -63 -36 -63 -108s20 -108 61 -108z" />
    <glyph glyph-name="onesuperior" unicode="&#xb9;" horiz-adv-x="293" 
d="M234 774v-374h-107v250c-17 -3 -35 -5 -55 -5c-15 0 -27 1 -36 2l-8 64c53 12 94 33 123 63h83z" />
    <glyph glyph-name="twosuperior" unicode="&#xb2;" horiz-adv-x="342" 
d="M313 400h-284v62l125 122l27 27c9 11 23 31 23 48c0 24 -17 36 -51 36c-29 0 -61 -13 -98 -39l-39 58c49 45 105 67 168 67c76 0 128 -41 128 -106c0 -39 -21 -76 -62 -113l-91 -81h154v-81z" />
    <glyph glyph-name="threesuperior" unicode="&#xb3;" horiz-adv-x="346" 
d="M9 444l36 60c38 -23 73 -35 105 -35c43 0 65 15 65 44c0 27 -24 41 -72 41c-12 0 -25 -1 -39 -3v75c61 1 92 17 92 47c0 23 -18 34 -53 34c-26 0 -56 -8 -89 -24l-25 58c43 27 91 40 144 40c81 0 127 -33 127 -94c0 -43 -29 -77 -76 -90c63 -6 95 -36 95 -91
c0 -73 -62 -113 -155 -113c-64 0 -116 17 -155 51z" />
    <glyph glyph-name="foursuperior" unicode="&#x2074;" horiz-adv-x="385" 
d="M221 543v159l-106 -159h106zM319 400h-98v64h-192v78l159 232h131v-231h40v-79h-40v-64z" />
    <glyph glyph-name="fivesuperior" unicode="&#x2075;" horiz-adv-x="348" 
d="M119 533h-79l18 241h233l-5 -80h-151l-7 -76c23 14 49 21 78 21c76 0 113 -42 113 -113c0 -84 -63 -133 -155 -133c-59 0 -108 16 -148 47l32 58c35 -19 70 -29 103 -29c47 0 70 18 70 55c0 31 -17 46 -51 46c-18 0 -34 -5 -49 -16z" />
    <glyph glyph-name="sixsuperior" unicode="&#x2076;" horiz-adv-x="369" 
d="M36 567c0 129 60 214 177 214c41 0 79 -9 112 -26l-25 -64c-25 13 -50 19 -76 19c-63 0 -86 -40 -89 -109c27 23 58 35 94 35c73 0 113 -46 113 -111c0 -87 -64 -132 -151 -132c-103 0 -155 58 -155 174zM198 566c-20 0 -40 -9 -60 -26c1 -52 20 -78 55 -78s52 18 52 54
c0 33 -16 50 -47 50z" />
    <glyph glyph-name="sevensuperior" unicode="&#x2077;" horiz-adv-x="330" 
d="M312 774v-58l-138 -316h-106v9l130 281h-176v84h290z" />
    <glyph glyph-name="eightsuperior" unicode="&#x2078;" horiz-adv-x="364" 
d="M114 504c0 -31 26 -47 65 -47s59 16 59 47c0 29 -28 45 -75 58c-25 -13 -49 -28 -49 -58zM138 683c0 -20 19 -37 56 -51c27 17 40 35 40 54c0 23 -16 35 -49 35c-31 0 -47 -13 -47 -38zM26 497c0 43 27 77 80 100c-43 17 -64 45 -64 84c0 60 55 100 139 100
c89 0 141 -34 141 -91c0 -37 -21 -66 -62 -86c51 -23 77 -55 77 -98c0 -72 -63 -113 -158 -113s-153 39 -153 104z" />
    <glyph glyph-name="ninesuperior" unicode="&#x2079;" horiz-adv-x="366" 
d="M334 607c0 -129 -61 -214 -178 -214c-41 0 -78 9 -111 26l23 67c27 -13 53 -20 78 -20c61 0 85 37 90 109c-27 -26 -59 -39 -96 -39c-72 0 -113 48 -113 113c0 87 64 132 151 132c104 0 156 -58 156 -174zM174 607c23 0 43 8 60 25c0 54 -19 81 -56 81
c-35 0 -54 -20 -54 -55c0 -34 17 -51 50 -51z" />
    <glyph glyph-name="zeroinferior" unicode="&#x2080;" horiz-adv-x="390" 
d="M26 91c0 119 63 194 170 194c105 0 168 -75 168 -192c0 -121 -64 -196 -172 -196c-104 0 -166 70 -166 194zM194 -17c41 0 62 36 62 107c0 73 -20 109 -60 109c-42 0 -63 -36 -63 -108s20 -108 61 -108z" />
    <glyph glyph-name="oneinferior" unicode="&#x2081;" horiz-adv-x="293" 
d="M234 278v-374h-107v250c-17 -3 -35 -5 -55 -5c-15 0 -27 1 -36 2l-8 64c53 12 94 33 123 63h83z" />
    <glyph glyph-name="twoinferior" unicode="&#x2082;" horiz-adv-x="342" 
d="M313 -96h-284v62l125 122l27 27c9 11 23 31 23 48c0 24 -17 36 -51 36c-29 0 -61 -13 -98 -39l-39 58c49 45 105 67 168 67c76 0 128 -41 128 -106c0 -39 -21 -76 -62 -113l-91 -81h154v-81z" />
    <glyph glyph-name="threeinferior" unicode="&#x2083;" horiz-adv-x="346" 
d="M9 -52l36 60c38 -23 73 -35 105 -35c43 0 65 15 65 44c0 27 -24 41 -72 41c-12 0 -25 -1 -39 -3v75c61 1 92 17 92 47c0 23 -18 34 -53 34c-26 0 -56 -8 -89 -24l-25 58c43 27 91 40 144 40c81 0 127 -33 127 -94c0 -43 -29 -77 -76 -90c63 -6 95 -36 95 -91
c0 -73 -62 -113 -155 -113c-64 0 -116 17 -155 51z" />
    <glyph glyph-name="fourinferior" unicode="&#x2084;" horiz-adv-x="385" 
d="M221 47v159l-106 -159h106zM319 -96h-98v64h-192v78l159 232h131v-231h40v-79h-40v-64z" />
    <glyph glyph-name="fiveinferior" unicode="&#x2085;" horiz-adv-x="348" 
d="M119 37h-79l18 241h233l-5 -80h-151l-7 -76c23 14 49 21 78 21c76 0 113 -42 113 -113c0 -84 -63 -133 -155 -133c-59 0 -108 16 -148 47l32 58c35 -19 70 -29 103 -29c47 0 70 18 70 55c0 31 -17 46 -51 46c-18 0 -34 -5 -49 -16z" />
    <glyph glyph-name="sixinferior" unicode="&#x2086;" horiz-adv-x="369" 
d="M36 71c0 129 60 214 177 214c41 0 79 -9 112 -26l-25 -64c-25 13 -50 19 -76 19c-63 0 -86 -40 -89 -109c27 23 58 35 94 35c73 0 113 -46 113 -111c0 -87 -64 -132 -151 -132c-103 0 -155 58 -155 174zM198 70c-20 0 -40 -9 -60 -26c1 -52 20 -78 55 -78s52 18 52 54
c0 33 -16 50 -47 50z" />
    <glyph glyph-name="seveninferior" unicode="&#x2087;" horiz-adv-x="330" 
d="M312 278v-58l-138 -316h-106v9l130 281h-176v84h290z" />
    <glyph glyph-name="eightinferior" unicode="&#x2088;" horiz-adv-x="364" 
d="M114 8c0 -31 26 -47 65 -47s59 16 59 47c0 29 -28 45 -75 58c-25 -13 -49 -28 -49 -58zM138 187c0 -20 19 -37 56 -51c27 17 40 35 40 54c0 23 -16 35 -49 35c-31 0 -47 -13 -47 -38zM26 1c0 43 27 77 80 100c-43 17 -64 45 -64 84c0 60 55 100 139 100
c89 0 141 -34 141 -91c0 -37 -21 -66 -62 -86c51 -23 77 -55 77 -98c0 -72 -63 -113 -158 -113s-153 39 -153 104z" />
    <glyph glyph-name="nineinferior" unicode="&#x2089;" horiz-adv-x="366" 
d="M334 111c0 -129 -61 -214 -178 -214c-41 0 -78 9 -111 26l23 67c27 -13 53 -20 78 -20c61 0 85 37 90 109c-27 -26 -59 -39 -96 -39c-72 0 -113 48 -113 113c0 87 64 132 151 132c104 0 156 -58 156 -174zM174 111c23 0 43 8 60 25c0 54 -19 81 -56 81
c-35 0 -54 -20 -54 -55c0 -34 17 -51 50 -51z" />
    <glyph glyph-name="zero.num" horiz-adv-x="390" 
d="M26 537c0 119 63 194 170 194c105 0 168 -75 168 -192c0 -121 -64 -196 -172 -196c-104 0 -166 70 -166 194zM194 429c41 0 62 36 62 107c0 73 -20 109 -60 109c-42 0 -63 -36 -63 -108s20 -108 61 -108z" />
    <glyph glyph-name="one.num" horiz-adv-x="293" 
d="M234 724v-374h-107v250c-17 -3 -35 -5 -55 -5c-15 0 -27 1 -36 2l-8 64c53 12 94 33 123 63h83z" />
    <glyph glyph-name="two.num" horiz-adv-x="342" 
d="M313 350h-284v62l125 122l27 27c9 11 23 31 23 48c0 24 -17 36 -51 36c-29 0 -61 -13 -98 -39l-39 58c49 45 105 67 168 67c76 0 128 -41 128 -106c0 -39 -21 -76 -62 -113l-91 -81h154v-81z" />
    <glyph glyph-name="three.num" horiz-adv-x="346" 
d="M9 394l36 60c38 -23 73 -35 105 -35c43 0 65 15 65 44c0 27 -24 41 -72 41c-12 0 -25 -1 -39 -3v75c61 1 92 17 92 47c0 23 -18 34 -53 34c-26 0 -56 -8 -89 -24l-25 58c43 27 91 40 144 40c81 0 127 -33 127 -94c0 -43 -29 -77 -76 -90c63 -6 95 -36 95 -91
c0 -73 -62 -113 -155 -113c-64 0 -116 17 -155 51z" />
    <glyph glyph-name="four.num" horiz-adv-x="385" 
d="M221 493v159l-106 -159h106zM319 350h-98v64h-192v78l159 232h131v-231h40v-79h-40v-64z" />
    <glyph glyph-name="five.num" horiz-adv-x="348" 
d="M119 483h-79l18 241h233l-5 -80h-151l-7 -76c23 14 49 21 78 21c76 0 113 -42 113 -113c0 -84 -63 -133 -155 -133c-59 0 -108 16 -148 47l32 58c35 -19 70 -29 103 -29c47 0 70 18 70 55c0 31 -17 46 -51 46c-18 0 -34 -5 -49 -16z" />
    <glyph glyph-name="six.num" horiz-adv-x="369" 
d="M36 517c0 129 60 214 177 214c41 0 79 -9 112 -26l-25 -64c-25 13 -50 19 -76 19c-63 0 -86 -40 -89 -109c27 23 58 35 94 35c73 0 113 -46 113 -111c0 -87 -64 -132 -151 -132c-103 0 -155 58 -155 174zM198 516c-20 0 -40 -9 -60 -26c1 -52 20 -78 55 -78s52 18 52 54
c0 33 -16 50 -47 50z" />
    <glyph glyph-name="seven.num" horiz-adv-x="330" 
d="M312 724v-58l-138 -316h-106v9l130 281h-176v84h290z" />
    <glyph glyph-name="eight.num" horiz-adv-x="364" 
d="M114 454c0 -31 26 -47 65 -47s59 16 59 47c0 29 -28 45 -75 58c-25 -13 -49 -28 -49 -58zM138 633c0 -20 19 -37 56 -51c27 17 40 35 40 54c0 23 -16 35 -49 35c-31 0 -47 -13 -47 -38zM26 447c0 43 27 77 80 100c-43 17 -64 45 -64 84c0 60 55 100 139 100
c89 0 141 -34 141 -91c0 -37 -21 -66 -62 -86c51 -23 77 -55 77 -98c0 -72 -63 -113 -158 -113s-153 39 -153 104z" />
    <glyph glyph-name="nine.num" horiz-adv-x="366" 
d="M334 557c0 -129 -61 -214 -178 -214c-41 0 -78 9 -111 26l23 67c27 -13 53 -20 78 -20c61 0 85 37 90 109c-27 -26 -59 -39 -96 -39c-72 0 -113 48 -113 113c0 87 64 132 151 132c104 0 156 -58 156 -174zM174 557c23 0 43 8 60 25c0 54 -19 81 -56 81
c-35 0 -54 -20 -54 -55c0 -34 17 -51 50 -51z" />
    <glyph glyph-name="zero.denom" horiz-adv-x="390" 
d="M26 187c0 119 63 194 170 194c105 0 168 -75 168 -192c0 -121 -64 -196 -172 -196c-104 0 -166 70 -166 194zM194 79c41 0 62 36 62 107c0 73 -20 109 -60 109c-42 0 -63 -36 -63 -108s20 -108 61 -108z" />
    <glyph glyph-name="one.denom" horiz-adv-x="293" 
d="M234 374v-374h-107v250c-17 -3 -35 -5 -55 -5c-15 0 -27 1 -36 2l-8 64c53 12 94 33 123 63h83z" />
    <glyph glyph-name="two.denom" horiz-adv-x="342" 
d="M313 0h-284v62l125 122l27 27c9 11 23 31 23 48c0 24 -17 36 -51 36c-29 0 -61 -13 -98 -39l-39 58c49 45 105 67 168 67c76 0 128 -41 128 -106c0 -39 -21 -76 -62 -113l-91 -81h154v-81z" />
    <glyph glyph-name="three.denom" horiz-adv-x="346" 
d="M9 44l36 60c38 -23 73 -35 105 -35c43 0 65 15 65 44c0 27 -24 41 -72 41c-12 0 -25 -1 -39 -3v75c61 1 92 17 92 47c0 23 -18 34 -53 34c-26 0 -56 -8 -89 -24l-25 58c43 27 91 40 144 40c81 0 127 -33 127 -94c0 -43 -29 -77 -76 -90c63 -6 95 -36 95 -91
c0 -73 -62 -113 -155 -113c-64 0 -116 17 -155 51z" />
    <glyph glyph-name="four.denom" horiz-adv-x="385" 
d="M221 143v159l-106 -159h106zM319 0h-98v64h-192v78l159 232h131v-231h40v-79h-40v-64z" />
    <glyph glyph-name="five.denom" horiz-adv-x="348" 
d="M119 133h-79l18 241h233l-5 -80h-151l-7 -76c23 14 49 21 78 21c76 0 113 -42 113 -113c0 -84 -63 -133 -155 -133c-59 0 -108 16 -148 47l32 58c35 -19 70 -29 103 -29c47 0 70 18 70 55c0 31 -17 46 -51 46c-18 0 -34 -5 -49 -16z" />
    <glyph glyph-name="six.denom" horiz-adv-x="369" 
d="M36 167c0 129 60 214 177 214c41 0 79 -9 112 -26l-25 -64c-25 13 -50 19 -76 19c-63 0 -86 -40 -89 -109c27 23 58 35 94 35c73 0 113 -46 113 -111c0 -87 -64 -132 -151 -132c-103 0 -155 58 -155 174zM198 166c-20 0 -40 -9 -60 -26c1 -52 20 -78 55 -78s52 18 52 54
c0 33 -16 50 -47 50z" />
    <glyph glyph-name="seven.denom" horiz-adv-x="330" 
d="M312 374v-58l-138 -316h-106v9l130 281h-176v84h290z" />
    <glyph glyph-name="eight.denom" horiz-adv-x="364" 
d="M114 104c0 -31 26 -47 65 -47s59 16 59 47c0 29 -28 45 -75 58c-25 -13 -49 -28 -49 -58zM138 283c0 -20 19 -37 56 -51c27 17 40 35 40 54c0 23 -16 35 -49 35c-31 0 -47 -13 -47 -38zM26 97c0 43 27 77 80 100c-43 17 -64 45 -64 84c0 60 55 100 139 100
c89 0 141 -34 141 -91c0 -37 -21 -66 -62 -86c51 -23 77 -55 77 -98c0 -72 -63 -113 -158 -113s-153 39 -153 104z" />
    <glyph glyph-name="nine.denom" horiz-adv-x="366" 
d="M334 207c0 -129 -61 -214 -178 -214c-41 0 -78 9 -111 26l23 67c27 -13 53 -20 78 -20c61 0 85 37 90 109c-27 -26 -59 -39 -96 -39c-72 0 -113 48 -113 113c0 87 64 132 151 132c104 0 156 -58 156 -174zM174 207c23 0 43 8 60 25c0 54 -19 81 -56 81
c-35 0 -54 -20 -54 -55c0 -34 17 -51 50 -51z" />
    <glyph glyph-name="onehalf" unicode="&#xbd;" horiz-adv-x="889" 
d="M220 0h-105l441 720h103zM251 724v-374h-107v250c-17 -3 -35 -5 -55 -5c-15 0 -27 1 -36 2l-8 64c53 12 94 33 123 63h83zM790 0h-284v62l125 122l27 27c9 11 23 31 23 48c0 24 -17 36 -51 36c-29 0 -61 -13 -98 -39l-39 58c49 45 105 67 168 67c76 0 128 -41 128 -106
c0 -39 -21 -76 -62 -113l-91 -81h154v-81z" />
    <glyph glyph-name="onequarter" unicode="&#xbc;" horiz-adv-x="889" 
d="M254 0h-105l441 720h103zM256 724v-374h-107v250c-17 -3 -35 -5 -55 -5c-15 0 -27 1 -36 2l-8 64c53 12 94 33 123 63h83zM679 143v159l-106 -159h106zM777 0h-98v64h-192v78l159 232h131v-231h40v-79h-40v-64z" />
    <glyph glyph-name="threequarters" unicode="&#xbe;" horiz-adv-x="889" 
d="M302 0h-105l441 720h103zM698 143v159l-106 -159h106zM796 0h-98v64h-192v78l159 232h131v-231h40v-79h-40v-64zM68 394l36 60c38 -23 73 -35 105 -35c43 0 65 15 65 44c0 27 -24 41 -72 41c-12 0 -25 -1 -39 -3v75c61 1 92 17 92 47c0 23 -18 34 -53 34
c-26 0 -56 -8 -89 -24l-25 58c43 27 91 40 144 40c81 0 127 -33 127 -94c0 -43 -29 -77 -76 -90c63 -6 95 -36 95 -91c0 -73 -62 -113 -155 -113c-64 0 -116 17 -155 51z" />
    <glyph glyph-name="onethird" unicode="&#x2153;" horiz-adv-x="889" 
d="M224 0h-105l441 720h103zM241 724v-374h-107v250c-17 -3 -35 -5 -55 -5c-15 0 -27 1 -36 2l-8 64c53 12 94 33 123 63h83zM508 44l36 60c38 -23 73 -35 105 -35c43 0 65 15 65 44c0 27 -24 41 -72 41c-12 0 -25 -1 -39 -3v75c61 1 92 17 92 47c0 23 -18 34 -53 34
c-26 0 -56 -8 -89 -24l-25 58c43 27 91 40 144 40c81 0 127 -33 127 -94c0 -43 -29 -77 -76 -90c63 -6 95 -36 95 -91c0 -73 -62 -113 -155 -113c-64 0 -116 17 -155 51z" />
    <glyph glyph-name="twothirds" unicode="&#x2154;" horiz-adv-x="889" 
d="M293 0h-105l441 720h103zM332 350h-284v62l125 122l27 27c9 11 23 31 23 48c0 24 -17 36 -51 36c-29 0 -61 -13 -98 -39l-39 58c49 45 105 67 168 67c76 0 128 -41 128 -106c0 -39 -21 -76 -62 -113l-91 -81h154v-81zM559 44l36 60c38 -23 73 -35 105 -35
c43 0 65 15 65 44c0 27 -24 41 -72 41c-12 0 -25 -1 -39 -3v75c61 1 92 17 92 47c0 23 -18 34 -53 34c-26 0 -56 -8 -89 -24l-25 58c43 27 91 40 144 40c81 0 127 -33 127 -94c0 -43 -29 -77 -76 -90c63 -6 95 -36 95 -91c0 -73 -62 -113 -155 -113c-64 0 -116 17 -155 51z
" />
    <glyph glyph-name="oneeighth" unicode="&#x215b;" horiz-adv-x="889" 
d="M240 0h-105l441 720h103zM255 724v-374h-107v250c-17 -3 -35 -5 -55 -5c-15 0 -27 1 -36 2l-8 64c53 12 94 33 123 63h83zM592 104c0 -31 26 -47 65 -47s59 16 59 47c0 29 -28 45 -75 58c-25 -13 -49 -28 -49 -58zM616 283c0 -20 19 -37 56 -51c27 17 40 35 40 54
c0 23 -16 35 -49 35c-31 0 -47 -13 -47 -38zM504 97c0 43 27 77 80 100c-43 17 -64 45 -64 84c0 60 55 100 139 100c89 0 141 -34 141 -91c0 -37 -21 -66 -62 -86c51 -23 77 -55 77 -98c0 -72 -63 -113 -158 -113s-153 39 -153 104z" />
    <glyph glyph-name="threeeighths" unicode="&#x215c;" horiz-adv-x="889" 
d="M270 0h-105l441 720h103zM610 104c0 -31 26 -47 65 -47s59 16 59 47c0 29 -28 45 -75 58c-25 -13 -49 -28 -49 -58zM634 283c0 -20 19 -37 56 -51c27 17 40 35 40 54c0 23 -16 35 -49 35c-31 0 -47 -13 -47 -38zM522 97c0 43 27 77 80 100c-43 17 -64 45 -64 84
c0 60 55 100 139 100c89 0 141 -34 141 -91c0 -37 -21 -66 -62 -86c51 -23 77 -55 77 -98c0 -72 -63 -113 -158 -113s-153 39 -153 104zM42 394l36 60c38 -23 73 -35 105 -35c43 0 65 15 65 44c0 27 -24 41 -72 41c-12 0 -25 -1 -39 -3v75c61 1 92 17 92 47
c0 23 -18 34 -53 34c-26 0 -56 -8 -89 -24l-25 58c43 27 91 40 144 40c81 0 127 -33 127 -94c0 -43 -29 -77 -76 -90c63 -6 95 -36 95 -91c0 -73 -62 -113 -155 -113c-64 0 -116 17 -155 51z" />
    <glyph glyph-name="fiveeighths" unicode="&#x215d;" horiz-adv-x="889" 
d="M273 0h-105l441 720h103zM152 483h-79l18 241h233l-5 -80h-151l-7 -76c23 14 49 21 78 21c76 0 113 -42 113 -113c0 -84 -63 -133 -155 -133c-59 0 -108 16 -148 47l32 58c35 -19 70 -29 103 -29c47 0 70 18 70 55c0 31 -17 46 -51 46c-18 0 -34 -5 -49 -16zM620 104
c0 -31 26 -47 65 -47s59 16 59 47c0 29 -28 45 -75 58c-25 -13 -49 -28 -49 -58zM644 283c0 -20 19 -37 56 -51c27 17 40 35 40 54c0 23 -16 35 -49 35c-31 0 -47 -13 -47 -38zM532 97c0 43 27 77 80 100c-43 17 -64 45 -64 84c0 60 55 100 139 100c89 0 141 -34 141 -91
c0 -37 -21 -66 -62 -86c51 -23 77 -55 77 -98c0 -72 -63 -113 -158 -113s-153 39 -153 104z" />
    <glyph glyph-name="seveneighths" unicode="&#x215e;" horiz-adv-x="889" 
d="M239 0h-105l441 720h103zM604 104c0 -31 26 -47 65 -47s59 16 59 47c0 29 -28 45 -75 58c-25 -13 -49 -28 -49 -58zM628 283c0 -20 19 -37 56 -51c27 17 40 35 40 54c0 23 -16 35 -49 35c-31 0 -47 -13 -47 -38zM516 97c0 43 27 77 80 100c-43 17 -64 45 -64 84
c0 60 55 100 139 100c89 0 141 -34 141 -91c0 -37 -21 -66 -62 -86c51 -23 77 -55 77 -98c0 -72 -63 -113 -158 -113s-153 39 -153 104zM346 724v-58l-138 -316h-106v9l130 281h-176v84h290z" />
    <glyph glyph-name="minus" unicode="&#x2212;" 
d="M42 336h520v-84h-520v84z" />
    <glyph glyph-name="uni2215" unicode="&#x2215;" horiz-adv-x="137" 
d="M-103 0h-105l441 720h103z" />
    <glyph glyph-name="uni2219" unicode="&#x2219;" horiz-adv-x="303" 
d="M80 334c0 45 28 74 76 74c47 0 77 -28 77 -71c0 -44 -30 -73 -77 -73c-48 0 -76 29 -76 70z" />
    <glyph glyph-name="approxequal" unicode="&#x2248;" horiz-adv-x="747" 
d="M651 266l55 -96c-66 -51 -135 -77 -206 -77c-31 0 -76 10 -134 30c-58 21 -99 31 -124 31c-41 0 -94 -20 -158 -59l-53 95c74 51 143 77 206 77c30 0 74 -10 131 -30c58 -20 100 -30 125 -30c45 0 98 20 158 59zM653 471l55 -96c-66 -51 -135 -77 -206 -77
c-31 0 -76 10 -134 30c-58 21 -99 31 -124 31c-41 0 -94 -20 -158 -59l-53 95c74 51 143 77 206 77c30 0 74 -10 131 -30c58 -20 100 -30 125 -30c45 0 98 20 158 59z" />
    <glyph glyph-name="notequal" unicode="&#x2260;" 
d="M331 243h231v-85h-282l-96 -158h-105l96 158h-134v85h186l60 97h-246v84h297l61 99h103l-61 -99h121v-84h-172z" />
    <glyph glyph-name="lessequal" unicode="&#x2264;" 
d="M562 213l-36 -87l-484 212v62l482 212l36 -84l-362 -158zM42 85h520v-84h-520v84z" />
    <glyph glyph-name="greaterequal" unicode="&#x2265;" 
d="M562 400v-62l-484 -212l-36 87l364 157l-362 158l36 84zM42 85h520v-84h-520v84z" />
    <glyph glyph-name="less" unicode="&#x3c;" 
d="M592 131l-36 -87l-531 221v62l529 222l36 -86l-404 -167z" />
    <glyph glyph-name="equal" unicode="=" 
d="M42 424h520v-84h-520v84zM42 243h520v-84h-520v84z" />
    <glyph glyph-name="greater" unicode="&#x3e;" 
d="M580 329v-62l-530 -221l-36 86l404 166l-403 167l36 86z" />
    <glyph glyph-name="logicalnot" unicode="&#xac;" horiz-adv-x="2298" 
d="M87 720h178v-566h299v-154h-477v720zM1031 750l158 -80l-357 -700l-158 79zM1438 750l160 -80l-359 -700l-160 79zM1977 562h-92v-156h91c47 0 77 25 77 81c0 53 -31 75 -76 75zM1987 248h-102v-248h-178v720h280c161 0 249 -79 249 -230c0 -139 -89 -242 -249 -242z" />
    <glyph glyph-name="plus" unicode="+" 
d="M258 556h87v-220h218v-84h-218v-219h-87v219h-218v84h218v220z" />
    <glyph glyph-name="plusminus" unicode="&#xb1;" 
d="M345 84h217v-84h-520v84h216v170h-217v82h217v174h87v-174h217v-82h-217v-170z" />
    <glyph glyph-name="divide" unicode="&#xf7;" 
d="M302 526c31 0 56 -26 56 -58c0 -31 -24 -56 -56 -56s-58 25 -58 56s26 58 58 58zM301 180c32 0 57 -26 57 -58c0 -31 -25 -57 -58 -57c-29 0 -57 28 -57 57c0 31 27 58 58 58zM42 336h520v-84h-520v84z" />
    <glyph glyph-name="multiply" unicode="&#xd7;" 
d="M455 508l64 -64l-155 -154l155 -155l-61 -61l-155 156l-154 -156l-64 64l155 155l-155 154l61 61l154 -155z" />
    <glyph glyph-name="partialdiff" unicode="&#x2202;" horiz-adv-x="610" 
d="M246 -13c-119 0 -198 75 -198 202c0 75 20 137 60 186c41 50 96 75 166 75c67 0 129 -39 145 -102c4 41 6 69 6 84c0 113 -42 169 -125 169c-47 0 -91 -11 -133 -32l-34 80c57 35 120 52 189 52c144 0 221 -93 221 -272c1 -199 -69 -441 -297 -442zM264 87
c39 0 70 15 93 45s35 64 35 101c0 77 -37 120 -98 120c-40 0 -70 -16 -91 -47c-20 -31 -30 -67 -30 -108c0 -72 35 -111 91 -111z" />
    <glyph glyph-name="Omega" unicode="&#x2126;" horiz-adv-x="829" 
d="M753 0h-285v133c98 51 147 136 147 254c0 137 -73 219 -197 219s-199 -87 -199 -220c0 -113 44 -198 132 -253v-133h-284v119h155v8c-41 23 -77 58 -106 105s-43 101 -43 164c0 105 31 187 94 247s147 90 251 90c105 0 188 -28 250 -85c63 -56 94 -135 94 -238
c0 -70 -17 -130 -50 -180c-33 -49 -72 -84 -117 -104v-7h158v-119z" />
    <glyph glyph-name="Delta" unicode="&#x2206;" horiz-adv-x="708" 
d="M20 0l249 720h168l250 -720h-667zM353 582l-159 -470h311z" />
    <glyph glyph-name="product" unicode="&#x220f;" horiz-adv-x="737" 
d="M220 -140h-138v860h573v-860h-138v743h-297v-743z" />
    <glyph glyph-name="summation" unicode="&#x2211;" horiz-adv-x="601" 
d="M545 720v-119h-322l187 -284l-189 -317h352v-119h-560v52l233 384l-233 351v52h532z" />
    <glyph glyph-name="uni0394" unicode="&#x394;" horiz-adv-x="708" 
d="M20 0l249 720h168l250 -720h-667zM353 582l-159 -470h311z" />
    <glyph glyph-name="uni03A9" unicode="&#x3a9;" horiz-adv-x="829" 
d="M753 0h-285v133c98 51 147 136 147 254c0 137 -73 219 -197 219s-199 -87 -199 -220c0 -113 44 -198 132 -253v-133h-284v119h155v8c-41 23 -77 58 -106 105s-43 101 -43 164c0 105 31 187 94 247s147 90 251 90c105 0 188 -28 250 -85c63 -56 94 -135 94 -238
c0 -70 -17 -130 -50 -180c-33 -49 -72 -84 -117 -104v-7h158v-119z" />
    <glyph glyph-name="uni03BC" unicode="&#x3bc;" horiz-adv-x="592" 
d="M518 528v-528h-117v64c-26 -47 -65 -71 -118 -71c-35 0 -64 12 -87 37v-230h-132v728h132v-330c0 -71 30 -106 89 -106c43 0 76 21 101 64v372h132z" />
    <glyph glyph-name="pi" unicode="&#x3c0;" horiz-adv-x="726" 
d="M52 528h622v-101h-79v-427h-131v427h-194v-427h-132v427h-86v101z" />
    <glyph glyph-name="mu" unicode="&#xb5;" horiz-adv-x="592" 
d="M518 528v-528h-117v64c-26 -47 -65 -71 -118 -71c-35 0 -64 12 -87 37v-230h-132v728h132v-330c0 -71 30 -106 89 -106c43 0 76 21 101 64v372h132z" />
    <glyph glyph-name="radical" unicode="&#x221a;" horiz-adv-x="757" 
d="M172 232h-132v95h222l117 -341l281 838h118l-336 -990h-124z" />
    <glyph glyph-name="infinity" unicode="&#x221e;" horiz-adv-x="788" 
d="M735 314c0 -51 -14 -92 -43 -123c-28 -31 -63 -46 -104 -46c-44 0 -80 10 -116 35c-17 13 -30 23 -38 30l-37 37c-63 -67 -117 -102 -185 -102c-96 0 -159 59 -159 156s65 165 165 165c73 0 124 -36 180 -107c69 73 116 108 188 108c96 0 149 -66 149 -153zM644 306
c0 55 -25 83 -75 83c-40 0 -69 -24 -121 -84c48 -55 90 -83 125 -83c47 0 71 37 71 84zM346 304c-42 56 -82 84 -120 84c-53 0 -82 -36 -82 -84c0 -51 29 -83 82 -83c36 0 83 32 120 83z" />
    <glyph glyph-name="integral" unicode="&#x222b;" horiz-adv-x="361" 
d="M-6 -200v98h62c47 0 70 24 70 91v627c0 116 53 174 158 174h75v-97h-55h-2c-35 0 -52 -25 -52 -75v-638c0 -120 -61 -180 -183 -180h-73z" />
    <glyph glyph-name="lozenge" unicode="&#x25ca;" horiz-adv-x="629" 
d="M357 0h-93l-193 352l193 348h93l202 -346zM445 351l-133 238l-128 -238l128 -240z" />
    <glyph glyph-name="commaaccent" horiz-adv-x="504" 
d="M268 -257l-88 24l40 176l110 -27z" />
    <glyph glyph-name="revcommaaccent" horiz-adv-x="504" 
d="M223 780l88 -24l-40 -176l-110 27z" />
    <glyph glyph-name="tilde.cap" horiz-adv-x="504" 
d="M354 900l62 -23c-14 -67 -45 -100 -94 -100c-17 0 -40 5 -70 16s-49 17 -56 17c-17 0 -28 -9 -41 -37l-63 24c21 67 52 100 93 100c17 0 40 -6 69 -17s49 -17 60 -17c19 0 27 6 40 37z" />
    <glyph glyph-name="ring.cap" horiz-adv-x="504" 
d="M211 835c0 -26 14 -39 42 -39c27 0 40 14 40 41c0 26 -13 39 -40 39c-28 0 -42 -14 -42 -41zM151 833c0 59 43 97 102 97c57 0 100 -37 100 -93c0 -57 -43 -95 -100 -95c-61 0 -102 34 -102 91z" />
    <glyph glyph-name="circumflex.cap" horiz-adv-x="504" 
d="M108 811l105 112h79l109 -113l-58 -49l-88 66l-87 -66z" />
    <glyph glyph-name="acute.cap" horiz-adv-x="504" 
d="M176 750l-45 77l178 107l54 -97z" />
    <glyph glyph-name="grave.cap" horiz-adv-x="504" 
d="M139 837l54 97l178 -107l-45 -77z" />
    <glyph glyph-name="dieresis.cap" horiz-adv-x="504" 
d="M83 833c0 36 26 62 69 62c45 0 70 -26 70 -62s-29 -61 -70 -61c-44 0 -69 24 -69 61zM287 833c0 36 26 62 69 62c45 0 70 -26 70 -62s-29 -61 -70 -61c-44 0 -69 24 -69 61z" />
    <glyph glyph-name="caron.cap" horiz-adv-x="504" 
d="M401 874l-109 -113h-79l-105 112l60 50l87 -66l88 66z" />
    <glyph glyph-name="macron.cap" horiz-adv-x="504" 
d="M394 784h-283v89h283v-89z" />
    <glyph glyph-name="dotaccent.cap" horiz-adv-x="504" 
d="M172 837c0 43 33 68 80 68s79 -25 79 -68c0 -41 -32 -66 -79 -66c-45 0 -80 25 -80 66z" />
    <glyph glyph-name="cedilla.cap" horiz-adv-x="504" 
d="M158 -205l15 57c19 -7 38 -10 57 -10c27 0 41 10 41 30c0 21 -20 31 -59 31h-18l23 105h64l-12 -60c24 -3 38 -6 57 -17c20 -11 30 -31 30 -60c0 -60 -44 -92 -111 -92c-35 0 -64 5 -87 16z" />
    <glyph glyph-name="hungarumlaut.cap" horiz-adv-x="504" 
d="M75 802l116 158l81 -63l-132 -146zM242 806l117 139l76 -68l-132 -127z" />
    <glyph glyph-name="apostrophe" unicode="&#x2bc;" horiz-adv-x="504" 
d="M171 678c0 32 23 54 55 54c41 0 62 -32 62 -73c0 -61 -25 -100 -93 -124l-18 33c35 15 53 38 54 69c-3 -2 -9 -3 -16 -3c-25 0 -44 19 -44 44z" />
    <glyph glyph-name="commaaccent.cap" horiz-adv-x="504" 
d="M268 -257l-88 24l40 176l110 -27z" />
    <glyph glyph-name="breve.cap" horiz-adv-x="504" 
d="M252 843c52 0 72 23 77 63l80 -13c-9 -85 -58 -127 -157 -127c-100 0 -146 38 -159 127l83 14c8 -43 27 -64 76 -64z" />
    <glyph glyph-name="caron.alt" horiz-adv-x="504" 
d="M277 522h-98l31 198h121z" />
    <glyph glyph-name="ogonek.cap" horiz-adv-x="504" 
d="M252 15l77 -6v-9c-53 -50 -79 -89 -79 -117c0 -21 10 -32 29 -32c18 0 36 4 55 12l19 -64c-34 -20 -71 -30 -110 -30c-65 0 -97 26 -97 79c0 55 35 111 106 167z" />
    <glyph glyph-name="ampersand.alt" horiz-adv-x="743" 
d="M696 68l-93 -78l-83 91c-68 -68 -132 -96 -225 -96c-67 0 -122 19 -164 58s-63 91 -63 154c0 95 52 169 155 221c-44 47 -66 97 -66 148c0 46 18 84 53 115s83 47 144 47c103 0 176 -49 176 -162v-22h-110v21c0 48 -27 73 -72 73c-44 0 -69 -25 -69 -60
c0 -33 18 -62 67 -117l132 -146l107 98l78 -79l-112 -101zM314 92c52 0 98 24 137 71l-163 184c-63 -30 -95 -76 -95 -138c0 -67 48 -117 121 -117z" />
    <glyph glyph-name="J.alt" horiz-adv-x="431" 
d="M220 720h139v-499c0 -144 -69 -221 -257 -221h-68v119h42c61 0 100 7 117 22c18 15 27 47 27 94v485z" />
    <glyph glyph-name="Q.alt" horiz-adv-x="790" 
d="M52 364c0 115 31 205 93 270c63 65 146 98 250 98c105 0 188 -33 250 -98s93 -155 93 -270c0 -215 -105 -347 -277 -372v-131h-137v132c-169 28 -272 159 -272 371zM197 364c0 -160 73 -251 198 -251c127 0 198 90 198 251c0 149 -74 242 -197 242
c-125 0 -199 -94 -199 -242z" />
    <glyph glyph-name="j.alt" horiz-adv-x="282" 
d="M75 528h132v-575c0 -104 -45 -157 -165 -157h-69v106h45c45 0 57 12 57 60v566zM62 663c0 43 33 68 80 68s79 -25 79 -68c0 -41 -32 -66 -79 -66c-45 0 -80 25 -80 66z" />
    <glyph glyph-name="m.alt" horiz-adv-x="859" 
d="M69 0v528h253c69 0 113 -24 133 -71c57 55 121 83 192 83c98 0 147 -58 147 -174v-366h-133v340c0 57 -17 86 -65 86c-31 0 -64 -18 -98 -54v-372h-132v336c0 56 -17 80 -72 80h-92v-416h-133z" />
    <glyph glyph-name="y.alt" horiz-adv-x="535" 
d="M267 154l117 374h133l-189 -522v-64c0 -52 -10 -89 -31 -110c-20 -21 -59 -32 -116 -32h-73v103h47c37 0 44 10 44 51v48l-181 526h139z" />
    <glyph glyph-name="Jcircumflex.alt" horiz-adv-x="431" 
d="M220 720h139v-499c0 -144 -69 -221 -257 -221h-68v119h42c61 0 100 7 117 22c18 15 27 47 27 94v485zM136 811l105 112h79l109 -113l-58 -49l-88 66l-87 -66z" />
    <glyph glyph-name="jcircumflex.alt" horiz-adv-x="282" 
d="M75 528h132v-575c0 -104 -45 -157 -165 -157h-69v106h45c45 0 57 12 57 60v566zM-9 616l111 145h79l111 -144l-58 -41l-91 89l-91 -89z" />
    <glyph glyph-name="ygrave.alt" horiz-adv-x="535" 
d="M267 154l117 374h133l-189 -522v-64c0 -52 -10 -89 -31 -110c-20 -21 -59 -32 -116 -32h-73v103h47c37 0 44 10 44 51v48l-181 526h139zM126 705l69 83l156 -143l-59 -66z" />
    <glyph glyph-name="ycircumflex.alt" horiz-adv-x="535" 
d="M267 154l117 374h133l-189 -522v-64c0 -52 -10 -89 -31 -110c-20 -21 -59 -32 -116 -32h-73v103h47c37 0 44 10 44 51v48l-181 526h139zM123 616l111 145h79l111 -144l-58 -41l-91 89l-91 -89z" />
    <glyph glyph-name="ydieresis.alt" horiz-adv-x="535" 
d="M267 154l117 374h133l-189 -522v-64c0 -52 -10 -89 -31 -110c-20 -21 -59 -32 -116 -32h-73v103h47c37 0 44 10 44 51v48l-181 526h139zM99 656c0 36 26 62 69 62c45 0 70 -26 70 -62s-29 -61 -70 -61c-44 0 -69 24 -69 61zM303 656c0 36 26 62 69 62c45 0 70 -26 70 -62
s-29 -61 -70 -61c-44 0 -69 24 -69 61z" />
    <glyph glyph-name="yacute.alt" horiz-adv-x="535" 
d="M267 154l117 374h133l-189 -522v-64c0 -52 -10 -89 -31 -110c-20 -21 -59 -32 -116 -32h-73v103h47c37 0 44 10 44 51v48l-181 526h139zM240 569l-59 66l156 143l69 -83z" />
    <glyph glyph-name="agrave.alt" horiz-adv-x="624" 
d="M557 0h-118l-7 68c-39 -54 -94 -81 -164 -81c-144 0 -217 102 -217 275c0 87 20 155 61 204s95 74 161 74c69 0 124 -26 165 -79l9 67h110v-528zM424 158v209c-33 40 -72 60 -116 60c-73 0 -117 -55 -117 -163c0 -110 40 -165 120 -165c42 0 80 20 113 59zM195 705l69 83
l156 -143l-59 -66z" />
    <glyph glyph-name="a.alt" horiz-adv-x="624" 
d="M557 0h-118l-7 68c-39 -54 -94 -81 -164 -81c-144 0 -217 102 -217 275c0 87 20 155 61 204s95 74 161 74c69 0 124 -26 165 -79l9 67h110v-528zM424 158v209c-33 40 -72 60 -116 60c-73 0 -117 -55 -117 -163c0 -110 40 -165 120 -165c42 0 80 20 113 59z" />
    <glyph glyph-name="aacute.alt" horiz-adv-x="624" 
d="M557 0h-118l-7 68c-39 -54 -94 -81 -164 -81c-144 0 -217 102 -217 275c0 87 20 155 61 204s95 74 161 74c69 0 124 -26 165 -79l9 67h110v-528zM424 158v209c-33 40 -72 60 -116 60c-73 0 -117 -55 -117 -163c0 -110 40 -165 120 -165c42 0 80 20 113 59zM271 579
l-59 66l156 143l69 -83z" />
    <glyph glyph-name="acircumflex.alt" horiz-adv-x="624" 
d="M557 0h-118l-7 68c-39 -54 -94 -81 -164 -81c-144 0 -217 102 -217 275c0 87 20 155 61 204s95 74 161 74c69 0 124 -26 165 -79l9 67h110v-528zM424 158v209c-33 40 -72 60 -116 60c-73 0 -117 -55 -117 -163c0 -110 40 -165 120 -165c42 0 80 20 113 59zM159 616
l111 145h79l111 -144l-58 -41l-91 89l-91 -89z" />
    <glyph glyph-name="atilde.alt" horiz-adv-x="624" 
d="M557 0h-118l-7 68c-39 -54 -94 -81 -164 -81c-144 0 -217 102 -217 275c0 87 20 155 61 204s95 74 161 74c69 0 124 -26 165 -79l9 67h110v-528zM424 158v209c-33 40 -72 60 -116 60c-73 0 -117 -55 -117 -163c0 -110 40 -165 120 -165c42 0 80 20 113 59zM400 715
l62 -23c-14 -67 -45 -100 -94 -100c-17 0 -40 5 -70 16s-49 17 -56 17c-17 0 -28 -9 -41 -37l-63 24c21 67 52 100 93 100c17 0 40 -6 69 -17s49 -17 60 -17c19 0 27 6 40 37z" />
    <glyph glyph-name="adieresis.alt" horiz-adv-x="624" 
d="M557 0h-118l-7 68c-39 -54 -94 -81 -164 -81c-144 0 -217 102 -217 275c0 87 20 155 61 204s95 74 161 74c69 0 124 -26 165 -79l9 67h110v-528zM424 158v209c-33 40 -72 60 -116 60c-73 0 -117 -55 -117 -163c0 -110 40 -165 120 -165c42 0 80 20 113 59zM144 656
c0 36 26 62 69 62c45 0 70 -26 70 -62s-29 -61 -70 -61c-44 0 -69 24 -69 61zM348 656c0 36 26 62 69 62c45 0 70 -26 70 -62s-29 -61 -70 -61c-44 0 -69 24 -69 61z" />
    <glyph glyph-name="aring.alt" horiz-adv-x="624" 
d="M557 0h-118l-7 68c-39 -54 -94 -81 -164 -81c-144 0 -217 102 -217 275c0 87 20 155 61 204s95 74 161 74c69 0 124 -26 165 -79l9 67h110v-528zM424 158v209c-33 40 -72 60 -116 60c-73 0 -117 -55 -117 -163c0 -110 40 -165 120 -165c42 0 80 20 113 59zM265 668
c0 -26 14 -39 42 -39c27 0 40 14 40 41c0 26 -13 39 -40 39c-28 0 -42 -14 -42 -41zM205 666c0 59 43 97 102 97c57 0 100 -37 100 -93c0 -57 -43 -95 -100 -95c-61 0 -102 34 -102 91z" />
    <glyph glyph-name="amacron.alt" horiz-adv-x="624" 
d="M557 0h-118l-7 68c-39 -54 -94 -81 -164 -81c-144 0 -217 102 -217 275c0 87 20 155 61 204s95 74 161 74c69 0 124 -26 165 -79l9 67h110v-528zM424 158v209c-33 40 -72 60 -116 60c-73 0 -117 -55 -117 -163c0 -110 40 -165 120 -165c42 0 80 20 113 59zM460 608h-283
v89h283v-89z" />
    <glyph glyph-name="abreve.alt" horiz-adv-x="624" 
d="M557 0h-118l-7 68c-39 -54 -94 -81 -164 -81c-144 0 -217 102 -217 275c0 87 20 155 61 204s95 74 161 74c69 0 124 -26 165 -79l9 67h110v-528zM424 158v209c-33 40 -72 60 -116 60c-73 0 -117 -55 -117 -163c0 -110 40 -165 120 -165c42 0 80 20 113 59zM316 668
c45 0 70 23 77 70l80 -13c-8 -89 -60 -134 -157 -134c-99 0 -146 41 -159 134l81 14c12 -49 30 -71 78 -71z" />
    <glyph glyph-name="aogonek.alt" horiz-adv-x="624" 
d="M444 0l-9 68c-32 -44 -91 -81 -167 -81c-144 0 -217 102 -217 275c0 87 20 155 61 204s95 74 161 74c69 0 124 -26 165 -79l9 67h110v-528c-48 -36 -90 -86 -90 -117c0 -21 10 -32 29 -32c15 0 32 4 51 12l19 -64c-34 -20 -71 -30 -110 -30c-67 0 -100 32 -100 83
c0 45 29 94 88 148zM424 158v209c-33 40 -72 60 -116 60c-73 0 -117 -55 -117 -163c0 -110 40 -165 120 -165c42 0 80 20 113 59z" />
    <glyph glyph-name="gcircumflex.alt" horiz-adv-x="629" 
d="M447 528h110v-499c0 -86 -22 -146 -66 -179s-111 -50 -202 -50h-162v106h152c107 0 150 29 150 124v49c-41 -51 -95 -76 -162 -76c-139 0 -216 91 -216 258c0 171 80 279 225 279c62 0 116 -27 162 -80zM424 170v195c-23 31 -69 62 -117 62c-77 0 -116 -53 -116 -158
c0 -104 39 -156 118 -156c42 0 80 19 115 57zM148 616l111 145h79l111 -144l-58 -41l-91 89l-91 -89z" />
    <glyph glyph-name="g.alt" horiz-adv-x="629" 
d="M447 528h110v-499c0 -86 -22 -146 -66 -179s-111 -50 -202 -50h-162v106h152c107 0 150 29 150 124v49c-41 -51 -95 -76 -162 -76c-139 0 -216 91 -216 258c0 171 80 279 225 279c62 0 116 -27 162 -80zM424 170v195c-23 31 -69 62 -117 62c-77 0 -116 -53 -116 -158
c0 -104 39 -156 118 -156c42 0 80 19 115 57z" />
    <glyph glyph-name="gbreve.alt" horiz-adv-x="629" 
d="M447 528h110v-499c0 -86 -22 -146 -66 -179s-111 -50 -202 -50h-162v106h152c107 0 150 29 150 124v49c-41 -51 -95 -76 -162 -76c-139 0 -216 91 -216 258c0 171 80 279 225 279c62 0 116 -27 162 -80zM424 170v195c-23 31 -69 62 -117 62c-77 0 -116 -53 -116 -158
c0 -104 39 -156 118 -156c42 0 80 19 115 57zM296 668c45 0 70 23 77 70l80 -13c-8 -89 -60 -134 -157 -134c-99 0 -146 41 -159 134l81 14c12 -49 30 -71 78 -71z" />
    <glyph glyph-name="gdotaccent.alt" horiz-adv-x="629" 
d="M447 528h110v-499c0 -86 -22 -146 -66 -179s-111 -50 -202 -50h-162v106h152c107 0 150 29 150 124v49c-41 -51 -95 -76 -162 -76c-139 0 -216 91 -216 258c0 171 80 279 225 279c62 0 116 -27 162 -80zM424 170v195c-23 31 -69 62 -117 62c-77 0 -116 -53 -116 -158
c0 -104 39 -156 118 -156c42 0 80 19 115 57zM215 663c0 43 33 68 80 68s79 -25 79 -68c0 -41 -32 -66 -79 -66c-45 0 -80 25 -80 66z" />
    <glyph glyph-name="gcommaaccent.alt" horiz-adv-x="629" 
d="M447 528h110v-499c0 -86 -22 -146 -66 -179s-111 -50 -202 -50h-162v106h152c107 0 150 29 150 124v49c-41 -51 -95 -76 -162 -76c-139 0 -216 91 -216 258c0 171 80 279 225 279c62 0 116 -27 162 -80zM424 170v195c-23 31 -69 62 -117 62c-77 0 -116 -53 -116 -158
c0 -104 39 -156 118 -156c42 0 80 19 115 57zM299 780l88 -24l-40 -176l-110 27z" />
    <glyph glyph-name="onefifth" horiz-adv-x="889" 
d="M234 0h-105l441 720h103zM260 724v-374h-107v250c-17 -3 -35 -5 -55 -5c-15 0 -27 1 -36 2l-8 64c53 12 94 33 123 63h83zM608 133h-79l18 241h233l-5 -80h-151l-7 -76c23 14 49 21 78 21c76 0 113 -42 113 -113c0 -84 -63 -133 -155 -133c-59 0 -108 16 -148 47l32 58
c35 -19 70 -29 103 -29c47 0 70 18 70 55c0 31 -17 46 -51 46c-18 0 -34 -5 -49 -16z" />
    <glyph glyph-name="twofifths" horiz-adv-x="889" 
d="M288 0h-105l441 720h103zM335 350h-284v62l125 122l27 27c9 11 23 31 23 48c0 24 -17 36 -51 36c-29 0 -61 -13 -98 -39l-39 58c49 45 105 67 168 67c76 0 128 -41 128 -106c0 -39 -21 -76 -62 -113l-91 -81h154v-81zM647 133h-79l18 241h233l-5 -80h-151l-7 -76
c23 14 49 21 78 21c76 0 113 -42 113 -113c0 -84 -63 -133 -155 -133c-59 0 -108 16 -148 47l32 58c35 -19 70 -29 103 -29c47 0 70 18 70 55c0 31 -17 46 -51 46c-18 0 -34 -5 -49 -16z" />
    <glyph glyph-name="threefifths" horiz-adv-x="889" 
d="M283 0h-105l441 720h103zM646 133h-79l18 241h233l-5 -80h-151l-7 -76c23 14 49 21 78 21c76 0 113 -42 113 -113c0 -84 -63 -133 -155 -133c-59 0 -108 16 -148 47l32 58c35 -19 70 -29 103 -29c47 0 70 18 70 55c0 31 -17 46 -51 46c-18 0 -34 -5 -49 -16zM63 394
l36 60c38 -23 73 -35 105 -35c43 0 65 15 65 44c0 27 -24 41 -72 41c-12 0 -25 -1 -39 -3v75c61 1 92 17 92 47c0 23 -18 34 -53 34c-26 0 -56 -8 -89 -24l-25 58c43 27 91 40 144 40c81 0 127 -33 127 -94c0 -43 -29 -77 -76 -90c63 -6 95 -36 95 -91
c0 -73 -62 -113 -155 -113c-64 0 -116 17 -155 51z" />
    <glyph glyph-name="fourfifths" horiz-adv-x="889" 
d="M284 0h-105l441 720h103zM645 133h-79l18 241h233l-5 -80h-151l-7 -76c23 14 49 21 78 21c76 0 113 -42 113 -113c0 -84 -63 -133 -155 -133c-59 0 -108 16 -148 47l32 58c35 -19 70 -29 103 -29c47 0 70 18 70 55c0 31 -17 46 -51 46c-18 0 -34 -5 -49 -16zM221 493v159
l-106 -159h106zM319 350h-98v64h-192v78l159 232h131v-231h40v-79h-40v-64z" />
    <glyph glyph-name="onesixth" horiz-adv-x="889" 
d="M242 0h-105l441 720h103zM259 724v-374h-107v250c-17 -3 -35 -5 -55 -5c-15 0 -27 1 -36 2l-8 64c53 12 94 33 123 63h83zM499 167c0 129 60 214 177 214c41 0 79 -9 112 -26l-25 -64c-25 13 -50 19 -76 19c-63 0 -86 -40 -89 -109c27 23 58 35 94 35
c73 0 113 -46 113 -111c0 -87 -64 -132 -151 -132c-103 0 -155 58 -155 174zM661 166c-20 0 -40 -9 -60 -26c1 -52 20 -78 55 -78s52 18 52 54c0 33 -16 50 -47 50z" />
    <glyph glyph-name="fivesixths" horiz-adv-x="889" 
d="M273 0h-105l441 720h103zM517 167c0 129 60 214 177 214c41 0 79 -9 112 -26l-25 -64c-25 13 -50 19 -76 19c-63 0 -86 -40 -89 -109c27 23 58 35 94 35c73 0 113 -46 113 -111c0 -87 -64 -132 -151 -132c-103 0 -155 58 -155 174zM679 166c-20 0 -40 -9 -60 -26
c1 -52 20 -78 55 -78s52 18 52 54c0 33 -16 50 -47 50zM157 483h-79l18 241h233l-5 -80h-151l-7 -76c23 14 49 21 78 21c76 0 113 -42 113 -113c0 -84 -63 -133 -155 -133c-59 0 -108 16 -148 47l32 58c35 -19 70 -29 103 -29c47 0 70 18 70 55c0 31 -17 46 -51 46
c-18 0 -34 -5 -49 -16z" />
    <glyph glyph-name="oneseventh" horiz-adv-x="889" 
d="M220 0h-105l441 720h103zM235 724v-374h-107v250c-17 -3 -35 -5 -55 -5c-15 0 -27 1 -36 2l-8 64c53 12 94 33 123 63h83zM824 374v-58l-138 -316h-106v9l130 281h-176v84h290z" />
    <glyph glyph-name="twosevenths" horiz-adv-x="889" 
d="M286 0h-105l441 720h103zM331 350h-284v62l125 122l27 27c9 11 23 31 23 48c0 24 -17 36 -51 36c-29 0 -61 -13 -98 -39l-39 58c49 45 105 67 168 67c76 0 128 -41 128 -106c0 -39 -21 -76 -62 -113l-91 -81h154v-81zM855 374v-58l-138 -316h-106v9l130 281h-176v84h290z
" />
    <glyph glyph-name="threesevenths" horiz-adv-x="889" 
d="M252 0h-105l441 720h103zM837 374v-58l-138 -316h-106v9l130 281h-176v84h290zM31 394l36 60c38 -23 73 -35 105 -35c43 0 65 15 65 44c0 27 -24 41 -72 41c-12 0 -25 -1 -39 -3v75c61 1 92 17 92 47c0 23 -18 34 -53 34c-26 0 -56 -8 -89 -24l-25 58c43 27 91 40 144 40
c81 0 127 -33 127 -94c0 -43 -29 -77 -76 -90c63 -6 95 -36 95 -91c0 -73 -62 -113 -155 -113c-64 0 -116 17 -155 51z" />
    <glyph glyph-name="foursevenths" horiz-adv-x="889" 
d="M265 0h-105l441 720h103zM213 493v159l-106 -159h106zM311 350h-98v64h-192v78l159 232h131v-231h40v-79h-40v-64zM847 374v-58l-138 -316h-106v9l130 281h-176v84h290z" />
    <glyph glyph-name="fivesevenths" horiz-adv-x="889" 
d="M251 0h-105l441 720h103zM142 483h-79l18 241h233l-5 -80h-151l-7 -76c23 14 49 21 78 21c76 0 113 -42 113 -113c0 -84 -63 -133 -155 -133c-59 0 -108 16 -148 47l32 58c35 -19 70 -29 103 -29c47 0 70 18 70 55c0 31 -17 46 -51 46c-18 0 -34 -5 -49 -16zM835 374v-58
l-138 -316h-106v9l130 281h-176v84h290z" />
    <glyph glyph-name="sixsevenths" horiz-adv-x="889" 
d="M258 0h-105l441 720h103zM38 517c0 129 60 214 177 214c41 0 79 -9 112 -26l-25 -64c-25 13 -50 19 -76 19c-63 0 -86 -40 -89 -109c27 23 58 35 94 35c73 0 113 -46 113 -111c0 -87 -64 -132 -151 -132c-103 0 -155 58 -155 174zM200 516c-20 0 -40 -9 -60 -26
c1 -52 20 -78 55 -78s52 18 52 54c0 33 -16 50 -47 50zM851 374v-58l-138 -316h-106v9l130 281h-176v84h290z" />
    <glyph glyph-name="oneninth" horiz-adv-x="889" 
d="M243 0h-105l441 720h103zM252 724v-374h-107v250c-17 -3 -35 -5 -55 -5c-15 0 -27 1 -36 2l-8 64c53 12 94 33 123 63h83zM835 207c0 -129 -61 -214 -178 -214c-41 0 -78 9 -111 26l23 67c27 -13 53 -20 78 -20c61 0 85 37 90 109c-27 -26 -59 -39 -96 -39
c-72 0 -113 48 -113 113c0 87 64 132 151 132c104 0 156 -58 156 -174zM675 207c23 0 43 8 60 25c0 54 -19 81 -56 81c-35 0 -54 -20 -54 -55c0 -34 17 -51 50 -51z" />
    <glyph glyph-name="twoninths" horiz-adv-x="889" 
d="M301 0h-105l441 720h103zM338 350h-284v62l125 122l27 27c9 11 23 31 23 48c0 24 -17 36 -51 36c-29 0 -61 -13 -98 -39l-39 58c49 45 105 67 168 67c76 0 128 -41 128 -106c0 -39 -21 -76 -62 -113l-91 -81h154v-81zM857 207c0 -129 -61 -214 -178 -214
c-41 0 -78 9 -111 26l23 67c27 -13 53 -20 78 -20c61 0 85 37 90 109c-27 -26 -59 -39 -96 -39c-72 0 -113 48 -113 113c0 87 64 132 151 132c104 0 156 -58 156 -174zM697 207c23 0 43 8 60 25c0 54 -19 81 -56 81c-35 0 -54 -20 -54 -55c0 -34 17 -51 50 -51z" />
    <glyph glyph-name="fourninths" horiz-adv-x="889" 
d="M296 0h-105l441 720h103zM231 493v159l-106 -159h106zM329 350h-98v64h-192v78l159 232h131v-231h40v-79h-40v-64zM855 207c0 -129 -61 -214 -178 -214c-41 0 -78 9 -111 26l23 67c27 -13 53 -20 78 -20c61 0 85 37 90 109c-27 -26 -59 -39 -96 -39
c-72 0 -113 48 -113 113c0 87 64 132 151 132c104 0 156 -58 156 -174zM695 207c23 0 43 8 60 25c0 54 -19 81 -56 81c-35 0 -54 -20 -54 -55c0 -34 17 -51 50 -51z" />
    <glyph glyph-name="fiveninths" horiz-adv-x="889" 
d="M261 0h-105l441 720h103zM145 483h-79l18 241h233l-5 -80h-151l-7 -76c23 14 49 21 78 21c76 0 113 -42 113 -113c0 -84 -63 -133 -155 -133c-59 0 -108 16 -148 47l32 58c35 -19 70 -29 103 -29c47 0 70 18 70 55c0 31 -17 46 -51 46c-18 0 -34 -5 -49 -16zM826 207
c0 -129 -61 -214 -178 -214c-41 0 -78 9 -111 26l23 67c27 -13 53 -20 78 -20c61 0 85 37 90 109c-27 -26 -59 -39 -96 -39c-72 0 -113 48 -113 113c0 87 64 132 151 132c104 0 156 -58 156 -174zM666 207c23 0 43 8 60 25c0 54 -19 81 -56 81c-35 0 -54 -20 -54 -55
c0 -34 17 -51 50 -51z" />
    <glyph glyph-name="sevenninths" horiz-adv-x="889" 
d="M217 0h-105l441 720h103zM817 207c0 -129 -61 -214 -178 -214c-41 0 -78 9 -111 26l23 67c27 -13 53 -20 78 -20c61 0 85 37 90 109c-27 -26 -59 -39 -96 -39c-72 0 -113 48 -113 113c0 87 64 132 151 132c104 0 156 -58 156 -174zM657 207c23 0 43 8 60 25
c0 54 -19 81 -56 81c-35 0 -54 -20 -54 -55c0 -34 17 -51 50 -51zM318 724v-58l-138 -316h-106v9l130 281h-176v84h290z" />
    <glyph glyph-name="eightninths" horiz-adv-x="889" 
d="M275 0h-105l441 720h103zM832 207c0 -129 -61 -214 -178 -214c-41 0 -78 9 -111 26l23 67c27 -13 53 -20 78 -20c61 0 85 37 90 109c-27 -26 -59 -39 -96 -39c-72 0 -113 48 -113 113c0 87 64 132 151 132c104 0 156 -58 156 -174zM672 207c23 0 43 8 60 25
c0 54 -19 81 -56 81c-35 0 -54 -20 -54 -55c0 -34 17 -51 50 -51zM141 454c0 -31 26 -47 65 -47s59 16 59 47c0 29 -28 45 -75 58c-25 -13 -49 -28 -49 -58zM165 633c0 -20 19 -37 56 -51c27 17 40 35 40 54c0 23 -16 35 -49 35c-31 0 -47 -13 -47 -38zM53 447
c0 43 27 77 80 100c-43 17 -64 45 -64 84c0 60 55 100 139 100c89 0 141 -34 141 -91c0 -37 -21 -66 -62 -86c51 -23 77 -55 77 -98c0 -72 -63 -113 -158 -113s-153 39 -153 104z" />
    <glyph glyph-name="logicalnot.001" 
d="M571 396v-273h-87v191h-450v82h537z" />
    <glyph glyph-name="currency" unicode="&#xa4;" horiz-adv-x="581" 
d="M403 337c0 65 -49 112 -113 112c-63 0 -114 -48 -114 -112c0 -67 49 -114 114 -114c64 0 113 50 113 114zM126 440l-88 90l56 60l88 -91c33 22 69 33 108 33s74 -11 105 -32l89 88l58 -58l-90 -90c23 -31 35 -65 35 -103c0 -39 -11 -74 -34 -107l90 -88l-59 -58l-89 89
c-33 -21 -68 -32 -105 -32c-38 0 -74 11 -107 32c-9 -8 -23 -22 -43 -43c-19 -20 -35 -35 -46 -46l-56 58l88 89c-22 32 -33 67 -33 106c0 37 11 71 33 103z" />
    <glyph glyph-name="arrowright" unicode="&#x2192;" horiz-adv-x="504" 
d="M331 212h-329v99h329l-92 92l66 60l197 -201v-1l-199 -201l-65 60z" />
    <glyph glyph-name="arrowleft" unicode="&#x2190;" horiz-adv-x="504" 
d="M173 311h329v-99h-329l93 -92l-65 -60l-199 201v1l197 201l66 -60z" />
    <glyph glyph-name="arrowup" unicode="&#x2191;" horiz-adv-x="504" 
d="M301 347v-336h-98v335l-93 -91l-60 58l203 198l200 -199l-60 -58z" />
    <glyph glyph-name="arrowdown" unicode="&#x2193;" horiz-adv-x="504" 
d="M203 176v335h98v-336l92 93l60 -58l-200 -199l-203 198l60 58z" />
    <glyph glyph-name="arrownorthwest" unicode="&#x2196;" horiz-adv-x="504" 
d="M215 356l235 -233l-67 -69l-235 237v-122h-90v268h282v-81h-125z" />
    <glyph glyph-name="arrownortheast" unicode="&#x2197;" horiz-adv-x="504" 
d="M356 291l-235 -237l-67 69l235 233h-125v81h282v-268h-90v122z" />
    <glyph glyph-name="arrowsoutheast" unicode="&#x2198;" horiz-adv-x="504" 
d="M291 130l-235 233l67 69l235 -237v122h90v-268h-282v81h125z" />
    <glyph glyph-name="arrowsouthwest" unicode="&#x2199;" horiz-adv-x="504" 
d="M146 195l235 237l67 -69l-235 -233h125v-81h-282v268h90v-122z" />
    <glyph glyph-name="arrowboth" unicode="&#x2194;" horiz-adv-x="1004" 
d="M827 212h-652l92 -92l-66 -60l-199 202l197 201l66 -60l-92 -92h655l-92 92l69 63l194 -204l-199 -202l-66 60z" />
    <glyph glyph-name="arrowupdn" unicode="&#x2195;" horiz-adv-x="754" 
d="M428 546v-652l92 93l60 -67l-202 -198l-201 196l60 67l92 -92v655l-92 -93l-63 69l205 195l201 -199l-60 -67z" />
    <glyph glyph-name="arrowright.750" horiz-adv-x="754" 
d="M581 211h-578v100h578l-93 92l67 59l197 -200l-199 -202l-64 60z" />
    <glyph glyph-name="arrowup.750" horiz-adv-x="754" 
d="M426 478v-585h-98v584l-93 -91l-60 58l203 198l200 -199l-60 -58z" />
    <glyph glyph-name="arrowleft.750" horiz-adv-x="754" 
d="M173 311h578v-100h-578l92 -91l-64 -60l-199 202l197 200l67 -59z" />
    <glyph glyph-name="arrowdown.750" horiz-adv-x="754" 
d="M328 45v584h98v-585l92 93l60 -58l-200 -199l-203 198l60 58z" />
    <glyph glyph-name="arrownorthwest.750" horiz-adv-x="754" 
d="M253 440l412 -410l-69 -70l-405 403v-129h-92v289h285v-83h-131z" />
    <glyph glyph-name="arrownortheast.750" horiz-adv-x="754" 
d="M562 358l-405 -403l-69 70l412 410h-131v83h285v-289h-92v129z" />
    <glyph glyph-name="arrowsoutheast.750" horiz-adv-x="754" 
d="M500 83l-412 410l69 70l405 -403v129h92v-289h-285v83h131z" />
    <glyph glyph-name="arrowsouthwest.750" horiz-adv-x="754" 
d="M191 160l405 403l69 -70l-412 -410h131v-83h-285v289h92v-129z" />
    <glyph glyph-name="uni21B6" unicode="&#x21b6;" horiz-adv-x="754" 
d="M216 188v118c0 133 86 218 237 218c147 0 231 -83 231 -224h-97c-2 97 -47 145 -134 145c-93 0 -139 -48 -139 -145v-113l92 93l60 -58l-201 -199l-202 197l60 60z" />
    <glyph glyph-name="uni21B7" unicode="&#x21b7;" horiz-adv-x="754" 
d="M537 310v-122l93 92l60 -60l-202 -197l-201 199l60 58l92 -93v113c0 97 -46 145 -139 145c-87 0 -132 -48 -134 -145h-97c0 141 85 224 242 224c152 0 226 -78 226 -214z" />
    <glyph glyph-name="arrowdblleft" unicode="&#x21d0;" horiz-adv-x="754" 
d="M253 471l67 -59l-53 -53h410v-69h-477l-26 -26l25 -25h478v-69h-411l51 -52l-67 -62l-201 205z" />
    <glyph glyph-name="arrowdblup" unicode="&#x21d1;" horiz-adv-x="754" 
d="M605 424l-60 -67l-53 53v-410h-69v478l-26 25l-26 -26v-477h-68v410l-51 -50l-63 67l207 201z" />
    <glyph glyph-name="arrowdblright" unicode="&#x21d2;" horiz-adv-x="754" 
d="M77 359h410l-53 53l67 59l204 -210l-201 -205l-67 62l51 52h-411v69h478l25 25l-26 26h-477v69z" />
    <glyph glyph-name="arrowdbldown" unicode="&#x21d3;" horiz-adv-x="754" 
d="M492 615v-410l53 53l60 -67l-209 -204l-207 201l63 67l51 -50v410h68v-477l26 -26l26 25v478h69z" />
    <glyph glyph-name="uni25C0" unicode="&#x25c0;" horiz-adv-x="614" 
d="M550 490v-468l-486 236z" />
    <glyph glyph-name="uni25B6" unicode="&#x25b6;" horiz-adv-x="614" 
d="M64 490l486 -232l-486 -236v468z" />
    <glyph glyph-name="uni25C1" unicode="&#x25c1;" horiz-adv-x="614" 
d="M205 260l284 -143l1 280zM64 261l486 229v-465l-486 234v2z" />
    <glyph glyph-name="uni25B7" unicode="&#x25b7;" horiz-adv-x="614" 
d="M409 260l-285 137l1 -280zM550 259l-486 -234v465l486 -229v-2z" />
    <glyph glyph-name="filledbox" unicode="&#x25a0;" horiz-adv-x="614" 
d="M481 500v-349h-349v349h349z" />
    <glyph glyph-name="H22073" unicode="&#x25a1;" horiz-adv-x="614" 
d="M177 196h259v259h-259v-259zM481 500v-349h-349v349h349z" />
    <glyph glyph-name="H18533" unicode="&#x25cf;" horiz-adv-x="614" 
d="M452 179c-40 -40 -88 -60 -145 -60s-105 20 -145 60s-60 88 -60 145s20 105 60 145s88 60 145 60s105 -20 145 -60s60 -88 60 -145s-20 -105 -60 -145z" />
    <glyph glyph-name="circle" unicode="&#x25cb;" horiz-adv-x="614" 
d="M452 179c-40 -40 -88 -60 -145 -60s-105 20 -145 60s-60 88 -60 145s20 105 60 145s88 60 145 60s105 -20 145 -60s60 -88 60 -145s-20 -105 -60 -145zM307 167c42 0 78 16 107 47c29 32 44 70 44 113s-15 79 -44 108c-29 30 -64 45 -107 45s-78 -15 -107 -46
c-29 -30 -43 -67 -43 -110s14 -80 43 -111s64 -46 107 -46z" />
    <glyph glyph-name="uni25C2" unicode="&#x25c2;" horiz-adv-x="429" 
d="M277 434v-231l-185 117z" />
    <glyph glyph-name="uni25B8" unicode="&#x25b8;" horiz-adv-x="429" 
d="M152 434l185 -114l-185 -117v231z" />
    <glyph glyph-name="uni25C6" unicode="&#x25c6;" horiz-adv-x="614" 
d="M307 535l209 -210l-210 -209l-209 210z" />
    </font>
</defs>
</svg>
