<?xml version="1.0" encoding="utf-8"?>
<!-- Generator: Adobe Illustrator 16.0.3, SVG Export Plug-In . SVG Version: 6.00 Build 0)  -->
<!DOCTYPE svg PUBLIC "-//W3C//DTD SVG 1.1//EN" "http://www.w3.org/Graphics/SVG/1.1/DTD/svg11.dtd">
<svg version="1.1" xmlns="http://www.w3.org/2000/svg" xmlns:xlink="http://www.w3.org/1999/xlink" x="0px" y="0px"
	  viewBox="0 0 24 24" enable-background="new 0 0 24 24" xml:space="preserve" id="avatar">
		<path fill="currentColor" d="M19.677,17.318L15,15.647v-2.207c1.503-1.162,2.5-3.165,2.5-5.441c0-3.584-2.467-6.5-5.5-6.5S6.5,4.416,6.5,8
			c0,2.276,0.997,4.279,2.5,5.441v2.207l-4.678,1.671C2.933,17.815,2,19.139,2,20.614V22.5C2,22.776,2.224,23,2.5,23h19
			c0.276,0,0.5-0.224,0.5-0.5v-1.886C22,19.139,21.066,17.815,19.677,17.318z M12,2.5c2.204,0,4.039,1.947,4.423,4.507
			c-0.007,0.001-0.011,0.001-0.018,0.002c-1.453,0.28-2.352-0.192-3.206-1.687c-0.09-0.159-0.229-0.245-0.444-0.252
			c-0.183,0.003-0.349,0.106-0.434,0.269C11.861,6.224,10.308,7,9,7C8.491,7,8.054,6.916,7.624,6.74C8.092,4.313,9.874,2.5,12,2.5z
			 M7.5,8c0-0.081,0.007-0.16,0.01-0.24C7.979,7.918,8.464,8,9,8c1.374,0,2.881-0.653,3.735-1.55
			c0.797,1.109,1.737,1.635,2.931,1.635c0.264,0,0.545-0.034,0.834-0.085c0,3.033-2.019,5.5-4.5,5.5S7.5,11.033,7.5,8z M21,22H3
			v-1.386c0-1.053,0.667-1.999,1.659-2.354l5.009-1.789C9.867,16.4,10,16.211,10,16v-1.951c0.621,0.288,1.294,0.451,2,0.451
			s1.379-0.164,2-0.451V16c0,0.211,0.133,0.4,0.332,0.471l5.008,1.789c0.993,0.355,1.66,1.301,1.66,2.354V22z"/>
</svg>
