<?xml version="1.0" encoding="UTF-8"?>
<svg width="23px" height="23px" viewBox="0 0 23 23" version="1.1" xmlns="http://www.w3.org/2000/svg" xmlns:xlink="http://www.w3.org/1999/xlink" id="logout">
    <g id="Page-1" stroke="none" stroke-width="1" fill="none" fill-rule="evenodd">
        <g id="logout-icon" transform="translate(-1.000000, -1.000000)">
            <g id="Outline_Icons_1_" transform="translate(1.000000, 1.000000)" fill-rule="nonzero" fill="currentColor">
                <g id="Outline_Icons">
                    <g id="Group">
                        <path d="M11.146,15.146 C10.951,15.341 10.951,15.658 11.146,15.853 C11.341,16.048 11.658,16.048 11.853,15.853 L15.853,11.853 C16.047,11.658 16.048,11.341 15.853,11.145 L11.853,7.145 C11.658,6.95 11.341,6.95 11.146,7.145 C10.951,7.34 10.951,7.657 11.146,7.852 L14.293,11 L0.5,11 C0.224,11 -8.8817842e-16,11.224 -8.8817842e-16,11.5 C-8.8817842e-16,11.776 0.224,12 0.5,12 L14.293,12 L11.146,15.146 Z" id="Shape"></path>
                        <path d="M11.5,0 C7.001,0 2.89,2.647 1.027,6.744 C0.913,6.995 1.024,7.292 1.275,7.406 C1.529,7.522 1.823,7.408 1.937,7.158 C3.639,3.417 7.392,1 11.5,1 C17.29,1 22,5.71 22,11.5 C22,17.29 17.29,22 11.5,22 C7.369,22 3.606,19.563 1.914,15.793 C1.801,15.541 1.505,15.428 1.253,15.542 C1.001,15.655 0.888,15.951 1.002,16.203 C2.854,20.332 6.976,23 11.5,23 C17.841,23 23,17.841 23,11.5 C23,5.159 17.841,0 11.5,0 Z" id="Shape"></path>
                    </g>
                </g>
            </g>
            <g id="Invisible_SHape">
                <rect id="Rectangle-path" x="0" y="0" width="24" height="24"></rect>
            </g>
        </g>
    </g>
</svg>
