<?xml version="1.0" encoding="utf-8"?>
<!-- Generator: Adobe Illustrator 16.0.3, SVG Export Plug-In . SVG Version: 6.00 Build 0)  -->
<!DOCTYPE svg PUBLIC "-//W3C//DTD SVG 1.1//EN" "http://www.w3.org/Graphics/SVG/1.1/DTD/svg11.dtd">
<svg version="1.1" xmlns="http://www.w3.org/2000/svg" xmlns:xlink="http://www.w3.org/1999/xlink" x="0px" y="0px"
	  viewBox="0 0 24 24" xml:space="preserve" id="move-left-right">
	<g>
		<g>
			<path fill="currentColor" d="M18.5,10h-18c-0.453,0-0.675-0.558-0.339-0.867l6.5-6c0.203-0.188,0.52-0.175,0.706,0.028
				C7.555,3.364,7.542,3.68,7.339,3.867L1.779,9H18.5C18.776,9,19,9.224,19,9.5S18.776,10,18.5,10z"/>
		</g>
		<g>
			<path fill="currentColor" d="M16.633,20.839c-0.188-0.203-0.175-0.519,0.028-0.706L22.221,15H5.5C5.224,15,5,14.776,5,14.5S5.224,14,5.5,14h18
				c0.453,0,0.675,0.558,0.339,0.867l-6.5,6C17.139,21.053,16.821,21.044,16.633,20.839z"/>
		</g>
	</g>

</svg>
