<?xml version="1.0" encoding="utf-8"?>
<!-- Generator: Adobe Illustrator 19.2.1, SVG Export Plug-In . SVG Version: 6.00 Build 0)  -->
<svg version="1.1" xmlns="http://www.w3.org/2000/svg" xmlns:xlink="http://www.w3.org/1999/xlink" x="0px" y="0px"
	  viewBox="0 0 24 24" enable-background="new 0 0 24 24" xml:space="preserve">
<g id="Outline_Icons_1_">
	<g id="Outline_Icons">
		<path fill="currentColor" d="M23.25,2.893l-2.122-2.122c-0.943-0.944-2.592-0.944-3.536,0c0,0-14.858,14.861-15.344,15.347
			c-0.001,0.001-0.003,0.001-0.004,0.003c-0.001,0.002-0.002,0.003-0.003,0.004l-0.248,0.248c-0.066,0.066-0.112,0.149-0.133,0.239
			l-1.517,6.465c-0.085,0.361,0.239,0.685,0.601,0.601l6.466-1.517c0.09-0.021,0.173-0.067,0.239-0.133l0.248-0.247
			c0.001-0.001,0.003-0.001,0.004-0.003c0.001-0.001,0.002-0.003,0.003-0.004C23.835,5.843,20.303,9.375,23.25,6.428
			C24.223,5.453,24.223,3.867,23.25,2.893z M20.763,7.501L16.53,3.247l0.708-0.709l4.244,4.243L20.763,7.501z M7.546,20.717
			l-4.242-4.242L15.823,3.954l4.233,4.254L7.546,20.717z M2.722,17.308l3.991,3.99L1.5,22.521L2.722,17.308z M22.542,5.721
			l-0.354,0.354l-4.244-4.244l0.354-0.354c0.566-0.566,1.555-0.567,2.122,0L22.542,3.6C23.126,4.184,23.126,5.136,22.542,5.721z"/>
	</g>
	<g id="New_icons_1_">
	</g>
</g>

</svg>
