<?xml version="1.0" encoding="utf-8"?>
<svg version="1.1" xmlns="http://www.w3.org/2000/svg" xmlns:xlink="http://www.w3.org/1999/xlink" x="0px" y="0px"
	  viewBox="0 0 24 24" enable-background="new 0 0 24 24" xml:space="preserve" id="search-icon">
  <path fill="currentColor" d="M23.854,23.146l-9.009-9.009C16.181,12.635,17,10.664,17,8.5C17,3.813,13.187,0,8.5,0S0,3.813,0,8.5S3.813,17,8.5,17
    c2.164,0,4.135-0.819,5.637-2.156l9.009,9.009c0.195,0.195,0.512,0.195,0.707,0C24.049,23.658,24.049,23.342,23.854,23.146z
     M1,8.5C1,4.364,4.364,1,8.5,1S16,4.364,16,8.5S12.636,16,8.5,16S1,12.636,1,8.5z"/>
</svg>
